<?xml version="1.0" standalone="no"?>
<!DOCTYPE svg PUBLIC "-//W3C//DTD SVG 20010904//EN"
 "http://www.w3.org/TR/2001/REC-SVG-20010904/DTD/svg10.dtd">
<svg version="1.0" xmlns="http://www.w3.org/2000/svg"
 width="1280.000000pt" height="905.000000pt" viewBox="0 0 1280.000000 905.000000"
 preserveAspectRatio="xMidYMid meet">

<g transform="translate(0.000000,905.000000) scale(0.100000,-0.100000)"
fill="#000000" stroke="none">
<path d="M70 9042 c0 -4 -10 -12 -22 -17 -13 -6 -22 -16 -20 -23 1 -7 -5 -15
-13 -18 -13 -5 -15 -42 -15 -256 0 -279 -5 -268 70 -158 24 36 50 71 57 78 7
7 13 17 13 22 0 5 6 15 13 22 7 7 33 42 57 78 24 36 48 70 53 75 4 6 35 48 67
95 32 47 64 91 70 98 9 9 -24 12 -160 12 -93 0 -170 -3 -170 -8z"/>
<path d="M3472 8220 c465 -486 700 -970 779 -1600 15 -127 11 -120 55 -110 31
7 39 5 54 -12 16 -20 26 -21 132 -20 86 1 138 8 213 27 56 15 135 27 184 29
47 2 70 2 51 -1 l-35 -4 3 -85 4 -85 29 6 c16 4 29 4 29 2 0 -3 -46 -15 -102
-28 -56 -13 -97 -24 -91 -26 5 -2 117 21 249 51 131 31 259 58 284 62 57 9 85
38 99 103 22 104 5 238 -55 424 -162 501 -526 912 -1026 1157 -277 136 -585
212 -894 223 l-71 2 109 -115z"/>
<path d="M4271 6474 c0 -11 3 -14 6 -6 3 7 2 16 -1 19 -3 4 -6 -2 -5 -13z"/>
<path d="M4738 6303 c7 -3 16 -2 19 1 4 3 -2 6 -13 5 -11 0 -14 -3 -6 -6z"/>
<path d="M4668 6293 c6 -2 18 -2 25 0 6 3 1 5 -13 5 -14 0 -19 -2 -12 -5z"/>
<path d="M4608 6283 c7 -3 16 -2 19 1 4 3 -2 6 -13 5 -11 0 -14 -3 -6 -6z"/>
<path d="M10196 3684 c-14 -102 -8 -143 23 -175 16 -16 37 -29 45 -29 9 0 16
-4 16 -8 0 -24 -36 -42 -144 -71 l-118 -33 -19 21 c-38 41 -109 18 -109 -34 0
-20 -9 -26 -62 -42 l-63 -19 -22 23 c-12 13 -34 23 -48 23 -31 0 -65 -32 -65
-62 0 -21 -11 -26 -108 -52 -59 -15 -116 -34 -128 -41 -17 -11 -24 -10 -44 5
l-23 17 22 24 c36 38 37 67 7 123 -25 47 -84 122 -90 114 -1 -1 -14 -45 -27
-97 l-25 -95 -114 3 -115 3 39 -31 c21 -17 63 -43 93 -57 48 -24 62 -26 123
-21 58 5 71 3 85 -13 13 -15 15 -25 6 -57 -7 -26 -7 -50 -1 -73 16 -55 14 -57
-37 -53 -56 5 -191 -21 -211 -41 -17 -17 -26 -118 -15 -170 8 -38 8 -38 33 53
l24 91 56 0 c30 0 85 -3 121 -6 l67 -7 21 -77 c27 -97 27 -97 -6 -93 -49 8
-82 -13 -103 -63 -28 -65 -25 -73 13 -32 23 26 46 39 81 47 27 7 49 11 50 9 3
-5 36 -115 36 -120 0 -3 -18 -8 -39 -12 -43 -7 -72 -35 -97 -95 -19 -46 -18
-47 17 -7 17 19 55 47 86 60 54 25 55 26 79 7 52 -41 67 -38 515 89 445 127
470 138 485 197 5 18 15 23 71 29 51 5 73 3 100 -10 47 -23 32 -2 -23 30 -34
20 -54 25 -89 22 -45 -3 -46 -2 -55 32 -24 92 -25 85 20 99 42 12 91 4 130
-21 8 -6 -5 8 -30 31 -54 50 -78 58 -118 37 -17 -9 -33 -16 -35 -16 -6 0 -51
170 -46 174 2 2 42 28 89 59 l84 57 26 -22 c14 -13 49 -45 79 -73 l54 -50 -28
50 c-82 146 -89 151 -152 136 -27 -7 -76 -28 -111 -47 -34 -19 -64 -34 -67
-34 -2 0 -6 14 -10 31 -4 17 -24 48 -45 68 -36 35 -37 38 -24 63 9 17 25 28
47 32 45 8 99 67 138 149 17 37 30 70 27 72 -2 2 -44 -23 -93 -55 l-90 -59
-60 58 c-94 90 -91 89 -99 35z m-169 -346 c-3 -8 -6 -5 -6 6 -1 11 2 17 5 13
3 -3 4 -12 1 -19z m-122 -38 c10 -11 16 -20 13 -20 -3 0 -13 9 -23 20 -10 11
-16 20 -13 20 3 0 13 -9 23 -20z m115 17 c0 -2 -10 -12 -22 -23 l-23 -19 19
23 c18 21 26 27 26 19z m-253 -59 c-3 -8 -6 -5 -6 6 -1 11 2 17 5 13 3 -3 4
-12 1 -19z m196 15 c-7 -2 -19 -2 -25 0 -7 3 -2 5 12 5 14 0 19 -2 13 -5z
m-268 -66 l30 -4 -31 -2 c-21 -1 -37 6 -50 22 -19 22 -19 22 1 5 11 -9 34 -18
50 -21z m65 29 c0 -2 -8 -10 -17 -17 -16 -13 -17 -12 -4 4 13 16 21 21 21 13z"/>
<path d="M4999 3501 c-16 -16 -29 -37 -29 -46 0 -9 13 -30 29 -46 59 -58 171
-28 171 46 0 74 -112 104 -171 46z"/>
<path d="M1740 2809 c-73 -30 -83 -101 -19 -134 78 -41 173 8 155 79 -11 46
-85 76 -136 55z"/>
<path d="M859 2780 c-33 -33 -33 -59 2 -95 15 -15 33 -20 74 -20 41 0 59 5 74
20 35 36 35 62 2 95 -24 25 -38 30 -76 30 -38 0 -52 -5 -76 -30z"/>
<path d="M3085 2033 c-29 -16 -29 -16 -7 -24 26 -10 29 -44 5 -54 -12 -4 -24
1 -34 14 -16 20 -18 18 -71 -57 -30 -42 -79 -112 -108 -155 -29 -43 -70 -92
-89 -108 -32 -27 -42 -30 -89 -26 -44 3 -89 22 -242 100 -196 100 -245 117
-286 98 -55 -25 -23 -95 116 -257 181 -209 197 -247 139 -324 -19 -24 -92 -96
-162 -159 -140 -128 -177 -171 -177 -212 0 -68 82 -65 285 11 251 94 295 100
348 46 20 -20 73 -110 126 -215 94 -185 130 -231 177 -231 15 0 30 10 41 27
16 25 18 51 15 254 -3 183 0 234 12 262 25 60 74 77 317 107 216 26 279 47
279 94 0 53 -52 77 -293 136 -302 74 -307 83 -237 402 36 161 39 239 10 268
-24 24 -35 24 -75 3z m-5 -121 c0 -13 -23 -32 -37 -32 -19 0 -27 28 -13 45 9
11 17 12 31 4 10 -5 19 -13 19 -17z m-52 -71 c23 -14 10 -46 -18 -46 -16 0
-26 6 -28 19 -3 16 12 36 28 36 3 0 11 -4 18 -9z m-770 -99 c4 -28 -24 -40
-45 -19 -14 13 -14 19 -3 32 18 22 44 15 48 -13z m752 -2 c0 -19 -25 -34 -41
-24 -13 8 -11 42 4 47 20 7 37 -4 37 -23z m-686 -33 c8 -13 7 -20 -3 -26 -19
-12 -41 -3 -41 18 0 35 25 39 44 8z m636 -32 c18 -21 5 -47 -22 -43 -26 3 -37
36 -16 49 18 12 24 11 38 -6z m-552 -33 c4 -28 -24 -40 -45 -19 -14 13 -14 19
-3 32 18 22 44 15 48 -13z m67 -47 c0 -13 -8 -21 -22 -23 -17 -3 -23 2 -23 16
0 10 3 22 7 26 13 13 38 1 38 -19z m455 0 c10 -12 10 -18 0 -30 -7 -8 -18 -15
-25 -15 -19 0 -38 28 -31 45 7 19 40 19 56 0z m-380 -50 c10 -12 10 -18 0 -30
-25 -30 -67 -7 -49 27 12 22 32 23 49 3z m349 -29 c25 -30 -16 -67 -44 -40
-18 19 -19 26 -3 42 16 16 33 15 47 -2z m-281 -42 c4 -27 -26 -40 -46 -20 -21
20 -8 48 20 44 14 -2 24 -11 26 -24z m77 -49 c0 -22 -31 -33 -47 -17 -17 17
-1 44 24 40 15 -2 23 -10 23 -23z m173 6 c21 -13 11 -55 -14 -59 -30 -4 -48
21 -34 47 11 22 27 26 48 12z m-78 -55 c0 -20 -27 -39 -45 -32 -25 9 -30 37
-10 52 20 15 55 2 55 -20z m148 -53 c4 -29 -28 -47 -53 -29 -12 9 -15 19 -10
35 9 30 59 26 63 -6z m92 2 c10 -12 10 -18 0 -30 -25 -30 -61 -7 -46 30 3 8
12 15 19 15 8 0 20 -7 27 -15z m88 -4 c21 -13 10 -46 -16 -49 -24 -4 -38 18
-28 43 6 17 24 19 44 6z m-328 -42 c0 -24 -27 -36 -48 -22 -23 14 -25 29 -7
47 21 20 55 5 55 -25z m420 16 c10 -12 10 -18 0 -30 -7 -8 -18 -15 -25 -15 -7
0 -18 7 -25 15 -10 12 -10 18 0 30 7 8 18 15 25 15 7 0 18 -7 25 -15z m-332
-42 c-4 -22 -32 -38 -52 -30 -21 8 -21 43 1 56 22 12 55 -5 51 -26z m419 16
c16 -16 5 -39 -17 -39 -23 0 -34 16 -26 35 6 18 28 19 43 4z m93 -14 c10 -12
10 -18 0 -30 -7 -8 -18 -15 -25 -15 -7 0 -18 7 -25 15 -10 12 -10 18 0 30 7 8
18 15 25 15 7 0 18 -7 25 -15z m-685 -35 c0 -18 -6 -26 -23 -28 -24 -4 -38 18
-28 44 3 9 15 14 28 12 17 -2 23 -10 23 -28z m780 5 c0 -13 -8 -21 -22 -23
-17 -3 -23 2 -23 16 0 10 3 22 7 26 13 13 38 1 38 -19z m95 -10 c0 -25 -36
-37 -54 -19 -9 8 -16 17 -16 19 0 2 7 11 16 19 18 18 54 6 54 -19z m-940 -40
c0 -33 -52 -50 -64 -20 -9 23 22 47 45 35 10 -6 19 -12 19 -15z m258 -13 c4
-28 -24 -40 -45 -19 -14 13 -14 19 -3 32 18 22 44 15 48 -13z m-341 -28 c3 -8
-2 -23 -11 -32 -15 -15 -17 -15 -32 0 -21 21 -11 48 16 48 11 0 23 -7 27 -16z
m-89 -58 c-2 -13 -10 -21 -23 -21 -23 0 -33 34 -14 45 20 13 40 -1 37 -24z
m460 2 c5 -25 -33 -42 -52 -23 -8 9 -13 22 -9 31 8 20 57 14 61 -8z m-530 -46
c4 -28 -24 -40 -45 -19 -14 13 -14 19 -3 32 18 22 44 15 48 -13z m539 -28 c8
-21 -19 -46 -40 -38 -17 6 -23 35 -10 47 12 13 44 7 50 -9z m-624 -18 c7 -19
-18 -40 -38 -32 -15 6 -20 28 -8 39 12 12 41 7 46 -7z m-64 -40 c16 -20 3 -46
-24 -46 -27 0 -36 17 -23 43 10 20 31 22 47 3z m689 -43 c4 -25 -22 -37 -38
-17 -10 11 -10 17 0 29 17 20 34 14 38 -12z m20 -62 c21 -13 10 -46 -16 -49
-24 -4 -38 18 -28 43 6 17 24 19 44 6z m20 -114 c4 -20 -25 -34 -40 -19 -15
15 -1 44 19 40 10 -2 19 -11 21 -21z m27 -77 c0 -18 -6 -26 -23 -28 -24 -4
-38 18 -28 44 3 9 15 14 28 12 17 -2 23 -10 23 -28z"/>
<path d="M7843 551 c-62 -39 -50 -107 22 -131 43 -14 82 -6 113 22 72 68 -47
164 -135 109z"/>
</g>
</svg>
