<?xml version="1.0" standalone="no"?>
<!DOCTYPE svg PUBLIC "-//W3C//DTD SVG 20010904//EN"
 "http://www.w3.org/TR/2001/REC-SVG-20010904/DTD/svg10.dtd">
<svg version="1.0" xmlns="http://www.w3.org/2000/svg"
 width="2160.000000pt" height="2160.000000pt" viewBox="0 0 2160.000000 2160.000000"
 preserveAspectRatio="xMidYMid meet">

<g transform="translate(0.000000,2160.000000) scale(0.100000,-0.100000)"
fill="#000000" stroke="none">
<path d="M2 20483 l3 -1118 29 2 c16 1 33 8 38 15 5 9 8 10 8 1 0 -7 -8 -16
-18 -22 -12 -7 -4 -8 28 -4 47 6 89 22 60 23 -13 0 -13 1 0 10 13 9 13 11 0
20 -13 9 -13 10 0 10 13 0 13 1 0 10 -11 7 0 10 38 10 45 0 52 -3 52 -20 0
-16 7 -20 36 -20 36 0 76 24 52 32 -7 3 -11 22 -10 48 3 59 12 65 12 7 0 -35
4 -47 15 -47 11 0 15 12 15 46 0 27 4 43 10 39 6 -3 10 -24 10 -45 0 -21 6
-41 13 -43 9 -4 8 -8 -3 -16 -13 -9 -13 -11 1 -11 9 0 19 7 23 15 3 8 10 15
16 15 5 0 10 -7 10 -15 0 -26 21 -16 33 15 10 26 16 30 49 30 33 0 38 3 38 24
0 20 -7 25 -42 31 -24 4 -38 9 -31 12 6 2 28 0 47 -5 29 -9 36 -7 39 6 4 13 5
13 6 -3 1 -17 3 -18 11 -5 9 13 11 13 20 0 8 -12 10 -12 10 5 1 15 5 11 15
-13 8 -18 12 -40 9 -50 -5 -14 -4 -15 5 -2 10 13 12 13 21 0 9 -13 11 -13 20
0 9 13 11 13 21 0 8 -12 9 -10 4 8 -6 20 -3 22 38 22 25 0 47 -4 49 -9 2 -5
45 -11 97 -13 52 -2 85 -1 75 3 -10 4 -13 8 -6 8 29 2 -16 30 -54 34 l-39 4
43 1 c53 2 56 22 2 22 -23 0 -40 5 -40 11 0 8 22 9 78 3 42 -5 98 -9 124 -9
42 0 47 -2 42 -18 -5 -16 -3 -17 15 -6 16 11 24 11 44 0 16 -9 48 -11 96 -8
56 4 74 2 78 -9 3 -9 20 -14 45 -14 39 0 39 1 33 30 -4 20 -3 30 5 30 6 0 8 5
5 10 -3 6 0 10 9 10 8 0 16 -5 18 -10 2 -6 10 -2 19 9 16 18 15 18 -15 16 -17
-2 -34 -3 -38 -4 -5 -1 -8 -8 -8 -16 0 -8 -4 -15 -10 -15 -5 0 -10 7 -10 15 0
8 -4 15 -10 15 -5 0 -10 -7 -10 -15 0 -8 -4 -15 -10 -15 -5 0 -10 7 -10 15 0
16 1 16 -50 20 -19 1 -29 0 -22 -2 6 -3 12 -11 12 -19 0 -8 5 -14 10 -14 6 0
10 -7 10 -15 0 -8 -4 -15 -10 -15 -5 0 -10 7 -10 15 0 21 -18 19 -22 -2 -3
-10 -4 1 -4 25 1 36 4 44 23 48 13 4 33 0 46 -8 12 -8 36 -14 52 -14 29 1 30
3 33 52 l3 51 71 -4 c88 -5 97 -2 90 32 -4 25 -8 27 -47 23 -24 -1 -41 0 -38
5 2 4 38 6 79 5 41 -2 70 -4 64 -6 -5 -2 -10 -10 -10 -18 0 -17 -17 -19 -23
-1 -2 6 -8 9 -12 5 -10 -10 33 -53 53 -53 11 0 16 -7 14 -20 -2 -12 0 -16 5
-9 4 6 19 15 33 19 l25 7 -22 -19 c-25 -22 -32 -43 -8 -23 8 7 20 10 27 7 9
-3 14 8 16 34 l2 39 -44 0 c-42 0 -70 14 -45 22 6 2 11 20 12 40 1 29 3 33 14
22 16 -16 17 -31 1 -36 -7 -3 3 -5 22 -5 19 0 29 2 22 5 -14 4 -16 32 -2 32 6
0 10 -4 10 -10 0 -6 23 -9 53 -8 l52 1 -50 7 -50 6 40 6 40 5 -42 -1 c-40 -1
-42 0 -36 24 4 14 6 34 5 45 -3 45 29 84 73 89 6 1 13 6 18 11 4 6 11 4 17 -5
9 -13 11 -13 19 0 6 8 13 11 17 8 3 -4 -1 -15 -11 -24 -14 -14 -18 -15 -25 -3
-10 15 -11 14 -29 -16 -11 -17 -12 -17 -7 -1 5 14 2 17 -10 12 -8 -3 -20 -6
-25 -6 -5 0 -9 -7 -9 -15 0 -8 5 -15 10 -15 6 0 10 5 10 12 0 6 9 3 21 -8 13
-12 19 -14 17 -5 -2 7 3 16 11 19 8 2 11 0 8 -5 -3 -5 3 -9 13 -9 10 0 16 5
13 10 -4 5 1 7 9 4 12 -5 15 2 15 35 -1 28 3 41 11 39 7 -1 12 7 12 18 0 11
-4 20 -10 20 -6 0 -10 27 -10 60 l0 60 40 0 c33 0 40 3 40 20 0 12 -7 20 -17
21 -15 0 -15 2 2 8 l20 8 -20 5 c-16 5 -17 6 -2 7 9 0 17 6 17 11 0 6 18 10
40 10 28 0 40 -4 40 -14 0 -27 50 -34 74 -10 11 11 16 12 16 3 0 -7 7 -4 15 7
15 19 15 19 30 0 8 -11 15 -14 15 -7 0 7 6 9 13 6 6 -4 3 1 -8 10 -13 11 -30
14 -50 11 -25 -5 -27 -4 -12 5 10 6 28 8 41 5 16 -4 22 -1 22 12 0 13 -9 17
-37 17 -20 0 -36 -4 -34 -10 1 -5 0 -7 -2 -2 -3 4 -22 7 -44 7 -31 0 -39 4
-39 19 0 20 22 20 91 -1 27 -8 41 -7 55 1 17 11 17 12 -6 7 -14 -2 -38 1 -55
9 -16 7 -24 14 -17 14 22 2 12 38 -14 50 -36 16 -43 6 -8 -12 l28 -14 -23 -13
c-13 -6 -25 -9 -29 -6 -3 3 0 6 6 6 20 0 13 17 -8 23 -14 3 -20 14 -20 31 0
24 3 26 44 26 41 0 44 2 42 25 -1 28 -11 29 -168 26 l-78 -2 0 60 0 61 39 0
c31 0 41 4 46 20 9 28 30 25 44 -6 6 -15 14 -24 17 -21 3 3 0 15 -6 28 -11 19
-10 21 7 17 16 -4 18 1 18 41 l0 46 38 -3 c44 -4 48 10 13 47 l-25 26 23 0
c15 0 22 -5 19 -15 -3 -12 5 -15 41 -12 31 3 46 9 46 18 0 8 -6 14 -12 15 -7
1 -22 2 -33 3 -11 1 -31 3 -45 5 -23 2 -24 3 -5 11 l20 9 -20 1 c-19 1 -19 2
-1 9 18 7 31 51 16 51 -4 0 -7 14 -7 30 0 17 4 30 9 30 5 0 6 -4 3 -10 -3 -5
-1 -10 4 -10 6 0 11 7 11 15 0 8 -4 15 -10 15 -5 0 -10 18 -10 41 l0 41 43 -3
c36 -3 43 -1 44 14 1 9 -1 15 -5 13 -4 -3 -8 4 -8 14 0 17 2 17 23 1 28 -21
38 -42 15 -34 -13 5 -14 3 -5 -7 13 -14 33 -6 33 13 0 7 -9 19 -20 27 -26 19
-25 35 2 37 18 2 19 0 8 -7 -13 -8 -12 -11 5 -24 25 -19 24 -19 69 2 42 21 38
32 -11 32 -28 0 -33 3 -33 24 0 22 -5 25 -42 28 -36 2 -48 -2 -71 -24 -43 -42
-46 -33 -4 10 24 25 37 47 37 65 0 25 -3 27 -45 27 -41 0 -45 2 -36 18 7 12
20 17 46 16 25 -1 38 3 42 14 6 13 8 13 14 -4 7 -17 8 -17 8 -1 1 9 5 17 10
17 5 0 12 -8 14 -17 4 -15 5 -15 6 2 1 17 3 18 11 5 7 -11 10 -6 10 21 0 36 1
37 43 40 l42 4 0 -40 c0 -30 4 -40 18 -43 13 -3 17 3 17 22 0 14 5 26 10 26 6
0 10 10 10 23 0 16 11 26 42 39 51 22 59 17 17 -10 l-32 -20 36 1 c20 0 32 4
26 8 -7 4 -7 9 -2 12 6 4 10 20 11 36 0 16 5 39 11 50 6 11 11 26 10 33 0 7
-4 4 -9 -7 l-9 -20 -1 20 c-2 11 -2 26 -1 33 1 6 -5 12 -14 12 -8 0 -15 5 -15
10 0 6 7 10 15 10 8 0 15 9 15 20 0 20 -7 20 -1280 20 l-1280 0 2 -1117z
m2295 1051 c-3 -3 -12 -4 -19 -1 -8 3 -5 6 6 6 11 1 17 -2 13 -5z m222 -13
c10 -7 7 -9 -12 -8 -15 1 -27 5 -27 10 0 10 22 9 39 -2z m-6 -33 c4 -10 8 -9
16 2 10 13 12 13 21 0 5 -8 10 -19 10 -25 0 -5 -5 -3 -10 5 -9 13 -11 13 -20
0 -9 -13 -11 -13 -20 0 -9 13 -11 13 -20 0 -11 -17 -13 -10 -4 14 7 19 20 21
27 4z m-8 -48 c-3 -5 -16 -10 -28 -9 -21 0 -21 1 -2 9 28 12 37 12 30 0z m45
3 c0 -11 -67 -53 -82 -53 -10 0 -10 2 1 9 7 5 9 11 5 13 -5 3 -4 4 2 2 5 -1
21 7 35 17 26 20 39 24 39 12z m-110 -43 c2 28 4 36 7 21 6 -31 -5 -91 -17
-91 -6 0 -10 11 -10 25 0 14 -6 25 -12 25 -9 0 -8 4 2 10 13 9 13 10 0 10 -13
0 -13 1 0 10 13 9 13 10 0 10 -13 0 -13 1 0 10 12 8 16 2 21 -33 l6 -42 3 45z
m-223 -72 c-3 -8 -6 -5 -6 6 -1 11 2 17 5 13 3 -3 4 -12 1 -19z m-27 -148 c0
-5 -5 -10 -11 -10 -5 0 -7 5 -4 10 3 6 8 10 11 10 2 0 4 -4 4 -10z m-25 -19
c3 -5 0 -13 -6 -17 -7 -4 -9 -3 -5 4 3 5 0 13 -6 15 -9 4 -10 6 -1 6 6 1 14
-3 18 -8z m75 -21 c-6 -11 -15 -20 -20 -20 -6 0 -2 9 7 20 10 11 19 20 21 20
1 0 -2 -9 -8 -20z m137 -36 c-3 -3 -12 -4 -19 -1 -8 3 -5 6 6 6 11 1 17 -2 13
-5z m-247 -154 c-13 -9 -13 -11 0 -20 13 -9 13 -11 0 -20 -13 -9 -13 -11 0
-20 8 -5 11 -10 5 -10 -5 0 -17 5 -25 10 -13 9 -13 11 0 20 13 9 13 11 0 20
-13 9 -13 11 0 20 8 5 20 10 25 10 6 0 3 -5 -5 -10z m-23 -106 c-3 -3 -12 -4
-19 -1 -8 3 -5 6 6 6 11 1 17 -2 13 -5z m0 -20 c-3 -3 -12 -4 -19 -1 -8 3 -5
6 6 6 11 1 17 -2 13 -5z m13 -69 c19 -22 8 -25 -12 -3 -10 10 -14 18 -9 18 5
0 14 -7 21 -15z m-32 -17 c-3 -7 -23 -14 -46 -16 -33 -2 -42 0 -42 12 0 12 11
16 46 16 32 0 44 -4 42 -12z m-231 -40 c-3 -8 -6 -5 -6 6 -1 11 2 17 5 13 3
-3 4 -12 1 -19z m50 0 c-3 -8 -6 -5 -6 6 -1 11 2 17 5 13 3 -3 4 -12 1 -19z
m-40 -50 c-3 -8 -6 -5 -6 6 -1 11 2 17 5 13 3 -3 4 -12 1 -19z m30 0 c-3 -8
-6 -5 -6 6 -1 11 2 17 5 13 3 -3 4 -12 1 -19z m108 -307 c-6 -5 -28 -12 -50
-15 -22 -3 -31 -3 -20 0 11 3 24 10 30 15 5 5 18 9 29 9 12 0 16 -3 11 -9z
m-58 -107 c-3 -3 -12 -4 -19 -1 -8 3 -5 6 6 6 11 1 17 -2 13 -5z m198 -4 c-3
-5 -15 -10 -25 -10 -10 0 -22 5 -25 10 -4 6 7 10 25 10 18 0 29 -4 25 -10z
m-192 -17 c-7 -2 -19 -2 -25 0 -7 3 -2 5 12 5 14 0 19 -2 13 -5z m-6 -19 c-3
-3 -12 -4 -19 -1 -8 3 -5 6 6 6 11 1 17 -2 13 -5z m-135 -23 c7 11 9 11 6 1
-5 -17 -23 -17 -24 0 -1 9 1 8 4 -1 3 -12 5 -12 14 0z m5 -67 c-3 -3 -12 -4
-19 -1 -8 3 -5 6 6 6 11 1 17 -2 13 -5z m-84 -51 c-7 -2 -19 -2 -25 0 -7 3 -2
5 12 5 14 0 19 -2 13 -5z m62 -74 c17 -8 16 -9 -7 -6 -20 3 -29 -1 -33 -14 -7
-22 -21 -25 -28 -6 -4 9 -8 8 -16 -3 -10 -13 -12 -13 -21 0 -5 8 -10 20 -10
25 0 6 5 3 10 -5 9 -13 11 -13 20 0 9 13 11 13 20 0 9 -13 12 -13 21 3 11 19
15 20 44 6z m-57 -159 c-7 -11 -15 -20 -18 -20 -3 0 -11 9 -18 20 -11 18 -10
20 18 20 28 0 29 -2 18 -20z m-348 -40 c9 13 11 13 20 0 9 -13 11 -13 21 0 9
13 10 13 6 0 -2 -10 -16 -15 -37 -15 -21 0 -35 5 -37 15 -4 13 -3 13 6 0 10
-13 12 -13 21 0z m-793 -66 c-3 -3 -12 -4 -19 -1 -8 3 -5 6 6 6 11 1 17 -2 13
-5z m196 -1 c-7 -2 -21 -2 -30 0 -10 3 -4 5 12 5 17 0 24 -2 18 -5z m708 -7
c-13 -5 -29 -5 -42 0 -17 8 -13 9 21 9 34 0 38 -1 21 -9z m174 4 c3 -5 -1 -10
-9 -10 -9 0 -16 5 -16 10 0 6 4 10 9 10 6 0 13 -4 16 -10z m-882 -17 c-7 -2
-21 -2 -30 0 -10 3 -4 5 12 5 17 0 24 -2 18 -5z m554 -61 c6 -4 -6 -7 -27 -7
-21 0 -33 3 -27 7 7 4 19 8 27 8 8 0 20 -4 27 -8z m-317 -10 c-9 -3 -9 -6 -1
-11 6 -4 -3 -8 -21 -9 -18 -1 -55 -3 -83 -6 -27 -2 -36 -2 -20 0 59 9 79 15
68 22 -7 4 6 7 28 7 22 0 35 -1 29 -3z m120 -2 c9 13 11 13 20 0 9 -13 11 -13
20 0 7 12 9 10 7 -7 -1 -17 -5 -20 -19 -12 -12 6 -24 6 -36 0 -14 -8 -18 -5
-19 12 -2 17 0 19 7 7 9 -13 11 -13 20 0z m30 -33 c8 -7 16 -21 18 -32 2 -12
0 -16 -5 -9 -8 11 -23 13 -108 15 l-50 1 47 7 c27 4 53 12 60 19 15 15 19 15
38 -1z m170 -12 c0 -8 5 -15 10 -15 6 0 10 -7 10 -15 0 -8 5 -15 10 -15 6 0
10 7 10 15 0 8 5 15 10 15 6 0 10 -6 10 -14 0 -8 6 -16 13 -19 6 -2 -4 -3 -23
-2 -51 4 -50 4 -50 20 0 8 -4 15 -10 15 -5 0 -10 7 -10 15 0 8 5 15 10 15 6 0
10 -7 10 -15z m-910 -15 c0 -5 -4 -10 -10 -10 -5 0 -10 5 -10 10 0 6 5 10 10
10 6 0 10 -4 10 -10z m-26 -26 c3 -8 2 -12 -4 -9 -6 3 -10 10 -10 16 0 14 7
11 14 -7z m143 10 c-3 -3 -12 -4 -19 -1 -8 3 -5 6 6 6 11 1 17 -2 13 -5z m113
-15 c0 -23 -21 -22 -28 2 -3 11 -2 11 7 -1 9 -13 11 -13 11 3 0 9 2 17 5 17 3
0 5 -9 5 -21z m39 -3 c3 5 26 6 51 3 l45 -6 -42 -1 c-23 -1 -48 -5 -57 -8 -12
-5 -16 0 -15 17 1 20 2 20 6 5 3 -10 8 -15 12 -10z m-249 4 c0 -5 -4 -10 -10
-10 -5 0 -10 5 -10 10 0 6 5 10 10 10 6 0 10 -4 10 -10z m230 -40 c0 -5 -4
-10 -10 -10 -5 0 -10 5 -10 10 0 6 5 10 10 10 6 0 10 -4 10 -10z m-563 -66
c-3 -3 -12 -4 -19 -1 -8 3 -5 6 6 6 11 1 17 -2 13 -5z m3 -24 c0 -5 -7 -10
-15 -10 -8 0 -15 5 -15 10 0 6 7 10 15 10 8 0 15 -4 15 -10z m-90 -20 c0 -5
-7 -10 -16 -10 -8 0 -12 5 -9 10 3 6 10 10 16 10 5 0 9 -4 9 -10z m87 -6 c-3
-3 -12 -4 -19 -1 -8 3 -5 6 6 6 11 1 17 -2 13 -5z"/>
<path d="M2720 21584 c0 -18 23 -44 40 -44 17 0 40 26 40 44 0 12 -10 16 -40
16 -30 0 -40 -4 -40 -16z m50 -14 c0 -5 -4 -10 -10 -10 -5 0 -10 5 -10 10 0 6
5 10 10 10 6 0 10 -4 10 -10z"/>
<path d="M2958 21570 c-3 -16 -1 -35 4 -42 4 -8 8 4 8 30 0 49 -6 55 -12 12z"/>
<path d="M2993 21560 c0 -25 2 -35 4 -22 2 12 2 32 0 45 -2 12 -4 2 -4 -23z"/>
<path d="M3023 21560 c0 -25 2 -35 4 -22 2 12 2 32 0 45 -2 12 -4 2 -4 -23z"/>
<path d="M3127 21585 c-4 -8 -2 -17 3 -20 6 -4 10 1 10 10 0 13 4 14 20 5 11
-6 20 -7 20 -1 0 9 -23 21 -40 21 -4 0 -10 -7 -13 -15z"/>
<path d="M2799 21517 c5 -5 26 -7 47 -5 l39 3 -47 5 c-26 3 -43 1 -39 -3z"/>
<path d="M2621 21500 c0 -8 4 -22 9 -30 12 -18 12 -2 0 25 -6 13 -9 15 -9 5z"/>
<path d="M3071 21494 c0 -11 3 -14 6 -6 3 7 2 16 -1 19 -3 4 -6 -2 -5 -13z"/>
<path d="M2818 21493 c12 -2 32 -2 45 0 12 2 2 4 -23 4 -25 0 -35 -2 -22 -4z"/>
<path d="M2818 21473 c12 -2 32 -2 45 0 12 2 2 4 -23 4 -25 0 -35 -2 -22 -4z"/>
<path d="M3051 21464 c0 -11 3 -14 6 -6 3 7 2 16 -1 19 -3 4 -6 -2 -5 -13z"/>
<path d="M3091 21464 c0 -11 3 -14 6 -6 3 7 2 16 -1 19 -3 4 -6 -2 -5 -13z"/>
<path d="M2587 21464 c-4 -4 -7 -12 -7 -18 0 -6 5 -4 10 4 9 13 11 13 21 0 9
-12 10 -12 7 -1 -5 17 -21 25 -31 15z"/>
<path d="M2978 21413 c12 -2 32 -2 45 0 12 2 2 4 -23 4 -25 0 -35 -2 -22 -4z"/>
<path d="M2978 21393 c12 -2 32 -2 45 0 12 2 2 4 -23 4 -25 0 -35 -2 -22 -4z"/>
<path d="M2482 21274 c9 -9 21 -15 27 -13 6 2 -2 10 -17 17 -25 11 -25 11 -10
-4z"/>
<path d="M2320 21260 c0 -17 7 -20 40 -20 33 0 40 3 40 20 0 17 -7 20 -40 20
-33 0 -40 -3 -40 -20z"/>
<path d="M2528 21243 c7 -3 16 -2 19 1 4 3 -2 6 -13 5 -11 0 -14 -3 -6 -6z"/>
<path d="M2498 21223 c7 -3 16 -2 19 1 4 3 -2 6 -13 5 -11 0 -14 -3 -6 -6z"/>
<path d="M2250 21190 c0 -5 5 -10 11 -10 5 0 7 5 4 10 -3 6 -8 10 -11 10 -2 0
-4 -4 -4 -10z"/>
<path d="M2328 21059 c-10 -5 -18 -15 -18 -22 0 -9 2 -9 8 0 4 7 19 16 32 22
14 5 18 10 10 10 -8 0 -23 -4 -32 -10z"/>
<path d="M2600 21020 c0 -5 5 -10 10 -10 6 0 10 5 10 10 0 6 -4 10 -10 10 -5
0 -10 -4 -10 -10z"/>
<path d="M2246 21004 c-9 -24 -7 -31 4 -14 9 13 11 13 20 0 9 -13 11 -13 20 0
9 13 11 13 20 0 5 -8 10 -10 10 -5 0 6 -5 17 -10 25 -9 13 -11 13 -21 0 -8
-11 -12 -12 -16 -2 -7 17 -20 15 -27 -4z"/>
<path d="M2600 20980 c0 -5 5 -10 10 -10 6 0 10 5 10 10 0 6 -4 10 -10 10 -5
0 -10 -4 -10 -10z"/>
<path d="M2245 20960 c-4 -6 -11 -8 -16 -5 -5 4 -9 1 -9 -4 0 -15 11 -13 34 4
11 8 15 15 9 15 -7 0 -15 -5 -18 -10z"/>
<path d="M2292 20958 c2 -6 10 -13 16 -14 7 -1 8 0 2 3 -5 2 -8 9 -4 14 3 5 0
9 -6 9 -7 0 -10 -5 -8 -12z"/>
<path d="M2190 20940 c0 -11 5 -20 10 -20 6 0 11 -10 11 -22 1 -17 2 -19 6 -5
2 9 9 17 14 17 5 0 9 5 9 10 0 6 -7 10 -15 10 -8 0 -15 7 -15 15 0 8 -4 15
-10 15 -5 0 -10 -9 -10 -20z"/>
<path d="M2263 20933 c9 -2 17 -8 17 -13 0 -5 -8 -11 -17 -13 -13 -3 -14 -5
-3 -6 8 0 22 4 30 9 13 9 13 11 0 20 -8 5 -22 9 -30 9 -11 -1 -10 -3 3 -6z"/>
<path d="M2166 20902 c6 -4 14 -14 17 -22 4 -10 6 -8 6 8 1 15 -5 22 -16 22
-11 0 -14 -3 -7 -8z"/>
<path d="M2233 20885 c0 -8 4 -12 9 -9 5 3 6 10 3 15 -9 13 -12 11 -12 -6z"/>
<path d="M2295 20890 c-3 -6 1 -7 9 -4 18 7 21 14 7 14 -6 0 -13 -4 -16 -10z"/>
<path d="M2205 20850 c3 -5 8 -10 11 -10 2 0 4 5 4 10 0 6 -5 10 -11 10 -5 0
-7 -4 -4 -10z"/>
<path d="M2180 20830 c0 -5 5 -10 11 -10 5 0 7 5 4 10 -3 6 -8 10 -11 10 -2 0
-4 -4 -4 -10z"/>
<path d="M2316 20697 c3 -10 9 -15 12 -12 3 3 0 11 -7 18 -10 9 -11 8 -5 -6z"/>
<path d="M2288 20683 c7 -3 16 -2 19 1 4 3 -2 6 -13 5 -11 0 -14 -3 -6 -6z"/>
<path d="M2085 20600 c-3 -11 -13 -27 -21 -35 -9 -8 -11 -15 -4 -15 6 0 16 11
22 25 12 27 24 32 31 13 4 -10 8 -9 16 2 10 13 12 13 21 0 5 -8 10 -10 10 -5
0 6 -5 17 -10 25 -9 13 -11 13 -21 0 -8 -11 -12 -12 -16 -2 -7 18 -21 15 -28
-8z"/>
<path d="M2010 20604 c0 -3 5 -14 10 -24 8 -15 6 -21 -7 -29 -10 -6 -13 -11
-7 -11 23 0 36 27 24 49 -10 20 -20 27 -20 15z"/>
<path d="M2221 20578 c-1 -9 -10 -20 -21 -23 -21 -7 -28 -25 -10 -25 6 0 10 5
10 10 0 6 7 10 15 10 8 0 15 -5 15 -12 0 -6 2 -9 5 -7 2 3 0 18 -4 35 -5 16
-10 21 -10 12z"/>
<path d="M2166 20563 c-6 -14 -5 -15 5 -6 7 7 10 15 7 18 -3 3 -9 -2 -12 -12z"/>
<path d="M2030 20529 c0 -6 -7 -8 -17 -4 -15 5 -16 4 -5 -6 10 -11 15 -10 29
4 11 11 13 17 5 17 -7 0 -12 -5 -12 -11z"/>
<path d="M2008 20493 c7 -3 16 -2 19 1 4 3 -2 6 -13 5 -11 0 -14 -3 -6 -6z"/>
<path d="M2190 20470 c-13 -9 -13 -11 0 -20 13 -9 13 -11 0 -20 -13 -9 -13
-11 0 -20 8 -5 20 -10 25 -10 6 0 3 5 -5 10 -13 9 -13 11 0 20 13 9 13 11 0
20 -13 9 -13 11 0 20 8 5 11 10 5 10 -5 0 -17 -5 -25 -10z"/>
<path d="M2094 20164 c7 -8 19 -8 38 -2 16 6 28 11 28 12 0 1 -17 1 -38 1 -28
0 -36 -3 -28 -11z"/>
<path d="M2181 20164 c0 -11 3 -14 6 -6 3 7 2 16 -1 19 -3 4 -6 -2 -5 -13z"/>
<path d="M2150 20119 c-6 -11 -10 -25 -8 -30 2 -5 8 4 15 21 13 34 9 40 -7 9z"/>
<path d="M2116 20093 c-6 -14 -5 -15 5 -6 7 7 10 15 7 18 -3 3 -9 -2 -12 -12z"/>
<path d="M1950 20016 c0 -9 5 -16 10 -16 6 0 10 4 10 9 0 6 -4 13 -10 16 -5 3
-10 -1 -10 -9z"/>
<path d="M1980 20010 c0 -5 5 -10 11 -10 5 0 7 5 4 10 -3 6 -8 10 -11 10 -2 0
-4 -4 -4 -10z"/>
<path d="M2130 19989 c0 -5 5 -7 10 -4 6 3 10 8 10 11 0 2 -4 4 -10 4 -5 0
-10 -5 -10 -11z"/>
<path d="M2171 19993 c-1 -6 -4 -20 -7 -30 -5 -17 -5 -17 6 0 6 10 9 23 6 30
-3 9 -5 9 -5 0z"/>
<path d="M2082 19960 c0 -14 2 -19 5 -12 2 6 2 18 0 25 -3 6 -5 1 -5 -13z"/>
<path d="M2130 19930 c0 -5 5 -10 11 -10 5 0 7 5 4 10 -3 6 -8 10 -11 10 -2 0
-4 -4 -4 -10z"/>
<path d="M2200 19920 c-9 -6 -10 -10 -3 -10 6 0 15 5 18 10 8 12 4 12 -15 0z"/>
<path d="M1837 19876 c-4 -10 -1 -13 8 -9 8 3 12 9 9 14 -7 12 -11 11 -17 -5z"/>
<path d="M1905 19880 c-3 -5 -1 -10 4 -10 6 0 11 5 11 10 0 6 -2 10 -4 10 -3
0 -8 -4 -11 -10z"/>
<path d="M1846 19843 c-6 -14 -5 -15 5 -6 7 7 10 15 7 18 -3 3 -9 -2 -12 -12z"/>
<path d="M1903 19848 c4 -10 2 -18 -2 -18 -5 0 -11 6 -14 13 -2 6 -7 9 -11 5
-9 -7 13 -46 30 -52 12 -5 12 50 -1 62 -4 4 -5 -1 -2 -10z"/>
<path d="M1760 19750 c0 -5 18 -10 40 -10 22 0 40 5 40 10 0 6 -18 10 -40 10
-22 0 -40 -4 -40 -10z"/>
<path d="M1840 19690 c0 -5 18 -10 40 -10 22 0 40 5 40 10 0 6 -18 10 -40 10
-22 0 -40 -4 -40 -10z"/>
<path d="M1780 19641 c0 -6 5 -11 10 -11 6 0 10 -4 10 -10 0 -13 -27 -13 -33
0 -3 6 -4 5 -3 -2 2 -7 18 -13 37 -14 27 -1 35 3 35 16 0 10 -6 16 -13 13 -7
-3 -20 0 -28 7 -10 9 -15 9 -15 1z"/>
<path d="M1541 19624 c0 -11 3 -14 6 -6 3 7 2 16 -1 19 -3 4 -6 -2 -5 -13z"/>
<path d="M1571 19624 c0 -11 3 -14 6 -6 3 7 2 16 -1 19 -3 4 -6 -2 -5 -13z"/>
<path d="M1611 19504 c0 -11 3 -14 6 -6 3 7 2 16 -1 19 -3 4 -6 -2 -5 -13z"/>
<path d="M1630 19505 c0 -8 5 -15 10 -15 6 0 10 7 10 15 0 8 -4 15 -10 15 -5
0 -10 -7 -10 -15z"/>
<path d="M1661 19504 c0 -11 3 -14 6 -6 3 7 2 16 -1 19 -3 4 -6 -2 -5 -13z"/>
<path d="M1018 19483 c7 -3 16 -2 19 1 4 3 -2 6 -13 5 -11 0 -14 -3 -6 -6z"/>
<path d="M480 19430 c0 -6 33 -10 80 -10 47 0 80 4 80 10 0 6 -33 10 -80 10
-47 0 -80 -4 -80 -10z"/>
<path d="M880 19428 c0 -7 25 -9 78 -6 75 6 76 5 37 -8 -39 -13 -39 -13 -5 -7
40 6 50 11 50 23 0 4 -36 8 -80 8 -51 1 -80 -3 -80 -10z"/>
<path d="M1055 19430 c-7 -11 22 -26 32 -16 4 3 -1 6 -11 6 -9 0 -14 5 -11 10
3 6 4 10 1 10 -3 0 -8 -5 -11 -10z"/>
<path d="M1124 19431 c-5 -3 -10 -15 -11 -26 -2 -18 -1 -18 9 3 11 22 38 31
38 12 0 -5 -4 -10 -10 -10 -5 0 -10 -5 -10 -11 0 -8 5 -8 15 1 8 7 21 10 28 7
7 -3 13 2 13 12 0 12 -9 17 -32 18 -17 1 -35 -2 -40 -6z"/>
<path d="M1318 19413 c7 -3 16 -2 19 1 4 3 -2 6 -13 5 -11 0 -14 -3 -6 -6z"/>
<path d="M1030 19400 c-13 -8 -12 -10 3 -10 9 0 17 5 17 10 0 12 -1 12 -20 0z"/>
<path d="M1298 19393 c7 -3 16 -2 19 1 4 3 -2 6 -13 5 -11 0 -14 -3 -6 -6z"/>
<path d="M1327 19383 c-14 -17 -14 -18 8 -18 16 0 20 3 14 12 -7 7 -5 13 3 16
7 3 8 6 2 6 -6 1 -18 -7 -27 -16z"/>
<path d="M1083 19383 c9 -2 14 -9 11 -15 -4 -7 -2 -8 5 -4 15 10 4 26 -17 25
-15 -1 -15 -2 1 -6z"/>
<path d="M1228 19353 c6 -2 18 -2 25 0 6 3 1 5 -13 5 -14 0 -19 -2 -12 -5z"/>
<path d="M25 19340 c3 -5 8 -10 11 -10 2 0 4 5 4 10 0 6 -5 10 -11 10 -5 0 -7
-4 -4 -10z"/>
<path d="M10642 16689 c-93 -9 -195 -39 -261 -77 -88 -50 -134 -101 -446 -497
-82 -104 -226 -287 -320 -405 -94 -118 -247 -311 -340 -429 -734 -925 -1064
-1337 -1155 -1439 l-83 -94 16 -28 c23 -39 22 -40 -24 -40 -29 0 -38 3 -33 13
4 6 -41 -34 -99 -90 -59 -57 -142 -130 -185 -164 -93 -73 -104 -85 -77 -75 11
4 29 10 40 12 11 2 21 8 23 13 2 5 12 7 22 4 11 -3 20 -1 20 5 0 6 19 9 45 8
27 -2 45 2 46 8 1 10 31 -90 46 -151 9 -36 70 -100 167 -172 78 -59 265 -245
410 -408 l37 -42 -55 6 c-76 8 -73 -10 5 -30 51 -13 61 -13 66 -1 3 8 13 14
22 14 9 0 52 23 96 50 44 28 85 50 92 50 7 0 13 4 13 9 0 10 133 91 149 91 6
0 11 6 11 13 1 6 29 33 63 58 283 209 287 213 392 374 86 130 195 348 336 663
72 164 143 322 156 352 102 223 303 677 303 684 0 5 -26 -15 -57 -45 -32 -30
-89 -81 -128 -114 -38 -33 -72 -63 -75 -66 -11 -12 -201 -159 -285 -220 -221
-160 -533 -361 -547 -353 -7 4 -8 2 -4 -5 8 -12 -32 -33 -47 -24 -4 2 -6 -1
-5 -8 2 -6 -22 -26 -53 -43 -30 -17 -66 -37 -80 -45 -22 -13 -23 -13 -10 2 7
10 9 17 4 17 -5 0 -9 9 -10 19 -1 15 3 18 15 13 16 -6 16 -4 1 18 -19 29 -45
41 -36 16 5 -12 2 -16 -10 -14 -9 2 -18 -3 -21 -11 -3 -10 0 -11 9 -5 12 7 12
5 0 -9 -7 -9 -18 -14 -23 -11 -6 4 -8 -3 -4 -17 3 -13 3 -18 0 -11 -5 10 -9
10 -20 1 -8 -6 -14 -15 -14 -20 0 -12 -32 -49 -43 -49 -5 0 31 57 79 128 48
70 125 183 172 252 227 334 261 378 318 417 168 116 409 310 523 420 41 39 57
50 64 41 6 -9 7 -8 4 3 -7 21 37 64 54 54 8 -6 10 -4 4 5 -5 8 9 28 41 59 48
46 156 160 244 257 25 28 81 90 125 138 44 49 92 102 107 119 l28 30 132 0
c76 0 99 2 55 4 -78 4 -79 4 -73 28 6 23 5 23 -21 9 -29 -14 -63 -19 -63 -8 0
9 89 121 134 168 21 23 48 61 61 86 36 72 215 479 215 490 0 12 -134 11 -258
-1z m205 -85 c-3 -3 -12 -4 -19 -1 -8 3 -5 6 6 6 11 1 17 -2 13 -5z m-1867
-2048 c0 -3 -4 -8 -10 -11 -5 -3 -10 -1 -10 4 0 6 5 11 10 11 6 0 10 -2 10 -4z
m-6 -84 c2 -4 -5 -9 -17 -9 -17 -2 -19 0 -7 7 18 12 18 12 24 2z m-27 -28 c-3
-3 -12 -4 -19 -1 -8 3 -5 6 6 6 11 1 17 -2 13 -5z m-14 -49 c-3 -9 -8 -14 -10
-11 -3 3 -2 9 2 15 9 16 15 13 8 -4z m-106 -320 c0 -8 -4 -15 -8 -15 -11 0
-20 16 -12 24 11 11 20 7 20 -9z m-13 -34 c3 -5 -1 -11 -9 -14 -9 -4 -12 -1
-8 9 6 16 10 17 17 5z m-49 -21 c3 -5 1 -10 -4 -10 -6 0 -11 5 -11 10 0 6 2
10 4 10 3 0 8 -4 11 -10z"/>
<path d="M10905 16620 c-17 -7 -16 -9 10 -9 17 0 37 4 45 9 12 8 10 10 -10 9
-14 0 -34 -4 -45 -9z"/>
<path d="M10616 16075 c-9 -26 -7 -32 5 -12 6 10 9 21 6 23 -2 3 -7 -2 -11
-11z"/>
<path d="M10586 16005 c-9 -26 -7 -32 5 -12 6 10 9 21 6 23 -2 3 -7 -2 -11
-11z"/>
<path d="M10512 15840 c-11 -23 -14 -36 -7 -30 12 10 38 70 31 70 -2 0 -13
-18 -24 -40z"/>
<path d="M10441 15679 c-18 -39 -30 -73 -28 -75 2 -2 18 28 36 67 17 40 30 74
28 76 -2 2 -18 -29 -36 -68z"/>
<path d="M10386 15553 c-6 -14 -5 -15 5 -6 7 7 10 15 7 18 -3 3 -9 -2 -12 -12z"/>
<path d="M10363 15503 c-3 -10 -8 -22 -11 -27 -3 -5 0 -6 5 -3 11 7 25 47 17
47 -3 0 -7 -8 -11 -17z"/>
<path d="M10285 15329 c-4 -6 -5 -12 -2 -15 2 -3 7 2 10 11 7 17 1 20 -8 4z"/>
<path d="M10172 15192 c-45 -3 -52 -5 -42 -18 10 -11 36 -14 114 -12 55 1 79
3 51 5 -27 2 -54 9 -60 16 -6 7 -30 11 -63 9z"/>
<path d="M8885 14251 c-9 -15 15 -25 28 -12 9 9 7 10 -7 5 -13 -5 -17 -4 -12
4 4 7 5 12 2 12 -3 0 -7 -4 -11 -9z"/>
<path d="M8930 14230 c0 -5 5 -10 10 -10 6 0 10 5 10 10 0 6 -4 10 -10 10 -5
0 -10 -4 -10 -10z"/>
<path d="M8853 14202 c-24 -28 -30 -48 -13 -37 6 3 10 1 10 -4 0 -6 7 -11 16
-11 9 0 12 -5 8 -12 -4 -7 -3 -8 4 -4 17 10 15 26 -2 26 -24 0 -29 20 -10 41
9 10 15 21 13 23 -2 3 -14 -8 -26 -22z"/>
<path d="M8895 14130 c-10 -11 -15 -20 -12 -20 4 0 16 9 27 20 11 11 16 20 12
20 -5 0 -17 -9 -27 -20z"/>
<path d="M8945 14140 c-3 -5 -2 -10 4 -10 5 0 13 5 16 10 3 6 2 10 -4 10 -5 0
-13 -4 -16 -10z"/>
<path d="M9573 13633 c9 -2 25 -2 35 0 9 3 1 5 -18 5 -19 0 -27 -2 -17 -5z"/>
<path d="M7825 13230 c-22 -11 -34 -19 -27 -20 14 0 72 28 72 35 0 7 0 7 -45
-15z"/>
<path d="M7030 13031 c-16 -9 -302 -80 -505 -125 -66 -15 -145 -33 -175 -41
-30 -8 -107 -26 -170 -41 -155 -35 -279 -63 -375 -85 -44 -10 -174 -39 -290
-64 -115 -26 -246 -55 -290 -66 -73 -17 -315 -71 -540 -120 -49 -11 -162 -35
-250 -54 -88 -19 -299 -63 -470 -100 -417 -88 -769 -162 -890 -185 -146 -28
-288 -57 -390 -79 -49 -11 -128 -27 -175 -36 -47 -8 -114 -22 -150 -30 -123
-27 -531 -111 -800 -164 -58 -11 -138 -28 -179 -36 -41 -9 -88 -13 -105 -10
-19 3 -24 2 -13 -3 13 -5 -16 -15 -91 -30 -60 -12 -120 -22 -133 -21 l-24 1
25 8 c44 14 -9 11 -65 -4 -40 -11 -45 -14 -25 -17 15 -3 -5 -9 -50 -17 -41 -7
-104 -19 -140 -27 -36 -8 -77 -12 -90 -9 -20 5 -22 3 -10 -5 12 -9 9 -11 -15
-11 -24 0 -27 2 -15 11 12 9 12 10 -3 5 -10 -3 -26 -6 -35 -7 -14 0 -13 -2 3
-10 16 -7 12 -8 -15 -5 -19 3 -75 -1 -125 -8 -81 -12 -85 -14 -40 -16 43 -1
32 -5 -85 -29 -74 -15 -179 -36 -232 -46 -54 -10 -98 -22 -98 -27 0 -13 27
-10 186 21 82 16 223 44 314 61 91 17 255 50 365 72 110 22 223 43 250 48 28
5 194 39 370 75 176 36 523 106 770 155 248 50 480 97 516 105 36 8 196 42
355 74 317 66 456 95 949 200 313 67 419 90 510 111 43 10 307 68 475 105 141
31 935 211 1105 250 33 8 103 24 155 36 90 20 236 55 624 149 l168 40 232 -2
c127 -2 224 -6 216 -10 -8 -4 -127 -48 -265 -98 -137 -51 -272 -100 -300 -110
-332 -124 -1286 -446 -1970 -665 -132 -43 -294 -94 -360 -116 -119 -38 -560
-174 -810 -250 -71 -22 -196 -60 -276 -85 -81 -25 -155 -47 -165 -49 -11 -3
-64 -18 -119 -35 -136 -42 -403 -121 -830 -246 -104 -31 -208 -62 -230 -69
-45 -16 -116 -37 -650 -192 -66 -19 -147 -44 -179 -54 -33 -11 -93 -28 -135
-38 -42 -11 -87 -23 -101 -29 -14 -5 -27 -10 -30 -10 -3 0 -12 -3 -20 -6 -54
-19 -231 -66 -247 -66 -10 0 -23 -4 -28 -9 -9 -8 -123 -42 -155 -46 -8 -1 -26
-7 -40 -12 -14 -6 -41 -13 -60 -17 -35 -6 -35 -6 5 9 22 8 51 21 64 28 13 6
32 11 42 9 9 -2 20 2 24 8 3 5 16 10 28 10 24 0 120 31 125 41 1 3 17 4 35 2
32 -4 32 -4 8 10 l-24 14 31 -1 c16 0 28 -4 25 -8 -2 -5 0 -8 5 -8 6 0 12 7
16 15 3 8 10 15 16 15 6 0 8 -4 5 -10 -3 -5 -1 -10 4 -10 6 0 11 4 11 9 0 5
10 7 23 4 12 -3 19 -3 15 2 -4 4 -1 14 7 21 16 16 29 19 20 4 -4 -6 5 -10 20
-10 14 0 28 7 31 15 4 10 14 13 33 9 20 -4 23 -3 11 5 -12 8 -5 11 30 11 33 0
41 3 30 10 -13 8 -12 10 3 10 9 0 17 5 17 11 0 6 6 9 13 6 6 -2 11 -9 10 -15
-2 -6 4 -9 12 -5 14 5 14 7 -1 17 -10 8 -14 20 -10 32 5 16 13 19 51 16 36 -3
45 -1 45 12 0 13 -4 15 -19 6 -11 -5 -28 -10 -38 -9 -16 0 -17 1 -1 7 10 4
-34 8 -97 8 -79 1 -115 -2 -115 -10 0 -7 -18 -10 -47 -9 -27 1 -73 -4 -103
-11 -30 -8 -62 -14 -70 -14 -8 0 -44 -2 -80 -5 -184 -16 -250 -19 -250 -10 0
6 60 13 135 17 258 13 527 74 555 127 14 26 -7 53 -54 68 -55 18 -180 42 -225
43 -36 0 -41 2 -25 11 24 14 54 16 54 5 0 -5 4 -7 9 -3 6 3 29 1 53 -4 23 -6
44 -8 47 -5 9 9 -34 45 -49 41 -10 -3 -16 3 -17 15 -1 11 3 16 9 12 7 -4 8 -2
4 4 -4 7 -13 12 -21 12 -7 0 -15 6 -18 13 -2 6 -8 8 -13 4 -5 -4 -2 -12 6 -17
8 -5 11 -12 7 -17 -5 -4 -12 -1 -18 7 -8 13 -10 13 -20 0 -8 -12 -9 -10 -4 8
6 20 3 22 -40 22 -43 0 -45 1 -39 25 5 22 3 25 -20 25 -15 0 -29 -7 -32 -15
-9 -22 -34 -18 -34 5 0 18 7 20 81 20 72 0 80 2 75 17 -4 9 -1 21 6 26 9 6 8
7 -4 3 -12 -4 -18 0 -19 12 0 10 -3 12 -6 4 -2 -6 -10 -9 -16 -5 -6 3 -33 7
-61 8 -28 2 -52 8 -54 14 -2 7 -15 3 -34 -10 -30 -22 -30 -22 -24 -2 4 14 1
23 -9 26 -8 4 -14 1 -12 -5 3 -15 -37 -26 -98 -27 -59 -1 -97 8 -89 20 3 5 1
9 -5 9 -5 0 -18 3 -28 6 -13 4 -15 3 -5 -4 11 -7 8 -11 -12 -16 -16 -4 -24
-11 -20 -17 4 -7 -1 -7 -15 1 -19 9 -25 8 -40 -11 -14 -18 -23 -21 -47 -14
-47 13 -54 14 -48 4 3 -5 12 -9 20 -9 35 0 9 -20 -40 -30 -38 -8 -56 -17 -64
-33 l-11 -22 0 23 c-1 14 -5 20 -12 17 -5 -4 -20 4 -31 17 -18 20 -20 20 -13
3 4 -11 10 -30 12 -42 5 -20 1 -23 -28 -22 -31 0 -32 1 -12 9 31 12 31 40 1
33 -18 -4 -20 -2 -9 5 16 11 -39 9 -81 -3 -18 -5 -20 -4 -8 4 11 8 12 13 3 22
-9 9 -15 8 -27 -4 -18 -17 -21 -32 -6 -22 5 3 10 1 10 -4 0 -6 -4 -11 -10 -11
-5 0 -10 -14 -10 -31 l0 -32 83 6 c46 3 90 1 98 -4 9 -5 -21 -9 -83 -9 l-98 0
0 -30 c0 -28 2 -29 33 -24 17 3 45 10 61 15 40 12 99 12 91 -1 -4 -6 -15 -8
-26 -5 -12 4 -19 2 -19 -7 0 -11 -13 -13 -56 -10 -37 3 -54 1 -50 -6 4 -6 -2
-8 -14 -5 -19 5 -20 0 -20 -110 l0 -115 128 -8 c70 -4 137 -8 149 -8 12 -1 25
-5 30 -10 4 -5 -17 -6 -52 -3 -33 4 -104 9 -157 13 l-98 7 0 -34 c0 -22 9 -43
28 -63 l27 -30 -27 17 -28 17 0 -159 c0 -118 3 -161 13 -164 9 -4 9 -6 0 -6
-15 -1 -18 -51 -3 -51 6 0 10 -5 10 -11 0 -5 -4 -7 -10 -4 -6 4 -10 -18 -10
-59 0 -72 1 -73 63 -55 23 6 35 14 31 21 -4 7 -3 8 4 4 15 -9 52 11 52 28 0
21 53 38 109 37 23 -1 24 0 6 12 -12 10 -15 16 -6 21 6 4 19 0 28 -9 15 -15
18 -16 28 -2 8 12 20 13 53 7 24 -4 46 -10 49 -14 4 -3 16 0 27 8 12 7 35 16
51 19 39 7 155 40 225 64 33 11 54 24 52 32 -1 7 2 10 7 7 5 -4 12 -2 16 4 3
5 1 10 -4 10 -6 0 -11 4 -11 9 0 11 81 2 95 -10 12 -12 21 -11 37 4 7 7 51 23
98 36 47 12 105 28 130 36 25 7 67 18 94 25 32 9 50 20 54 32 3 12 14 18 36
19 l31 1 -30 8 c-24 6 -26 8 -7 9 32 2 27 20 -8 28 -17 3 -33 10 -36 14 -3 5
-10 9 -15 9 -6 0 -7 -5 -3 -12 5 -8 0 -9 -16 -5 -13 3 -29 3 -34 -2 -6 -4 -46
-16 -89 -26 -42 -9 -80 -22 -84 -28 -4 -6 -1 -7 7 -2 9 5 11 4 6 -3 -4 -7 -19
-9 -36 -5 -44 8 -79 -4 -86 -31 -3 -13 -14 -26 -25 -29 -24 -6 -20 15 5 26 10
4 16 10 13 13 -3 3 -14 1 -25 -5 -11 -6 -29 -8 -38 -4 -13 5 -4 10 31 19 28 7
140 39 250 73 110 34 207 59 215 56 8 -4 11 -3 7 2 -5 4 18 15 50 24 32 9 110
33 173 52 63 20 185 56 270 80 150 44 358 107 620 186 69 21 166 50 215 65 91
27 627 189 830 251 245 74 759 235 1110 347 121 39 290 93 375 120 331 105
1257 417 1570 528 80 29 206 74 280 100 139 49 467 172 645 240 55 22 112 42
128 46 15 3 27 10 27 15 0 12 -600 11 -620 0z m-6517 -1398 c-7 -2 -21 -2 -30
0 -10 3 -4 5 12 5 17 0 24 -2 18 -5z m327 -99 c0 -2 -11 -4 -25 -4 -14 0 -25
4 -25 9 0 4 11 6 25 3 14 -2 25 -6 25 -8z m-116 -3 c3 -4 -6 -6 -19 -3 -14 2
-25 6 -25 8 0 8 39 4 44 -5z m161 -21 c0 -18 -16 -22 -35 -10 -13 9 -13 11 0
20 19 12 35 8 35 -10z m22 -12 c-3 -8 -6 -5 -6 6 -1 11 2 17 5 13 3 -3 4 -12
1 -19z m30 0 c-3 -8 -6 -5 -6 6 -1 11 2 17 5 13 3 -3 4 -12 1 -19z m-892 -58
c-3 -5 2 -10 11 -10 10 0 15 -2 12 -5 -3 -4 -18 -3 -33 1 -20 5 -23 9 -13 15
18 12 31 11 23 -1z m55 -10 c0 -5 -5 -10 -11 -10 -5 0 -7 5 -4 10 3 6 8 10 11
10 2 0 4 -4 4 -10z m895 -70 c3 -5 -1 -10 -9 -10 -9 0 -16 5 -16 10 0 6 4 10
9 10 6 0 13 -4 16 -10z m-725 -10 c0 -5 -7 -10 -16 -10 -8 0 -12 5 -9 10 3 6
10 10 16 10 5 0 9 -4 9 -10z m83 3 c-7 -2 -19 -2 -25 0 -7 3 -2 5 12 5 14 0
19 -2 13 -5z m-123 -13 c0 -5 -4 -10 -9 -10 -6 0 -13 5 -16 10 -3 6 1 10 9 10
9 0 16 -4 16 -10z m602 -5 c38 -2 72 -6 76 -9 3 -3 -100 -6 -229 -6 -214 -1
-332 -7 -493 -26 -54 -6 -58 -6 -45 8 8 9 19 12 24 8 6 -4 37 -4 70 2 33 5 86
9 118 8 31 0 57 3 57 7 0 4 44 7 97 5 54 -1 125 1 158 6 33 5 68 7 78 5 10 -3
50 -6 89 -8z m-723 -44 c9 -6 0 -10 -28 -13 -36 -3 -40 -2 -25 9 21 15 34 16
53 4z m-79 -5 c0 -3 -4 -8 -10 -11 -5 -3 -10 -1 -10 4 0 6 5 11 10 11 6 0 10
-2 10 -4z m758 -47 c17 -6 32 -14 32 -19 0 -5 -15 -3 -32 3 -18 7 -77 12 -130
12 -74 -1 -93 2 -78 10 23 12 161 8 208 -6z m-298 4 c0 -5 -12 -8 -27 -9 -16
-1 -41 -4 -58 -7 -16 -3 -55 -10 -85 -15 -30 -5 -56 -15 -58 -21 -2 -6 -8 -11
-13 -11 -6 0 -8 4 -4 9 3 5 -5 11 -17 13 -15 3 -3 8 34 17 32 7 62 10 68 6 5
-3 10 -2 10 4 0 5 17 12 38 14 70 7 112 7 112 0z m310 -55 c-13 -5 -28 -7 -34
-4 -6 2 -3 5 7 5 9 1 17 5 17 11 0 5 7 7 17 3 14 -5 12 -8 -7 -15z m-604 -3
c-3 -8 0 -15 7 -16 26 -1 104 -12 142 -20 30 -6 22 -6 -30 -3 -113 9 -161 25
-138 47 12 13 25 7 19 -8z m469 -26 c-22 -4 -53 -7 -70 -7 -26 1 -24 2 10 8
22 4 54 7 70 7 25 1 23 -1 -10 -8z m-167 -16 c-15 -2 -42 -2 -60 0 -18 2 -6 4
27 4 33 0 48 -2 33 -4z m637 -43 c3 -5 1 -10 -4 -10 -6 0 -11 5 -11 10 0 6 2
10 4 10 3 0 8 -4 11 -10z m135 -5 c0 -8 -4 -15 -10 -15 -5 0 -10 -6 -10 -14 0
-14 -34 -28 -44 -18 -3 3 -6 12 -5 21 0 12 3 11 9 -4 7 -17 9 -17 9 -2 1 9 8
17 16 17 8 0 15 7 15 15 0 8 5 15 10 15 6 0 10 -7 10 -15z m-280 -25 c0 -5 -5
-10 -11 -10 -5 0 -7 5 -4 10 3 6 8 10 11 10 2 0 4 -4 4 -10z m47 4 c-3 -3 -12
-4 -19 -1 -8 3 -5 6 6 6 11 1 17 -2 13 -5z m-690 -20 c-3 -3 -12 -4 -19 -1 -8
3 -5 6 6 6 11 1 17 -2 13 -5z m86 -1 c-13 -2 -35 -2 -50 0 -16 2 -5 4 22 4 28
0 40 -2 28 -4z m75 0 c-10 -2 -26 -2 -35 0 -10 3 -2 5 17 5 19 0 27 -2 18 -5z
m555 -41 c-10 -10 -20 -17 -22 -16 -6 5 20 34 30 34 5 0 1 -8 -8 -18z m54 12
c-3 -3 -12 -4 -19 -1 -8 3 -5 6 6 6 11 1 17 -2 13 -5z m-4 -21 c-7 -2 -19 -2
-25 0 -7 3 -2 5 12 5 14 0 19 -2 13 -5z m-1076 -106 c0 -8 -6 -14 -14 -14 -14
0 -17 10 -6 20 10 11 20 8 20 -6z m1229 5 c8 -5 7 -11 -4 -22 -14 -13 -15 -12
-9 3 9 25 -20 22 -33 -4 -11 -19 -12 -20 -24 -3 -7 9 -18 14 -24 10 -7 -4 -12
-3 -12 3 0 16 85 27 106 13z m-102 -26 l27 -14 -33 -5 c-34 -5 -54 2 -29 11
11 4 11 6 0 13 -23 14 6 10 35 -5z m-167 -41 c0 -9 -10 -15 -24 -15 -40 0 -28
20 18 29 3 0 6 -6 6 -14z m199 0 c-11 -8 -27 -15 -35 -14 -9 0 -2 7 14 14 39
18 45 18 21 0z m-360 -17 c4 -7 4 -10 -1 -6 -4 4 -14 3 -22 -4 -7 -6 -16 -8
-20 -5 -3 3 -18 0 -34 -8 -15 -8 -36 -12 -45 -8 -13 5 -1 12 42 24 74 22 71
21 80 7z m-296 -12 c0 -7 -112 -38 -117 -32 -3 2 15 10 38 16 24 6 49 13 54
15 15 5 25 6 25 1z m514 -17 c-28 -11 -54 -10 -54 2 0 5 4 8 9 4 5 -3 12 -1
15 4 3 5 16 7 28 3 21 -5 21 -6 2 -13z m-654 -9 c-12 -8 -12 -10 -1 -10 8 0
12 -3 8 -6 -9 -9 -28 6 -22 17 4 5 12 9 18 9 7 0 6 -4 -3 -10z m265 -10 c-32
-21 -55 -26 -55 -11 0 4 15 13 33 19 49 16 55 14 22 -8z m-292 -17 c-7 -2 -21
-2 -30 0 -10 3 -4 5 12 5 17 0 24 -2 18 -5z m217 -3 c-20 -13 -33 -13 -25 0 3
6 14 10 23 10 15 0 15 -2 2 -10z m-300 -20 c-8 -5 -24 -9 -35 -9 l-20 0 20 9
c11 5 27 9 35 9 13 1 13 0 0 -9z m215 0 c-3 -5 -16 -10 -27 -10 -12 0 -30 -8
-40 -17 -12 -11 -22 -13 -29 -6 -9 9 -1 12 86 38 6 2 11 4 13 4 2 1 0 -3 -3
-9z m-285 -20 c-18 -12 -53 -13 -46 -2 2 4 17 8 33 10 21 1 24 -1 13 -8z m140
-23 c-19 -6 -37 -14 -40 -17 -7 -10 -93 -30 -102 -24 -4 3 -8 0 -8 -7 0 -7 -3
-10 -6 -7 -3 4 -37 -2 -75 -13 -38 -10 -77 -19 -86 -18 -10 1 -4 5 12 9 120
32 290 82 294 86 2 2 14 4 25 3 14 -1 9 -5 -14 -12z m-237 -4 c-7 -2 -19 -2
-25 0 -7 3 -2 5 12 5 14 0 19 -2 13 -5z"/>
<path d="M8110 12905 c-14 -8 -20 -14 -15 -14 6 0 21 6 35 14 14 8 21 14 15
14 -5 0 -21 -6 -35 -14z"/>
<path d="M8993 12823 c9 -2 25 -2 35 0 9 3 1 5 -18 5 -19 0 -27 -2 -17 -5z"/>
<path d="M7665 12730 c-3 -6 1 -7 9 -4 18 7 21 14 7 14 -6 0 -13 -4 -16 -10z"/>
<path d="M7585 12704 c-22 -13 -37 -24 -33 -24 17 0 88 33 88 41 0 13 -10 10
-55 -17z"/>
<path d="M8803 12723 c9 -2 25 -2 35 0 9 3 1 5 -18 5 -19 0 -27 -2 -17 -5z"/>
<path d="M8908 12713 c7 -3 16 -2 19 1 4 3 -2 6 -13 5 -11 0 -14 -3 -6 -6z"/>
<path d="M8723 12603 c9 -2 25 -2 35 0 9 3 1 5 -18 5 -19 0 -27 -2 -17 -5z"/>
<path d="M7285 12580 c-8 -13 5 -13 25 0 13 8 13 10 -2 10 -9 0 -20 -4 -23
-10z"/>
<path d="M7160 12530 c-8 -5 -10 -10 -5 -10 6 0 17 5 25 10 8 5 11 10 5 10 -5
0 -17 -5 -25 -10z"/>
<path d="M8195 12523 c17 -17 102 -35 125 -28 38 12 7 27 -67 32 -44 4 -65 2
-58 -4z"/>
<path d="M8428 12493 c6 -2 18 -2 25 0 6 3 1 5 -13 5 -14 0 -19 -2 -12 -5z"/>
<path d="M8538 12483 c7 -3 16 -2 19 1 4 3 -2 6 -13 5 -11 0 -14 -3 -6 -6z"/>
<path d="M6980 12461 c-8 -6 -18 -7 -24 -4 -5 3 -6 1 -2 -5 5 -8 13 -9 24 -3
9 4 24 11 32 14 13 5 13 5 0 6 -8 0 -22 -3 -30 -8z"/>
<path d="M4263 12443 c32 -2 81 -2 110 0 29 2 3 3 -58 3 -60 0 -84 -1 -52 -3z"/>
<path d="M4098 12433 c6 -2 18 -2 25 0 6 3 1 5 -13 5 -14 0 -19 -2 -12 -5z"/>
<path d="M6203 12303 c9 -2 23 -2 30 0 6 3 -1 5 -18 5 -16 0 -22 -2 -12 -5z"/>
<path d="M6538 12273 c7 -3 16 -2 19 1 4 3 -2 6 -13 5 -11 0 -14 -3 -6 -6z"/>
<path d="M6560 12238 c0 -4 12 -8 28 -8 15 0 45 -2 67 -5 59 -8 29 3 -37 13
-32 5 -58 5 -58 0z"/>
<path d="M7160 12035 c-55 -29 -51 -31 16 -6 56 22 87 20 246 -14 43 -9 88
-15 100 -13 33 5 -175 49 -252 54 -54 3 -72 0 -110 -21z"/>
<path d="M1995 11950 c-14 -7 -8 -8 20 -3 22 3 42 7 44 9 9 8 -45 2 -64 -6z"/>
<path d="M6970 11950 c-8 -5 -10 -10 -5 -10 6 0 17 5 25 10 8 5 11 10 5 10 -5
0 -17 -5 -25 -10z"/>
<path d="M1900 11930 c-20 -6 -21 -8 -5 -8 11 0 31 4 45 8 20 6 21 8 5 8 -11
0 -31 -4 -45 -8z"/>
<path d="M6928 11933 c7 -3 16 -2 19 1 4 3 -2 6 -13 5 -11 0 -14 -3 -6 -6z"/>
<path d="M1748 11893 c7 -3 16 -2 19 1 4 3 -2 6 -13 5 -11 0 -14 -3 -6 -6z"/>
<path d="M1660 11880 c-20 -6 -21 -8 -5 -8 11 0 31 4 45 8 20 6 21 8 5 8 -11
0 -31 -4 -45 -8z"/>
<path d="M4500 11850 c-8 -5 -10 -10 -5 -10 6 0 17 5 25 10 8 5 11 10 5 10 -5
0 -17 -5 -25 -10z"/>
<path d="M6725 11850 c-3 -6 1 -7 9 -4 18 7 21 14 7 14 -6 0 -13 -4 -16 -10z"/>
<path d="M4238 11763 c7 -3 16 -2 19 1 4 3 -2 6 -13 5 -11 0 -14 -3 -6 -6z"/>
<path d="M6430 11730 c-8 -6 -154 -66 -325 -134 -170 -68 -344 -138 -386 -156
l-76 -31 -154 46 c-188 56 -449 122 -669 169 -172 37 -561 106 -594 106 -46 0
1 -12 140 -35 417 -71 885 -181 1195 -281 l76 -25 134 55 c273 110 535 219
579 239 81 37 179 35 394 -8 103 -20 190 -34 193 -31 4 3 2 6 -4 6 -6 0 -96
18 -199 39 -222 46 -284 54 -304 41z"/>
<path d="M828 11713 c6 -2 18 -2 25 0 6 3 1 5 -13 5 -14 0 -19 -2 -12 -5z"/>
<path d="M768 11703 c6 -2 18 -2 25 0 6 3 1 5 -13 5 -14 0 -19 -2 -12 -5z"/>
<path d="M880 11621 c0 -10 19 -25 25 -20 1 2 -3 10 -11 17 -8 7 -14 8 -14 3z"/>
<path d="M920 11620 c0 -5 5 -10 11 -10 5 0 7 5 4 10 -3 6 -8 10 -11 10 -2 0
-4 -4 -4 -10z"/>
<path d="M740 11600 c0 -5 5 -10 10 -10 6 0 10 5 10 10 0 6 -4 10 -10 10 -5 0
-10 -4 -10 -10z"/>
<path d="M447 11569 c-3 -13 -1 -19 6 -16 15 5 22 37 9 37 -5 0 -12 -9 -15
-21z"/>
<path d="M3650 11580 c-8 -5 -10 -10 -5 -10 6 0 17 5 25 10 8 5 11 10 5 10 -5
0 -17 -5 -25 -10z"/>
<path d="M415 11570 c-3 -5 -1 -10 4 -10 6 0 11 5 11 10 0 6 -2 10 -4 10 -3 0
-8 -4 -11 -10z"/>
<path d="M386 11561 c-3 -5 1 -11 9 -14 9 -4 12 -1 8 9 -6 16 -10 17 -17 5z"/>
<path d="M3608 11563 c7 -3 16 -2 19 1 4 3 -2 6 -13 5 -11 0 -14 -3 -6 -6z"/>
<path d="M300 11550 c-9 -6 -10 -10 -3 -10 6 0 15 5 18 10 8 12 4 12 -15 0z"/>
<path d="M1088 11543 c7 -3 16 -2 19 1 4 3 -2 6 -13 5 -11 0 -14 -3 -6 -6z"/>
<path d="M375 11530 c3 -5 11 -10 16 -10 6 0 7 5 4 10 -3 6 -11 10 -16 10 -6
0 -7 -4 -4 -10z"/>
<path d="M1037 11533 c-3 -5 6 -9 20 -10 19 -1 22 1 12 8 -17 11 -26 11 -32 2z"/>
<path d="M3368 11533 c7 -3 16 -2 19 1 4 3 -2 6 -13 5 -11 0 -14 -3 -6 -6z"/>
<path d="M3270 11510 c-16 -10 9 -17 64 -19 21 -1 43 -3 48 -4 6 -1 12 3 14 8
2 6 -6 10 -18 11 -13 0 -39 3 -59 6 -20 3 -42 2 -49 -2z"/>
<path d="M3416 11510 c7 -7 19 -7 35 -1 23 9 22 10 -10 10 -24 1 -32 -2 -25
-9z"/>
<path d="M7009 11492 c-13 -10 -67 -46 -119 -78 l-95 -60 -91 16 c-98 18 -112
16 -171 -25 -45 -30 -38 -33 15 -5 29 15 45 18 69 11 17 -5 65 -12 107 -16 55
-5 80 -12 92 -27 13 -13 14 -17 3 -13 -11 4 -14 -4 -13 -34 1 -52 18 -75 45
-58 20 13 26 47 8 47 -10 0 -5 68 6 79 5 4 137 -19 420 -71 28 -5 60 -11 72
-13 31 -4 81 -14 137 -27 l49 -11 -33 -13 c-37 -16 -52 -18 -30 -4 11 7 9 11
-13 19 -47 18 -137 26 -137 12 0 -8 8 -10 21 -6 25 8 69 -2 69 -16 0 -6 -4 -8
-9 -5 -15 10 -41 -5 -41 -23 0 -14 -2 -14 -10 -1 -7 11 -3 18 13 28 22 13 22
13 -3 6 -32 -8 -29 -8 -67 1 -18 4 -33 11 -33 16 0 14 -20 11 -36 -6 -12 -12
-12 -15 -2 -15 10 0 9 -3 -2 -11 -12 -9 -11 -10 5 -6 11 3 29 8 40 12 19 6 19
6 1 -5 -15 -10 -16 -14 -5 -22 10 -7 7 -7 -8 -3 -17 5 -21 3 -18 -7 4 -10 -10
-13 -61 -13 -51 0 -68 -4 -71 -15 -3 -11 -2 -11 4 -3 5 7 27 10 57 8 50 -4 64
-10 52 -22 -4 -4 -11 -1 -16 7 -8 12 -10 10 -10 -7 0 -24 7 -27 34 -17 9 3 13
10 10 15 -3 5 5 7 18 5 13 -3 33 -5 46 -5 21 -1 33 -31 12 -31 -5 0 -10 5 -10
10 0 6 -4 10 -10 10 -5 0 -10 -6 -10 -14 0 -8 15 -17 35 -20 19 -4 35 -11 35
-16 0 -6 7 -10 15 -10 12 0 11 4 -5 20 -24 24 -26 42 -5 34 8 -4 12 -10 9 -15
-3 -5 11 -9 31 -9 20 0 46 -5 57 -11 11 -6 18 -7 14 -1 -7 12 38 22 54 12 9
-6 9 -9 -1 -13 -8 -4 -1 -3 15 0 20 4 27 3 22 -6 -12 -18 12 -13 33 8 11 11
21 15 23 9 2 -6 13 -8 23 -5 19 5 19 5 -2 12 -14 4 -23 15 -23 27 0 14 -5 18
-15 14 -8 -3 -15 -1 -15 4 0 5 -6 7 -14 4 -10 -4 -14 2 -12 20 1 18 7 26 20
26 12 0 16 5 12 15 -6 18 21 20 68 6 17 -5 65 -15 106 -21 99 -16 111 -17 138
-19 13 0 21 -4 18 -9 -2 -4 12 -6 32 -4 21 2 64 -1 97 -6 71 -12 81 -8 33 12
-33 14 -140 34 -388 71 -238 36 -836 138 -848 144 -10 5 17 28 82 69 53 34
101 62 106 62 6 0 10 5 10 10 0 15 -15 12 -41 -8z m331 -332 c0 -5 -2 -10 -4
-10 -3 0 -8 5 -11 10 -3 6 -1 10 4 10 6 0 11 -4 11 -10z m270 -65 c0 -9 -6
-12 -16 -8 -13 5 -13 7 -2 14 17 11 18 11 18 -6z"/>
<path d="M1220 11481 c0 -6 5 -11 10 -11 6 0 10 -4 10 -10 0 -13 -27 -13 -33
0 -3 6 -4 5 -3 -2 2 -8 20 -14 46 -15 26 -1 38 2 30 7 -7 4 -10 13 -6 19 5 7
1 9 -9 5 -8 -4 -22 -1 -30 6 -10 9 -15 9 -15 1z"/>
<path d="M3308 11473 c6 -2 18 -2 25 0 6 3 1 5 -13 5 -14 0 -19 -2 -12 -5z"/>
<path d="M900 11458 c0 -11 8 -18 20 -18 12 0 20 7 20 18 0 14 -2 15 -10 2 -9
-13 -11 -13 -20 0 -8 13 -10 12 -10 -2z"/>
<path d="M951 11454 c0 -11 3 -14 6 -6 3 7 2 16 -1 19 -3 4 -6 -2 -5 -13z"/>
<path d="M3190 11435 c-14 -8 -20 -14 -14 -15 5 0 19 7 30 15 24 18 16 19 -16
0z"/>
<path d="M1116 11424 c-3 -9 1 -11 12 -7 15 6 15 5 -1 -14 -14 -16 -15 -22 -5
-30 43 -34 95 -13 70 28 -7 11 -8 19 -2 19 5 0 10 4 10 9 0 14 -78 10 -84 -5z
m59 -34 c3 -5 -3 -10 -15 -10 -12 0 -18 5 -15 10 3 6 10 10 15 10 5 0 12 -4
15 -10z"/>
<path d="M3010 11429 c0 -6 -7 -8 -16 -5 -10 4 -13 2 -8 -6 5 -8 2 -9 -9 -5
-10 4 -17 1 -17 -6 0 -8 20 -13 63 -13 60 -1 61 -1 26 10 -21 7 -34 16 -32 24
3 6 2 12 -1 12 -3 0 -6 -5 -6 -11z"/>
<path d="M1030 11420 c0 -5 5 -10 11 -10 5 0 7 5 4 10 -3 6 -8 10 -11 10 -2 0
-4 -4 -4 -10z"/>
<path d="M3120 11420 c-8 -5 -10 -10 -5 -10 6 0 17 5 25 10 8 5 11 10 5 10 -5
0 -17 -5 -25 -10z"/>
<path d="M1372 11383 c-20 -8 -3 -23 28 -23 33 0 48 15 24 24 -18 7 -33 7 -52
-1z m41 -10 c-7 -2 -19 -2 -25 0 -7 3 -2 5 12 5 14 0 19 -2 13 -5z"/>
<path d="M1102 11361 c-7 -4 -5 -13 3 -25 12 -16 16 -16 33 -4 20 13 20 14 -3
24 -13 6 -28 8 -33 5z"/>
<path d="M1180 11340 c0 -5 7 -10 16 -10 8 0 12 5 9 10 -3 6 -10 10 -16 10 -5
0 -9 -4 -9 -10z"/>
<path d="M1400 11329 c0 -5 5 -7 10 -4 6 3 10 8 10 11 0 2 -4 4 -10 4 -5 0
-10 -5 -10 -11z"/>
<path d="M1430 11331 c0 -5 5 -13 10 -16 6 -3 10 -2 10 4 0 5 -4 13 -10 16 -5
3 -10 2 -10 -4z"/>
<path d="M1161 11317 c-8 -10 -3 -13 24 -13 19 0 33 1 32 2 -23 17 -46 22 -56
11z"/>
<path d="M1298 11313 c12 -2 32 -2 45 0 12 2 2 4 -23 4 -25 0 -35 -2 -22 -4z"/>
<path d="M6465 11300 c-8 -13 5 -13 25 0 13 8 13 10 -2 10 -9 0 -20 -4 -23
-10z"/>
<path d="M7030 11286 c0 -2 9 -6 20 -9 11 -3 18 -1 14 4 -5 9 -34 13 -34 5z"/>
<path d="M1230 11271 c0 -6 4 -13 10 -16 6 -3 7 1 4 9 -7 18 -14 21 -14 7z"/>
<path d="M2508 11273 c7 -3 16 -2 19 1 4 3 -2 6 -13 5 -11 0 -14 -3 -6 -6z"/>
<path d="M6406 11265 c-11 -8 -18 -17 -15 -19 2 -3 15 4 29 14 14 11 21 20 15
19 -5 0 -19 -6 -29 -14z"/>
<path d="M7084 11230 l1 -44 40 -3 c37 -2 36 0 -4 13 -11 4 -12 7 -3 16 7 7
12 19 12 28 0 10 -6 8 -19 -10 l-19 -24 -5 34 c-4 27 -4 25 -3 -10z"/>
<path d="M7191 11248 c11 -12 25 -14 55 -8 35 7 36 8 9 9 -16 1 -41 4 -55 8
-23 6 -24 5 -9 -9z"/>
<path d="M6951 11224 c0 -11 3 -14 6 -6 3 7 2 16 -1 19 -3 4 -6 -2 -5 -13z"/>
<path d="M7285 11230 c-8 -13 5 -13 25 0 13 8 13 10 -2 10 -9 0 -20 -4 -23
-10z"/>
<path d="M1598 11223 c7 -3 16 -2 19 1 4 3 -2 6 -13 5 -11 0 -14 -3 -6 -6z"/>
<path d="M1650 11205 c14 -7 27 -11 30 -9 6 7 -22 24 -40 23 -9 0 -5 -6 10
-14z"/>
<path d="M6310 11200 c-9 -6 -10 -10 -3 -10 6 0 15 5 18 10 8 12 4 12 -15 0z"/>
<path d="M6986 11189 c-19 -19 -19 -19 0 -19 10 0 31 -6 46 -14 20 -11 28 -11
32 -3 2 7 5 1 6 -13 1 -16 4 -20 7 -10 3 8 10 18 16 21 16 11 -15 37 -36 31
-12 -3 -23 2 -29 12 -11 20 -18 20 -42 -5z"/>
<path d="M1260 11190 c-9 -6 -10 -10 -3 -10 6 0 15 5 18 10 8 12 4 12 -15 0z"/>
<path d="M1800 11190 c-9 -6 -10 -10 -3 -10 6 0 15 5 18 10 8 12 4 12 -15 0z"/>
<path d="M2320 11170 c0 -5 7 -10 15 -10 8 0 15 5 15 10 0 6 -7 10 -15 10 -8
0 -15 -4 -15 -10z"/>
<path d="M7616 11164 c-3 -9 -11 -12 -18 -8 -7 4 -6 0 2 -8 17 -17 130 -32
130 -17 0 5 0 12 0 17 0 4 -12 10 -25 14 -14 3 -23 2 -20 -2 3 -5 0 -12 -6
-16 -8 -4 -9 -3 -5 4 3 6 -2 16 -13 21 -27 15 -38 14 -45 -5z"/>
<path d="M2247 11148 c-32 -11 -57 -22 -55 -23 6 -7 118 28 118 37 0 4 -1 8
-2 7 -2 0 -29 -10 -61 -21z"/>
<path d="M6957 11159 c7 -7 15 -10 18 -7 3 3 -2 9 -12 12 -14 6 -15 5 -6 -5z"/>
<path d="M1175 11130 c-8 -13 5 -13 25 0 13 8 13 10 -2 10 -9 0 -20 -4 -23
-10z"/>
<path d="M6180 11123 c-14 -7 -18 -13 -10 -13 17 0 47 17 40 23 -3 2 -16 -2
-30 -10z"/>
<path d="M8140 11125 c-11 -13 -8 -15 18 -15 16 0 65 -6 108 -14 44 -8 107
-18 142 -21 l63 -7 -3 -74 c-2 -70 -10 -90 -22 -61 -3 8 -8 6 -17 -7 -6 -10
-19 -26 -28 -35 -12 -12 -14 -20 -6 -27 12 -12 38 -7 30 6 -3 4 6 3 19 -3 16
-8 20 -14 13 -19 -6 -4 -9 -10 -5 -13 4 -4 14 5 24 20 14 22 16 41 11 122 -8
123 -16 133 -106 133 -36 0 -91 7 -121 15 -70 19 -104 19 -120 0z"/>
<path d="M1516 11123 c-3 -3 -3 -10 0 -14 7 -12 34 -11 34 0 0 11 -26 22 -34
14z"/>
<path d="M2102 11118 c-8 -10 -3 -13 19 -15 15 -1 31 3 35 9 4 7 3 8 -5 4 -6
-4 -18 -3 -25 3 -10 8 -16 8 -24 -1z"/>
<path d="M1441 11103 c-1 -13 5 -23 12 -23 8 0 14 7 14 15 0 8 -4 12 -8 9 -4
-2 -10 2 -12 8 -3 7 -6 3 -6 -9z"/>
<path d="M7256 11091 c-3 -5 1 -14 9 -21 13 -10 15 -9 15 9 0 21 -14 28 -24
12z"/>
<path d="M2162 11084 c3 -3 102 -23 219 -44 492 -90 834 -169 1226 -285 122
-36 225 -65 229 -65 59 0 -402 136 -726 214 -222 54 -466 104 -730 151 -196
35 -228 40 -218 29z"/>
<path d="M1349 11072 c9 -7 10 -11 2 -15 -7 -4 -8 -5 0 -3 15 2 13 20 -3 24
-10 3 -10 2 1 -6z"/>
<path d="M1715 11070 c-16 -7 -17 -9 -3 -9 9 -1 20 4 23 9 7 11 7 11 -20 0z"/>
<path d="M1788 11073 c6 -2 18 -2 25 0 6 3 1 5 -13 5 -14 0 -19 -2 -12 -5z"/>
<path d="M1643 11056 c-18 -6 -33 -13 -33 -18 0 -4 12 -3 28 2 15 5 34 10 42
12 7 3 10 6 5 9 -6 3 -25 0 -42 -5z"/>
<path d="M6045 11042 c-100 -57 -148 -97 -57 -47 45 25 102 65 92 64 -3 0 -18
-8 -35 -17z"/>
<path d="M7210 11050 c10 -6 11 -10 3 -10 -7 0 -13 -7 -13 -16 0 -14 2 -14 15
0 20 20 19 36 -2 36 -15 0 -16 -2 -3 -10z"/>
<path d="M7285 11043 c-5 -12 -9 -14 -12 -5 -6 16 -20 15 -27 -3 -4 -11 1 -15
17 -15 33 0 54 17 41 30 -8 8 -13 6 -19 -7z"/>
<path d="M1730 11043 c-35 -6 -112 -34 -129 -47 -8 -6 -24 -10 -35 -9 -12 1
-15 0 -8 -3 15 -7 16 -34 1 -34 -5 0 -8 4 -4 9 6 11 -33 26 -42 17 -4 -3 -1
-6 6 -6 7 0 10 -4 6 -9 -7 -12 28 -23 49 -15 9 3 16 1 16 -6 0 -6 5 -8 11 -4
8 4 7 9 -2 15 -12 8 -11 11 1 19 8 5 11 10 5 10 -5 1 10 9 35 19 32 14 49 16
58 8 11 -8 11 -12 0 -19 -9 -5 -6 -7 9 -5 12 2 26 7 30 12 5 4 3 5 -3 2 -7 -4
-17 -1 -23 7 -9 11 -6 16 19 24 16 6 30 13 30 16 0 4 -1 5 -2 5 -2 -1 -14 -4
-28 -6z"/>
<path d="M7440 11031 c6 -12 8 -26 5 -31 -3 -6 -1 -10 5 -10 6 0 14 10 19 22
5 14 10 17 15 10 4 -7 12 -12 17 -12 6 0 3 7 -6 16 -9 9 -19 14 -22 11 -3 -4
-14 -2 -25 4 -18 10 -18 8 -8 -10z"/>
<path d="M7312 11019 c-7 -12 -11 -23 -9 -26 6 -6 47 28 47 39 0 16 -26 7 -38
-13z"/>
<path d="M4640 11010 c-9 -6 -10 -10 -3 -10 6 0 15 5 18 10 8 12 4 12 -15 0z"/>
<path d="M7351 10994 c0 -11 3 -14 6 -6 3 7 2 16 -1 19 -3 4 -6 -2 -5 -13z"/>
<path d="M1436 10984 c-6 -14 -4 -15 10 -4 13 12 17 11 24 0 5 -8 12 -11 17
-7 8 9 -14 27 -33 27 -7 0 -15 -7 -18 -16z"/>
<path d="M4540 10970 c-8 -5 -10 -10 -5 -10 6 0 17 5 25 10 8 5 11 10 5 10 -5
0 -17 -5 -25 -10z"/>
<path d="M7454 10963 c2 -13 0 -23 -5 -23 -5 0 -9 5 -9 10 0 6 -18 10 -40 10
-22 0 -40 -4 -40 -10 0 -5 18 -11 40 -11 63 -3 65 -3 72 -19 5 -12 7 -10 8 5
l1 20 9 -20 c8 -18 9 -17 9 7 1 20 -3 26 -16 24 -10 -2 -21 4 -26 13 -5 11 -6
9 -3 -6z"/>
<path d="M1367 10963 c-12 -12 -7 -22 13 -28 26 -8 25 -19 -2 -34 l-23 -12 23
5 c12 2 23 -1 23 -7 1 -7 5 6 9 28 7 39 7 39 9 8 0 -18 6 -33 12 -33 6 0 8 7
5 16 -4 9 -2 22 4 29 8 10 6 15 -12 20 -13 5 -24 3 -26 -3 -2 -6 -10 -8 -18
-5 -13 5 -13 7 -2 14 7 5 8 9 2 9 -6 0 -14 -3 -17 -7z"/>
<path d="M5904 10955 c-10 -8 -14 -15 -8 -15 6 0 17 7 24 15 16 19 9 19 -16 0z"/>
<path d="M1480 10944 c10 -11 10 -14 1 -14 -8 0 -7 -5 3 -15 8 -8 19 -15 25
-15 15 0 14 20 -1 21 -7 0 -5 4 5 7 15 6 12 9 -13 19 -27 10 -30 10 -20 -3z"/>
<path d="M7286 10945 c4 -8 8 -15 10 -15 2 0 4 7 4 15 0 8 -4 15 -10 15 -5 0
-7 -7 -4 -15z"/>
<path d="M7310 10940 c0 -22 1 -23 24 -14 23 9 20 34 -4 34 -13 0 -20 -7 -20
-20z"/>
<path d="M4440 10930 c-9 -6 -10 -10 -3 -10 6 0 15 5 18 10 8 12 4 12 -15 0z"/>
<path d="M4360 10900 c-8 -5 -10 -10 -5 -10 6 0 17 5 25 10 8 5 11 10 5 10 -5
0 -17 -5 -25 -10z"/>
<path d="M7301 10894 c0 -11 3 -14 6 -6 3 7 2 16 -1 19 -3 4 -6 -2 -5 -13z"/>
<path d="M4282 10873 c-24 -8 -41 -17 -39 -19 4 -5 97 26 97 32 0 6 -11 4 -58
-13z"/>
<path d="M1368 10873 c7 -3 16 -2 19 1 4 3 -2 6 -13 5 -11 0 -14 -3 -6 -6z"/>
<path d="M7365 10870 c-3 -6 1 -7 9 -4 18 7 21 14 7 14 -6 0 -13 -4 -16 -10z"/>
<path d="M8205 10870 c-3 -5 -2 -10 4 -10 5 0 13 5 16 10 3 6 2 10 -4 10 -5 0
-13 -4 -16 -10z"/>
<path d="M7390 10853 c-13 -15 -12 -16 4 -10 10 4 20 7 22 7 2 0 4 5 4 10 0
15 -13 12 -30 -7z"/>
<path d="M4200 10840 c-8 -5 -10 -10 -5 -10 6 0 17 5 25 10 8 5 11 10 5 10 -5
0 -17 -5 -25 -10z"/>
<path d="M5944 10843 c11 -11 99 -43 116 -42 8 0 -3 7 -25 16 -59 22 -99 33
-91 26z"/>
<path d="M4125 10811 c-22 -11 -35 -19 -30 -19 14 -1 93 36 80 37 -5 0 -28 -8
-50 -18z"/>
<path d="M7340 10813 c0 -15 19 -37 26 -31 3 4 -1 14 -10 23 -9 9 -16 13 -16
8z"/>
<path d="M5650 10803 c-8 -3 -33 -18 -55 -32 -45 -29 -47 -30 -167 -102 -49
-29 -86 -54 -84 -56 2 -3 18 3 35 12 18 9 37 13 43 9 7 -4 8 -3 4 4 -4 7 9 21
32 34 21 13 47 29 57 35 46 29 115 61 115 52 0 -5 12 -9 26 -9 14 0 23 -4 19
-10 -3 -5 -2 -10 3 -10 5 0 7 -13 4 -29 -3 -22 1 -32 17 -40 12 -7 21 -16 21
-21 0 -17 -18 -11 -40 13 l-22 22 4 -25 c2 -18 8 -24 22 -22 17 3 18 2 7 -12
-12 -14 -11 -16 5 -9 10 3 28 12 39 19 13 9 25 10 35 4 13 -8 12 -10 -3 -10
-16 0 -16 -2 -1 -25 19 -29 50 -41 68 -26 9 7 16 7 26 -2 10 -9 11 -9 6 1 -8
14 10 17 19 2 3 -5 12 -7 20 -4 8 4 12 10 9 15 -3 5 9 9 26 9 18 0 29 4 25 10
-7 11 7 13 73 10 24 -1 49 3 56 9 7 6 22 9 34 6 12 -2 22 0 22 6 0 5 -9 9 -20
9 -29 0 -25 25 5 28 17 1 25 -3 25 -13 0 -9 7 -18 15 -21 8 -4 15 -12 15 -20
0 -17 17 -18 23 -1 4 8 8 8 14 2 9 -11 69 -17 92 -9 11 3 11 7 1 19 -12 14 -7
20 15 15 5 -1 7 2 3 6 -11 11 -71 12 -85 1 -7 -5 -17 -6 -24 -2 -6 4 -14 2
-18 -4 -10 -16 -41 -3 -41 18 0 14 2 14 10 1 8 -12 10 -12 15 2 6 15 17 16 73
11 37 -3 72 -10 79 -15 18 -14 36 0 20 16 -27 27 -62 38 -185 56 -70 11 -203
31 -297 45 -93 14 -181 27 -195 29 -14 3 -32 2 -40 -1z m441 -138 c5 4 9 -1 9
-9 0 -22 -19 -30 -26 -11 -6 13 -8 14 -15 3 -7 -10 -9 -10 -9 3 0 8 6 21 13
28 10 10 13 9 15 -4 2 -8 8 -13 13 -10z m-117 -10 c-4 -8 -8 -15 -10 -15 -2 0
-4 7 -4 15 0 8 4 15 10 15 5 0 7 -7 4 -15z m36 1 c0 -3 -4 -8 -10 -11 -5 -3
-10 -1 -10 4 0 6 5 11 10 11 6 0 10 -2 10 -4z"/>
<path d="M6082 10795 c8 -9 149 -47 154 -42 2 2 -29 14 -70 25 -77 23 -93 26
-84 17z"/>
<path d="M7257 10785 c6 -17 25 -15 31 3 2 7 -5 12 -17 12 -14 0 -19 -5 -14
-15z"/>
<path d="M1045 10740 c-13 -6 -15 -9 -5 -9 8 0 22 4 30 9 18 12 2 12 -25 0z"/>
<path d="M6310 10731 c0 -5 12 -11 27 -14 26 -5 26 -4 8 9 -22 16 -35 18 -35
5z"/>
<path d="M975 10720 c-13 -5 -14 -9 -5 -9 8 0 24 4 35 9 13 5 14 9 5 9 -8 0
-24 -4 -35 -9z"/>
<path d="M3760 10674 l-25 -15 25 7 c28 7 35 12 29 18 -2 2 -15 -2 -29 -10z"/>
<path d="M840 10670 c-18 -12 -2 -12 25 0 13 6 15 9 5 9 -8 0 -22 -4 -30 -9z"/>
<path d="M3685 10645 c-25 -12 -26 -14 -5 -9 28 7 60 23 45 23 -5 0 -23 -6
-40 -14z"/>
<path d="M6155 10610 c-3 -5 -1 -10 4 -10 6 0 11 5 11 10 0 6 -2 10 -4 10 -3
0 -8 -4 -11 -10z"/>
<path d="M5725 10600 c-3 -5 -1 -10 4 -10 6 0 11 5 11 10 0 6 -2 10 -4 10 -3
0 -8 -4 -11 -10z"/>
<path d="M5985 10600 c-3 -5 -1 -10 4 -10 6 0 11 5 11 10 0 6 -2 10 -4 10 -3
0 -8 -4 -11 -10z"/>
<path d="M6105 10600 c-3 -6 1 -7 9 -4 18 7 21 14 7 14 -6 0 -13 -4 -16 -10z"/>
<path d="M5305 10590 c-3 -6 1 -7 9 -4 18 7 21 14 7 14 -6 0 -13 -4 -16 -10z"/>
<path d="M5630 10580 c0 -11 7 -20 15 -20 8 0 15 9 15 20 0 11 -7 20 -15 20
-8 0 -15 -9 -15 -20z"/>
<path d="M480 10570 c-18 -12 -2 -12 25 0 13 6 15 9 5 9 -8 0 -22 -4 -30 -9z"/>
<path d="M174 10534 c-18 -14 -18 -15 4 -4 12 6 22 13 22 15 0 8 -5 6 -26 -11z"/>
<path d="M405 10540 c-3 -6 1 -7 9 -4 18 7 21 14 7 14 -6 0 -13 -4 -16 -10z"/>
<path d="M228 10493 c-10 -2 -18 -9 -18 -14 0 -12 3 -12 36 6 28 14 19 18 -18
8z"/>
<path d="M135 10470 c-27 -7 -27 -8 -5 -8 14 0 36 4 50 8 20 6 21 8 5 8 -11 0
-33 -4 -50 -8z"/>
<path d="M2819 10307 c5 -5 21 -7 37 -5 27 3 26 4 -8 9 -22 3 -34 1 -29 -4z"/>
<path d="M2975 10290 c-9 -15 23 -24 39 -11 16 13 42 6 50 -15 6 -16 44 -18
66 -4 13 8 13 10 -1 10 -9 0 -30 7 -45 15 -33 17 -100 20 -109 5z"/>
<path d="M4345 10026 c-11 -7 -40 -25 -63 -40 -55 -35 -49 -43 9 -13 72 38
114 46 177 37 102 -15 165 -30 178 -41 8 -6 23 -9 34 -6 11 3 33 1 48 -3 15
-5 52 -14 82 -21 30 -6 60 -15 65 -19 16 -12 72 -19 195 -26 63 -3 119 -8 123
-11 5 -3 7 -13 4 -23 -2 -10 -1 -24 4 -31 6 -9 9 3 9 34 0 43 -3 49 -32 67
-17 10 -57 22 -87 25 -31 3 -105 12 -166 20 -211 28 -518 65 -539 64 -12 0
-30 -6 -41 -13z"/>
<path d="M4365 9980 c3 -5 8 -10 11 -10 2 0 4 5 4 10 0 6 -5 10 -11 10 -5 0
-7 -4 -4 -10z"/>
<path d="M4210 9940 c0 -5 5 -10 10 -10 6 0 10 5 10 10 0 6 -4 10 -10 10 -5 0
-10 -4 -10 -10z"/>
<path d="M4785 9930 c-3 -5 -1 -10 4 -10 6 0 11 5 11 10 0 6 -2 10 -4 10 -3 0
-8 -4 -11 -10z"/>
<path d="M4180 9919 c0 -5 5 -7 10 -4 6 3 10 8 10 11 0 2 -4 4 -10 4 -5 0 -10
-5 -10 -11z"/>
<path d="M0 9851 c0 -5 30 -16 68 -25 143 -36 538 -149 673 -192 77 -25 150
-44 162 -42 39 6 -369 134 -743 232 -144 38 -160 41 -160 27z"/>
<path d="M1082 9663 c-24 -8 -41 -17 -39 -19 4 -5 97 26 97 32 0 6 -11 4 -58
-13z"/>
<path d="M780 9554 c-36 -13 -78 -31 -95 -38 -27 -13 -130 -50 -355 -127 -47
-16 -94 -33 -105 -38 -11 -5 -49 -19 -85 -32 -92 -32 -133 -50 -128 -54 4 -4
62 13 133 39 22 8 83 30 135 49 52 19 165 61 250 92 85 32 191 71 235 87 44
16 84 33 90 39 14 14 -2 10 -75 -17z"/>
<path d="M3240 9356 c-51 -28 -241 -136 -480 -273 -139 -80 -262 -143 -284
-147 -22 -4 -95 -41 -163 -82 -67 -41 -124 -74 -126 -74 -2 0 -44 -23 -93 -52
-49 -28 -152 -87 -229 -131 -202 -114 -275 -157 -316 -184 -19 -12 -38 -23
-42 -23 -16 0 -97 -57 -91 -63 4 -4 -2 -7 -14 -7 -28 0 -128 -56 -124 -70 1
-6 -2 -9 -8 -5 -5 3 -22 -2 -38 -12 -15 -10 -44 -28 -64 -38 -21 -11 -38 -23
-38 -27 0 -5 -8 -8 -18 -8 -10 0 -33 -14 -50 -31 -18 -17 -32 -28 -32 -24 0 3
-7 -1 -16 -9 -8 -9 -24 -16 -35 -16 -10 0 -19 -5 -19 -11 0 -17 -53 -60 -67
-55 -6 3 -13 2 -15 -2 -6 -13 -87 -62 -103 -62 -8 0 -15 -3 -15 -7 0 -5 -26
-21 -58 -38 -58 -31 -74 -44 -66 -56 2 -4 -4 -5 -14 -2 -10 2 -29 -7 -45 -21
-16 -14 -37 -26 -48 -26 -10 0 -19 -4 -19 -10 0 -5 -8 -10 -18 -10 -10 0 -25
-9 -35 -20 -9 -11 -24 -20 -33 -20 -10 0 -32 -11 -50 -25 -18 -14 -37 -25 -42
-25 -5 0 -15 -7 -22 -15 -7 -8 -19 -15 -27 -15 -7 0 -26 -11 -41 -25 -15 -14
-32 -23 -37 -21 -6 2 -17 -4 -25 -12 -13 -14 -12 -15 2 -9 9 3 19 1 22 -6 5
-9 7 -9 12 1 3 6 16 12 28 12 12 0 28 -6 35 -12 11 -10 13 -10 7 0 -4 7 -1 12
8 12 8 0 20 -8 25 -17 9 -16 10 -16 11 4 0 12 -6 28 -14 36 -9 9 -11 19 -5 28
7 12 9 11 9 -2 0 -27 27 -44 45 -29 12 10 19 10 27 2 7 -7 35 -12 63 -12 27 0
45 4 39 8 -9 5 -8 11 2 20 12 10 14 10 14 -3 0 -19 17 -19 37 0 14 14 17 14
32 1 11 -10 21 -12 33 -5 21 12 56 0 36 -13 -8 -5 -2 -6 17 -2 17 4 32 10 35
13 9 12 202 13 195 1 -3 -5 -2 -10 4 -10 5 0 11 4 13 9 2 5 29 5 63 0 42 -5
62 -4 67 3 3 7 27 13 53 13 30 1 42 -1 33 -7 -8 -6 3 -7 30 -3 36 6 46 4 61
-14 22 -25 31 -27 31 -6 0 8 6 15 13 16 53 3 118 0 138 -6 20 -7 21 -6 8 7 -8
8 -21 17 -29 21 -10 4 -8 6 7 6 12 1 24 -3 28 -9 10 -16 69 -6 87 15 10 12 17
15 18 8 0 -7 -5 -13 -12 -13 -6 0 -9 -2 -7 -5 12 -11 77 17 87 38 7 12 14 48
15 79 2 32 6 60 8 63 3 2 21 5 42 7 37 2 53 18 20 18 -15 0 -16 2 -3 10 10 6
11 10 2 10 -7 0 -4 8 8 20 27 27 42 25 34 -4 -3 -14 -1 -33 5 -43 9 -15 10
-13 6 12 -8 44 6 60 41 47 26 -9 26 -11 7 -11 -24 -1 -30 -24 -14 -50 10 -15
81 -23 81 -9 0 4 -8 8 -17 9 -15 0 -15 2 2 9 l20 9 -20 1 -20 1 20 9 20 9 -20
1 c-14 2 -11 4 9 9 16 3 31 12 34 20 3 10 0 12 -12 8 -23 -9 -20 14 4 41 25
27 25 32 -1 32 -11 0 -18 -4 -14 -9 3 -5 1 -12 -3 -15 -5 -3 -15 6 -22 19 -7
13 -17 22 -22 19 -4 -3 -8 4 -8 16 0 12 5 18 10 15 6 -3 10 1 10 10 0 9 -4 14
-9 11 -5 -3 -11 0 -14 7 -3 8 3 13 14 13 11 0 19 -7 19 -16 0 -13 2 -13 9 0 6
8 24 14 45 13 20 -1 34 3 31 7 -3 5 1 11 7 14 7 3 0 3 -17 0 -23 -4 -27 -3
-15 5 13 10 13 12 0 21 -21 14 5 13 31 0 13 -7 19 -7 19 0 0 5 -7 10 -15 10
-12 0 -13 4 -3 25 9 21 18 25 53 25 36 0 41 3 40 20 -1 12 -9 30 -18 41 -16
18 -16 21 -2 35 8 9 15 24 15 35 0 10 6 19 13 19 8 0 7 4 -3 10 -13 9 -13 11
0 20 12 8 10 10 -10 11 -14 1 -35 1 -47 0 -12 -1 -24 2 -26 6 -3 5 12 8 34 8
21 0 39 4 38 10 0 5 8 12 18 16 17 7 17 8 -1 8 -13 1 -17 6 -13 21 3 13 -1 24
-14 30 -10 6 -19 16 -19 22 0 6 8 4 18 -5 10 -10 22 -17 25 -17 10 0 4 24 -8
33 -6 4 -4 11 5 17 8 5 12 10 8 10 -18 0 12 45 33 51 19 6 17 7 -14 8 -24 1
-36 -3 -32 -9 7 -12 -23 -65 -32 -56 -3 3 0 12 7 21 7 8 9 15 6 15 -4 0 -2 9
4 20 6 11 21 20 34 20 15 0 30 10 41 26 15 23 22 26 58 21 29 -4 36 -3 22 3
l-20 9 20 1 c17 2 16 3 -5 10 -18 6 -20 8 -7 9 10 1 15 6 12 11 -3 6 0 13 9
16 9 3 12 12 9 22 -5 14 -3 15 8 5 21 -20 56 -15 84 12 29 30 31 35 8 35 -9 0
-13 -3 -10 -7 10 -9 -23 -43 -42 -42 -10 0 -7 4 8 10 14 5 21 15 18 23 -9 23
21 27 85 11 33 -9 65 -14 71 -11 7 2 4 5 -6 5 -11 1 -15 6 -11 12 4 8 -3 9
-22 5 -16 -3 -36 -1 -44 4 -11 8 -8 9 13 4 17 -4 27 -2 27 5 0 6 -7 11 -16 11
-14 0 -14 3 -4 15 15 18 34 20 24 3 -5 -8 -2 -9 10 -5 10 4 20 7 22 7 2 0 4 8
4 18 0 13 2 14 9 3 5 -7 13 -11 19 -7 5 3 23 -1 40 -9 27 -14 30 -19 25 -53
-5 -35 -3 -38 34 -55 61 -26 83 -23 83 13 0 21 5 30 16 30 11 0 14 5 10 16 -3
9 -6 18 -6 20 0 2 -7 4 -15 4 -8 0 -12 6 -9 14 4 11 0 13 -15 9 -12 -3 -21
-13 -22 -22 0 -12 -2 -11 -8 4 -6 15 -3 21 13 27 20 6 20 6 1 8 -17 2 -16 3 5
9 17 5 26 16 30 36 5 28 6 29 59 26 30 -1 104 -11 165 -22 61 -10 221 -37 356
-59 135 -22 273 -44 306 -50 34 -5 73 -10 88 -10 14 0 26 -5 26 -11 0 -5 4 -8
8 -5 5 3 51 -2 103 -10 116 -19 204 -31 289 -39 36 -4 80 -11 98 -17 19 -5 50
-12 70 -13 21 -2 73 -8 117 -14 44 -6 123 -15 175 -21 52 -5 124 -14 160 -20
62 -10 257 -35 365 -46 75 -8 91 -10 205 -23 58 -7 123 -14 145 -16 94 -6 184
-18 181 -24 -2 -3 25 -6 60 -5 35 0 64 -3 64 -7 0 -4 28 -5 62 -4 34 2 57 0
51 -3 -7 -4 25 -7 70 -7 45 1 107 -3 137 -7 30 -5 122 -11 204 -14 82 -3 153
-7 158 -10 4 -3 5 3 1 13 -13 36 -38 50 -93 51 -30 1 -100 7 -155 12 -55 5
-181 16 -280 25 -99 8 -223 19 -275 25 -52 5 -169 17 -260 25 -91 9 -226 22
-300 30 -74 8 -202 22 -285 30 -146 15 -459 49 -540 60 -22 2 -134 16 -250 30
-115 14 -239 30 -275 35 -36 6 -225 35 -420 65 -535 82 -570 89 -567 100 2 5
28 24 58 41 371 213 609 354 594 354 -6 0 -21 -6 -35 -14z m-745 -466 c15 -6
9 -9 -25 -9 -34 0 -40 3 -25 9 11 5 22 9 25 9 3 0 14 -4 25 -9z m-18 -36 c-3
-3 -12 -4 -19 -1 -8 3 -5 6 6 6 11 1 17 -2 13 -5z m113 -90 c0 -8 -5 -12 -10
-9 -6 4 -8 11 -5 16 9 14 15 11 15 -7z m-498 -95 c-12 -5 -27 -17 -34 -29 -8
-12 -23 -20 -38 -19 -17 1 -19 3 -7 6 18 5 23 18 10 26 -5 2 -2 2 5 1 19 -5
42 7 42 21 0 9 8 11 22 7 l22 -5 -22 -8z m-135 -104 c0 -8 -6 -15 -12 -15 -6
0 -12 7 -12 15 0 8 6 15 12 15 6 0 12 -7 12 -15z m-156 -52 c13 -16 12 -17 -3
-4 -10 7 -18 15 -18 17 0 8 8 3 21 -13z m159 7 c0 -5 -9 -10 -20 -10 -11 0
-20 5 -20 10 0 6 9 10 20 10 11 0 20 -4 20 -10z m-124 -37 c-11 -11 -17 4 -9
23 7 18 8 18 11 1 2 -10 1 -21 -2 -24z m-76 7 c0 -5 -5 -10 -11 -10 -5 0 -7 5
-4 10 3 6 8 10 11 10 2 0 4 -4 4 -10z m197 -6 c-3 -3 -12 -4 -19 -1 -8 3 -5 6
6 6 11 1 17 -2 13 -5z m-125 -82 c-12 -8 -72 -4 -72 4 0 2 19 4 43 4 25 0 37
-4 29 -8z m151 -39 c-7 -2 -19 -2 -25 0 -7 3 -2 5 12 5 14 0 19 -2 13 -5z
m-23 -17 c0 -11 -19 -15 -25 -6 -3 5 1 10 9 10 9 0 16 -2 16 -4z m-363 -12
c-3 -3 -12 -4 -19 -1 -8 3 -5 6 6 6 11 1 17 -2 13 -5z m336 -29 c-7 -21 -13
-19 -13 6 0 11 4 18 10 14 5 -3 7 -12 3 -20z m57 17 c0 -5 -9 -17 -20 -27 -11
-10 -20 -13 -20 -7 0 6 5 14 10 17 6 4 8 11 5 16 -4 5 1 9 9 9 9 0 16 -4 16
-8z m-270 -37 c-7 -8 -17 -15 -23 -15 -6 0 -2 7 9 15 25 19 30 19 14 0z m234
-44 c-6 -6 -24 19 -24 34 1 6 7 1 15 -9 8 -11 12 -22 9 -25z m-211 -28 c-13
-2 -33 -2 -45 0 -13 2 -3 4 22 4 25 0 35 -2 23 -4z m0 -20 c-13 -2 -33 -2 -45
0 -13 2 -3 4 22 4 25 0 35 -2 23 -4z m167 -3 c0 -5 -4 -10 -10 -10 -5 0 -10 5
-10 10 0 6 5 10 10 10 6 0 10 -4 10 -10z m-25 -30 c-3 -5 -12 -10 -18 -10 -7
0 -6 4 3 10 19 12 23 12 15 0z m-175 -22 c0 -7 -5 -6 -13 1 -11 8 -14 5 -14
-19 0 -24 3 -27 14 -19 7 6 13 8 13 4 0 -4 -8 -14 -17 -22 -16 -12 -12 -13 32
-11 l50 2 1 -34 c2 -56 -3 -68 -31 -62 -19 3 -25 0 -26 -14 0 -11 -3 -14 -6
-6 -2 6 -10 12 -17 12 -7 0 -13 7 -13 15 0 8 7 15 14 15 8 0 11 -4 8 -10 -3
-5 -1 -10 4 -10 6 0 11 5 11 11 0 6 7 9 15 6 8 -4 17 -1 21 4 4 8 -10 10 -45
8 -28 -2 -51 -1 -51 4 0 4 24 8 53 9 l52 1 -55 7 c-56 6 -50 12 20 24 14 2 0
2 -30 1 -30 -2 -48 0 -40 3 11 5 15 20 14 47 0 22 1 43 3 47 5 10 33 -2 33
-14z m17 -30 c-3 -7 -5 -2 -5 12 0 14 2 19 5 13 2 -7 2 -19 0 -25z m29 12 c0
-11 -4 -20 -8 -20 -4 0 -8 9 -8 20 0 11 4 20 8 20 4 0 8 -9 8 -20z m58 -185
c4 -10 -1 -15 -14 -15 -13 0 -18 5 -14 15 4 8 10 15 14 15 4 0 10 -7 14 -15z
m-27 -51 c-3 -3 -12 -4 -19 -1 -8 3 -5 6 6 6 11 1 17 -2 13 -5z m0 -20 c-3 -3
-12 -4 -19 -1 -8 3 -5 6 6 6 11 1 17 -2 13 -5z m-1344 -141 c-7 -2 -21 -2 -30
0 -10 3 -4 5 12 5 17 0 24 -2 18 -5z"/>
<path d="M3308 9363 c7 -3 16 -2 19 1 4 3 -2 6 -13 5 -11 0 -14 -3 -6 -6z"/>
<path d="M30 9220 c-9 -6 -10 -10 -3 -10 6 0 15 5 18 10 8 12 4 12 -15 0z"/>
<path d="M2626 8898 c3 -5 10 -6 15 -3 13 9 11 12 -6 12 -8 0 -12 -4 -9 -9z"/>
<path d="M370 8788 c-58 -27 -159 -75 -225 -105 -66 -30 -124 -59 -130 -64
-12 -12 42 11 262 115 90 42 167 76 172 76 5 0 14 7 21 15 16 20 21 21 -100
-37z"/>
<path d="M2384 8824 c-19 -15 -19 -15 1 -6 11 5 27 12 35 15 13 5 13 6 -1 6
-8 1 -24 -6 -35 -15z"/>
<path d="M2282 8760 c-7 -11 -9 -20 -4 -20 4 0 13 9 20 20 7 11 9 20 4 20 -4
0 -13 -9 -20 -20z"/>
<path d="M2328 8763 c7 -3 16 -2 19 1 4 3 -2 6 -13 5 -11 0 -14 -3 -6 -6z"/>
<path d="M3056 8735 c-11 -8 -18 -15 -15 -16 2 0 12 -2 22 -4 11 -2 17 3 17
16 0 22 0 22 -24 4z"/>
<path d="M2178 8703 c12 -2 32 -2 45 0 12 2 2 4 -23 4 -25 0 -35 -2 -22 -4z"/>
<path d="M2074 8628 c-3 -5 -3 -12 0 -17 8 -12 46 -2 46 11 0 6 9 8 20 5 11
-3 20 -1 20 4 0 10 -80 7 -86 -3z"/>
<path d="M3665 8630 c-3 -5 1 -10 10 -10 9 0 13 5 10 10 -3 6 -8 10 -10 10 -2
0 -7 -4 -10 -10z"/>
<path d="M4454 8589 c-9 -15 5 -25 43 -32 26 -5 35 -2 43 12 7 15 6 20 -6 25
-25 10 -72 7 -80 -5z"/>
<path d="M4581 8571 c-9 -16 -6 -20 15 -25 31 -8 44 -1 44 25 0 24 -17 25 -23
2 -4 -17 -5 -17 -6 0 -1 23 -18 22 -30 -2z"/>
<path d="M2030 8573 c0 -14 19 -38 25 -32 8 8 -5 39 -16 39 -5 0 -9 -3 -9 -7z"/>
<path d="M2060 8576 c0 -2 7 -7 16 -10 8 -3 12 -2 9 4 -6 10 -25 14 -25 6z"/>
<path d="M3230 8570 c0 -5 7 -10 15 -10 8 0 15 5 15 10 0 6 -7 10 -15 10 -8 0
-15 -4 -15 -10z"/>
<path d="M3340 8550 c0 -5 5 -10 10 -10 6 0 10 5 10 10 0 6 -4 10 -10 10 -5 0
-10 -4 -10 -10z"/>
<path d="M3440 8540 c0 -5 5 -10 11 -10 5 0 7 5 4 10 -3 6 -8 10 -11 10 -2 0
-4 -4 -4 -10z"/>
<path d="M2040 8520 c0 -5 9 -10 20 -10 11 0 20 5 20 10 0 6 -9 10 -20 10 -11
0 -20 -4 -20 -10z"/>
<path d="M2040 8484 c0 -8 5 -12 10 -9 6 3 10 10 10 16 0 5 -4 9 -10 9 -5 0
-10 -7 -10 -16z"/>
<path d="M2172 8460 c0 -14 2 -19 5 -12 2 6 2 18 0 25 -3 6 -5 1 -5 -13z"/>
<path d="M2192 8450 c0 -19 2 -27 5 -17 2 9 2 25 0 35 -3 9 -5 1 -5 -18z"/>
<path d="M3230 8470 c0 -5 5 -10 10 -10 6 0 10 5 10 10 0 6 -4 10 -10 10 -5 0
-10 -4 -10 -10z"/>
<path d="M2058 8453 c7 -3 16 -2 19 1 4 3 -2 6 -13 5 -11 0 -14 -3 -6 -6z"/>
<path d="M3313 8445 c0 -8 2 -15 4 -15 3 0 11 7 19 15 14 13 13 15 -4 15 -10
0 -19 -7 -19 -15z"/>
<path d="M5355 8440 c-3 -5 -1 -10 4 -10 6 0 11 5 11 10 0 6 -2 10 -4 10 -3 0
-8 -4 -11 -10z"/>
<path d="M2212 8410 c0 -19 2 -27 5 -17 2 9 2 25 0 35 -3 9 -5 1 -5 -18z"/>
<path d="M3415 8430 c-3 -5 1 -10 9 -10 9 0 16 5 16 10 0 6 -4 10 -9 10 -6 0
-13 -4 -16 -10z"/>
<path d="M2076 8391 c-19 -7 -19 -8 0 -15 11 -4 20 -3 22 3 5 15 39 14 45 -1
2 -7 8 -10 12 -6 23 22 -35 36 -79 19z"/>
<path d="M5870 8389 c0 -5 5 -7 10 -4 6 3 10 8 10 11 0 2 -4 4 -10 4 -5 0 -10
-5 -10 -11z"/>
<path d="M2221 8354 c0 -11 3 -14 6 -6 3 7 2 16 -1 19 -3 4 -6 -2 -5 -13z"/>
<path d="M2171 8323 c-1 -27 24 -31 33 -7 5 14 4 15 -8 5 -11 -10 -15 -8 -19
6 -4 14 -5 13 -6 -4z"/>
<path d="M2045 8303 c-36 -4 -54 -16 -55 -35 0 -3 21 -8 48 -10 45 -3 47 -2
47 25 0 15 0 26 0 25 0 -1 -18 -3 -40 -5z"/>
<path d="M2356 8267 c3 -10 9 -15 12 -12 3 3 0 11 -7 18 -10 9 -11 8 -5 -6z"/>
<path d="M2335 8240 c-3 -5 -1 -10 4 -10 6 0 11 5 11 10 0 6 -2 10 -4 10 -3 0
-8 -4 -11 -10z"/>
<path d="M2528 8243 c7 -3 16 -2 19 1 4 3 -2 6 -13 5 -11 0 -14 -3 -6 -6z"/>
<path d="M2248 8223 c7 -3 16 -2 19 1 4 3 -2 6 -13 5 -11 0 -14 -3 -6 -6z"/>
<path d="M2330 8180 c-9 -6 -10 -10 -3 -10 6 0 15 5 18 10 8 12 4 12 -15 0z"/>
<path d="M1994 8139 c-3 -6 -2 -15 3 -20 5 -5 9 -1 9 11 0 23 -2 24 -12 9z"/>
<path d="M2021 8134 c0 -11 3 -14 6 -6 3 7 2 16 -1 19 -3 4 -6 -2 -5 -13z"/>
<path d="M1950 8130 c0 -5 5 -10 10 -10 6 0 10 5 10 10 0 6 -4 10 -10 10 -5 0
-10 -4 -10 -10z"/>
<path d="M2550 8130 c-9 -6 -10 -10 -3 -10 6 0 15 5 18 10 8 12 4 12 -15 0z"/>
<path d="M2360 8121 c0 -5 9 -13 20 -16 11 -3 20 -11 20 -16 0 -5 -13 -3 -30
6 -32 17 -66 21 -41 6 11 -7 6 -12 -20 -19 -28 -8 -30 -10 -10 -11 24 -1 24
-1 5 -15 -15 -12 -16 -17 -7 -27 15 -15 20 -11 25 21 3 25 15 40 32 40 4 0 5
-7 2 -16 -5 -14 -4 -15 8 -5 8 7 20 10 25 7 5 -4 12 -2 15 3 4 5 22 8 41 7 22
-2 36 2 39 11 8 19 -17 27 -64 20 -22 -3 -40 -1 -40 4 0 5 -4 9 -10 9 -5 0
-10 -4 -10 -9z m103 -18 c-13 -2 -33 -2 -45 0 -13 2 -3 4 22 4 25 0 35 -2 23
-4z"/>
<path d="M2041 8104 c0 -11 3 -14 6 -6 3 7 2 16 -1 19 -3 4 -6 -2 -5 -13z"/>
<path d="M2581 8104 c0 -11 3 -14 6 -6 3 7 2 16 -1 19 -3 4 -6 -2 -5 -13z"/>
<path d="M2611 8104 c0 -11 3 -14 6 -6 3 7 2 16 -1 19 -3 4 -6 -2 -5 -13z"/>
<path d="M2178 8103 c12 -2 32 -2 45 0 12 2 2 4 -23 4 -25 0 -35 -2 -22 -4z"/>
<path d="M2518 8103 c6 -2 18 -2 25 0 6 3 1 5 -13 5 -14 0 -19 -2 -12 -5z"/>
<path d="M1995 8091 c-3 -5 -2 -12 3 -15 5 -3 9 1 9 9 0 17 -3 19 -12 6z"/>
<path d="M2504 8065 c4 -14 2 -25 -3 -25 -5 0 -11 8 -13 18 -3 9 -4 -2 -4 -25
0 -24 4 -43 9 -43 4 0 6 3 3 8 -2 4 2 16 10 27 15 20 15 20 26 0 11 -19 11
-19 20 0 7 18 8 18 4 -2 -4 -21 0 -23 40 -23 37 0 44 3 44 20 0 17 -7 20 -39
20 -29 0 -41 5 -44 18 -4 16 -5 16 -6 0 0 -10 -5 -18 -11 -18 -13 0 -13 6 1
33 9 20 9 20 -4 5 -17 -22 -31 -23 -23 -3 3 8 1 15 -5 15 -7 0 -9 -10 -5 -25z"/>
<path d="M2076 8065 c-3 -8 -12 -15 -21 -15 -8 0 -15 -5 -15 -10 0 -12 21 -3
55 24 17 13 17 15 4 16 -9 0 -19 -7 -23 -15z"/>
<path d="M2005 8060 l-20 -9 20 0 c11 0 27 4 35 9 13 9 13 10 0 9 -8 0 -24 -4
-35 -9z"/>
<path d="M2138 8053 c7 -3 16 -2 19 1 4 3 -2 6 -13 5 -11 0 -14 -3 -6 -6z"/>
<path d="M1821 8024 c0 -11 3 -14 6 -6 3 7 2 16 -1 19 -3 4 -6 -2 -5 -13z"/>
<path d="M2068 8023 c6 -2 18 -2 25 0 6 3 1 5 -13 5 -14 0 -19 -2 -12 -5z"/>
<path d="M1915 7999 c-4 -6 -5 -12 -2 -15 2 -3 7 2 10 11 7 17 1 20 -8 4z"/>
<path d="M2057 7989 c4 -13 8 -18 11 -10 2 7 -1 18 -6 23 -8 8 -9 4 -5 -13z"/>
<path d="M2315 7995 c31 -9 35 -13 20 -16 -14 -4 -6 -8 23 -13 39 -7 43 -11
39 -32 -2 -14 1 -25 10 -28 22 -9 30 -7 14 3 -9 6 -4 8 17 7 17 -1 37 -7 44
-14 6 -6 17 -12 24 -12 7 0 14 -6 17 -12 3 -10 7 -10 17 -1 7 6 20 9 29 6 14
-4 14 -3 1 6 -12 8 -6 11 26 11 42 0 66 21 42 36 -6 4 -8 3 -5 -3 9 -14 -10
-20 -48 -17 -49 4 -51 5 -30 14 19 8 19 9 -2 9 -13 1 -23 -4 -23 -10 0 -5 -4
-7 -10 -4 -5 3 -10 1 -10 -4 0 -6 -4 -11 -10 -11 -5 0 -7 7 -4 15 4 8 2 15 -4
15 -6 0 -14 15 -18 33 l-7 32 -10 -25 -10 -25 -6 25 -7 25 -7 -25 -7 -25 -14
24 c-11 21 -22 24 -72 26 l-59 3 40 -13z m78 -22 c-7 -2 -19 -2 -25 0 -7 3 -2
5 12 5 14 0 19 -2 13 -5z m157 -73 c0 -5 -4 -10 -10 -10 -5 0 -10 5 -10 10 0
6 5 10 10 10 6 0 10 -4 10 -10z"/>
<path d="M2510 7999 c0 -5 5 -7 10 -4 6 3 10 1 10 -4 0 -6 -10 -11 -22 -11
-12 0 -19 -3 -15 -6 3 -4 23 -3 43 1 l37 6 -28 15 c-33 17 -35 17 -35 3z"/>
<path d="M2005 7980 c-3 -6 1 -7 9 -4 18 7 21 14 7 14 -6 0 -13 -4 -16 -10z"/>
<path d="M2042 7960 c0 -19 2 -27 5 -17 2 9 2 25 0 35 -3 9 -5 1 -5 -18z"/>
<path d="M2643 7966 c7 -14 15 -26 20 -26 13 0 7 17 -13 35 -19 17 -19 17 -7
-9z"/>
<path d="M2540 7960 c-13 -8 -12 -10 3 -10 9 0 17 5 17 10 0 12 -1 12 -20 0z"/>
<path d="M2328 7953 c7 -3 16 -2 19 1 4 3 -2 6 -13 5 -11 0 -14 -3 -6 -6z"/>
<path d="M2490 7956 c0 -2 7 -6 15 -10 8 -3 15 -1 15 4 0 6 -7 10 -15 10 -8 0
-15 -2 -15 -4z"/>
<path d="M2020 7930 c0 -11 4 -20 9 -20 5 0 7 9 4 20 -3 11 -7 20 -9 20 -2 0
-4 -9 -4 -20z"/>
<path d="M2074 7923 c3 -18 36 -32 36 -16 0 12 118 14 125 3 8 -13 25 -13 25
1 0 5 -4 7 -10 4 -5 -3 -10 1 -10 9 0 13 -15 16 -84 16 -75 0 -84 -2 -82 -17z"/>
<path d="M1955 7920 c-3 -5 -1 -10 4 -10 6 0 11 5 11 10 0 6 -2 10 -4 10 -3 0
-8 -4 -11 -10z"/>
<path d="M2310 7906 c0 -9 5 -16 10 -16 6 0 10 4 10 9 0 6 -4 13 -10 16 -5 3
-10 -1 -10 -9z"/>
<path d="M2423 7897 c-18 -6 -33 -14 -33 -18 0 -10 46 -17 75 -11 31 6 33 22
3 22 -19 0 -20 2 -8 10 18 12 6 11 -37 -3z m27 -17 c0 -5 -4 -10 -10 -10 -5 0
-10 5 -10 10 0 6 5 10 10 10 6 0 10 -4 10 -10z"/>
<path d="M2150 7886 c12 -16 40 -11 40 6 0 6 -6 5 -15 -2 -10 -9 -15 -9 -15
-1 0 6 -5 11 -11 11 -8 0 -8 -4 1 -14z"/>
<path d="M2210 7893 c0 -16 25 -23 41 -11 11 8 11 9 -2 5 -9 -3 -22 0 -28 6
-8 8 -11 8 -11 0z"/>
<path d="M2278 7893 c7 -3 16 -2 19 1 4 3 -2 6 -13 5 -11 0 -14 -3 -6 -6z"/>
<path d="M1906 7881 c-4 -7 -5 -15 -2 -18 9 -9 19 4 14 18 -4 11 -6 11 -12 0z"/>
<path d="M2608 7883 c7 -3 16 -2 19 1 4 3 -2 6 -13 5 -11 0 -14 -3 -6 -6z"/>
<path d="M3060 7880 c0 -5 5 -10 10 -10 6 0 10 5 10 10 0 6 -4 10 -10 10 -5 0
-10 -4 -10 -10z"/>
<path d="M2100 7863 c-13 -15 -12 -16 4 -10 10 4 20 7 22 7 2 0 4 5 4 10 0 15
-13 12 -30 -7z"/>
<path d="M2290 7865 c0 -8 -5 -15 -11 -15 -5 0 -7 -4 -4 -10 3 -5 14 -10 23
-9 10 0 12 3 5 6 -9 3 -10 10 -3 24 7 13 7 19 0 19 -5 0 -10 -7 -10 -15z"/>
<path d="M580 7860 c-13 -8 -13 -10 2 -10 9 0 20 5 23 10 8 13 -5 13 -25 0z"/>
<path d="M2258 7863 c7 -3 16 -2 19 1 4 3 -2 6 -13 5 -11 0 -14 -3 -6 -6z"/>
<path d="M2315 7860 c-3 -5 -1 -10 4 -10 6 0 11 5 11 10 0 6 -2 10 -4 10 -3 0
-8 -4 -11 -10z"/>
<path d="M2578 7863 c7 -3 16 -2 19 1 4 3 -2 6 -13 5 -11 0 -14 -3 -6 -6z"/>
<path d="M2400 7850 c-9 -6 -9 -9 1 -13 10 -4 7 -8 -8 -12 -13 -4 -23 -12 -23
-17 0 -6 11 -3 25 6 13 9 31 16 39 16 8 0 16 6 18 12 4 10 9 8 21 -3 9 -9 13
-19 10 -23 -4 -3 9 -4 28 -1 26 4 28 3 9 -3 -17 -5 -21 -10 -12 -16 6 -4 22 0
34 8 12 9 18 16 13 16 -6 0 -2 7 9 15 17 13 15 14 -24 9 -24 -3 -50 -2 -59 2
-24 11 -67 13 -81 4z"/>
<path d="M2025 7842 c3 -3 19 -7 36 -8 17 -1 28 0 25 3 -3 3 -19 7 -36 8 -17
2 -28 0 -25 -3z"/>
<path d="M2140 7841 c0 -7 -7 -11 -14 -8 -10 4 -13 1 -9 -9 5 -14 7 -14 21 0
9 9 13 19 9 22 -4 4 -7 2 -7 -5z"/>
<path d="M2207 7843 c-3 -5 6 -9 20 -10 19 -1 22 1 12 8 -17 11 -26 11 -32 2z"/>
<path d="M2598 7843 c6 -2 18 -2 25 0 6 3 1 5 -13 5 -14 0 -19 -2 -12 -5z"/>
<path d="M1792 7814 c-11 -12 -10 -17 3 -30 9 -9 19 -13 23 -10 3 4 0 12 -8
17 -11 8 -12 12 -2 16 13 5 17 23 5 23 -5 -1 -14 -7 -21 -16z"/>
<path d="M2171 7825 c0 -13 28 -50 33 -44 3 2 -4 15 -14 29 -11 14 -20 21 -19
15z"/>
<path d="M2314 7818 c-4 -7 -3 -8 4 -4 7 4 12 2 12 -3 0 -6 5 -11 10 -11 6 0
10 7 10 15 0 18 -26 20 -36 3z"/>
<path d="M2575 7821 c-3 -5 3 -12 12 -14 14 -4 13 -5 -4 -6 -12 0 -25 -5 -28
-11 -3 -6 1 -7 9 -4 9 3 16 1 16 -5 0 -6 5 -11 10 -11 6 0 10 7 10 15 0 9 9
15 23 15 18 0 19 -2 7 -10 -9 -6 -10 -10 -3 -10 20 0 25 20 6 26 -10 3 -26 10
-35 15 -10 5 -19 5 -23 0z"/>
<path d="M2660 7819 c0 -5 5 -7 10 -4 6 3 10 8 10 11 0 2 -4 4 -10 4 -5 0 -10
-5 -10 -11z"/>
<path d="M2438 7813 c7 -3 16 -2 19 1 4 3 -2 6 -13 5 -11 0 -14 -3 -6 -6z"/>
<path d="M2221 7802 c-1 -7 11 -17 25 -22 32 -12 34 -12 34 0 0 6 -11 10 -24
10 -13 0 -27 6 -29 13 -4 9 -6 9 -6 -1z"/>
<path d="M2015 7781 c12 -12 16 -12 29 1 13 13 11 15 -14 14 -25 -1 -27 -3
-15 -15z"/>
<path d="M2077 7793 c-11 -11 -8 -21 9 -27 13 -5 14 -4 6 7 -7 8 -9 17 -5 20
3 4 4 7 1 7 -2 0 -8 -3 -11 -7z"/>
<path d="M2105 7790 c3 -5 8 -10 11 -10 2 0 4 5 4 10 0 6 -5 10 -11 10 -5 0
-7 -4 -4 -10z"/>
<path d="M2397 7793 c-9 -8 2 -23 16 -23 7 0 6 4 -3 10 -12 8 -11 10 6 10 11
0 25 -5 31 -11 7 -7 19 -9 29 -5 9 4 14 10 10 13 -9 10 -81 14 -89 6z"/>
<path d="M2315 7770 c27 -12 43 -12 25 0 -8 5 -22 9 -30 9 -10 0 -8 -3 5 -9z"/>
<path d="M1627 7763 c-4 -3 -7 -11 -7 -17 0 -6 5 -5 12 2 6 6 9 14 7 17 -3 3
-9 2 -12 -2z"/>
<path d="M1773 7754 c-3 -8 -9 -11 -14 -8 -5 3 -9 1 -9 -5 0 -19 19 -21 30 -4
9 15 10 13 5 -12 -4 -20 -3 -25 4 -16 5 7 13 11 19 7 15 -9 42 4 42 20 0 8 5
14 10 14 6 0 10 -7 10 -15 0 -8 5 -15 10 -15 6 0 10 7 10 15 0 8 5 15 10 15 6
0 10 -7 10 -15 0 -8 5 -15 10 -15 6 0 10 7 10 15 0 8 5 15 10 15 6 0 10 -7 10
-15 0 -8 5 -15 10 -15 6 0 10 7 10 15 0 20 17 19 23 0 4 -11 4 -10 3 2 -1 16
-12 18 -83 17 -45 0 -80 2 -78 5 1 3 -10 6 -27 7 -17 1 -32 -5 -35 -12z m57
-18 c0 -3 -4 -8 -10 -11 -5 -3 -10 -1 -10 4 0 6 5 11 10 11 6 0 10 -2 10 -4z"/>
<path d="M2366 7762 c-3 -5 1 -9 9 -9 8 0 15 4 15 9 0 4 -4 8 -9 8 -6 0 -12
-4 -15 -8z"/>
<path d="M2220 7750 c0 -5 7 -10 15 -10 8 0 15 5 15 10 0 6 -7 10 -15 10 -8 0
-15 -4 -15 -10z"/>
<path d="M2285 7750 c-3 -5 -1 -10 4 -10 6 0 11 5 11 10 0 6 -2 10 -4 10 -3 0
-8 -4 -11 -10z"/>
<path d="M2328 7743 c7 -3 16 -2 19 1 4 3 -2 6 -13 5 -11 0 -14 -3 -6 -6z"/>
<path d="M264 7694 c-18 -14 -18 -15 4 -4 12 6 22 13 22 15 0 8 -5 6 -26 -11z"/>
<path d="M197 7659 c-22 -11 -37 -23 -34 -26 7 -7 77 27 77 38 0 11 2 12 -43
-12z"/>
<path d="M77 7589 c-38 -23 -67 -43 -64 -45 4 -5 114 59 131 76 18 18 2 11
-67 -31z"/>
<path d="M1068 7623 c7 -3 16 -2 19 1 4 3 -2 6 -13 5 -11 0 -14 -3 -6 -6z"/>
<path d="M152 7566 c0 -11 2 -16 6 -10 4 6 14 13 22 16 11 3 9 6 -6 10 -15 4
-20 0 -22 -16z"/>
<path d="M235 7580 c3 -5 8 -10 11 -10 2 0 4 5 4 10 0 6 -5 10 -11 10 -5 0 -7
-4 -4 -10z"/>
<path d="M85 7560 c-3 -6 1 -7 9 -4 18 7 21 14 7 14 -6 0 -13 -4 -16 -10z"/>
<path d="M0 7170 c0 -19 7 -38 17 -46 17 -13 17 -14 -1 -7 -14 4 -17 3 -12 -6
5 -8 20 -9 43 -5 23 4 34 3 30 -3 -7 -11 48 -23 128 -28 28 -2 56 -3 64 -4 7
-1 11 -7 8 -15 -4 -10 -1 -13 7 -10 8 3 17 1 21 -5 3 -6 11 -11 17 -11 7 0 6
6 -2 15 -10 13 -9 15 9 15 32 0 61 -18 62 -38 0 -10 3 -12 6 -4 2 6 9 9 15 6
5 -3 15 1 21 9 17 20 57 29 50 11 -3 -9 0 -12 9 -9 8 3 27 -6 42 -20 15 -14
32 -25 39 -25 8 0 8 3 -1 9 -10 6 -8 10 10 14 12 4 32 6 43 6 17 -1 16 -2 -5
-9 -22 -7 -20 -8 11 -7 25 1 35 6 32 15 -6 14 13 16 22 2 10 -17 25 -11 25 9
0 17 6 19 40 16 22 -2 42 0 45 5 3 4 21 4 40 0 29 -7 35 -5 35 9 0 39 -68 77
-155 86 -33 4 -76 8 -95 10 -19 2 -138 11 -265 20 -126 8 -258 18 -292 21
l-63 6 0 -32z m100 -35 c0 -8 -2 -15 -4 -15 -2 0 -6 7 -10 15 -3 8 -1 15 4 15
6 0 10 -7 10 -15z m475 -105 c3 -5 1 -10 -4 -10 -6 0 -11 5 -11 10 0 6 2 10 4
10 3 0 8 -4 11 -10z m52 4 c-3 -3 -12 -4 -19 -1 -8 3 -5 6 6 6 11 1 17 -2 13
-5z"/>
<path d="M0 7079 c0 -5 5 -7 10 -4 5 3 10 8 10 11 0 2 -4 4 -10 4 -5 0 -10 -5
-10 -11z"/>
<path d="M40 7080 c0 -5 5 -10 10 -10 6 0 10 5 10 10 0 6 -4 10 -10 10 -5 0
-10 -4 -10 -10z"/>
<path d="M84 7028 c-14 -23 -12 -46 4 -40 10 3 13 1 8 -6 -4 -7 -2 -12 3 -12
16 0 14 11 -6 32 -11 13 -12 18 -3 18 7 0 21 -10 32 -22 16 -19 17 -23 3 -30
-20 -12 -20 -78 1 -104 15 -18 15 -18 5 3 -14 28 -14 93 -1 93 6 0 10 -19 10
-42 0 -56 7 -45 12 17 2 41 -1 55 -21 78 -27 30 -36 33 -47 15z"/>
<path d="M345 7029 c-7 -11 26 -41 35 -32 3 3 -1 8 -8 10 -10 4 -10 8 -1 19 9
11 8 14 -4 14 -9 0 -19 -5 -22 -11z"/>
<path d="M495 7021 c-3 -5 -1 -12 5 -16 5 -3 10 1 10 9 0 18 -6 21 -15 7z"/>
<path d="M40 7000 c0 -5 5 -10 10 -10 6 0 10 5 10 10 0 6 -4 10 -10 10 -5 0
-10 -4 -10 -10z"/>
<path d="M448 7003 c6 -2 18 -2 25 0 6 3 1 5 -13 5 -14 0 -19 -2 -12 -5z"/>
<path d="M691 6974 c0 -11 3 -14 6 -6 3 7 2 16 -1 19 -3 4 -6 -2 -5 -13z"/>
<path d="M35 6960 c-17 -7 -15 -9 15 -18 22 -6 27 -11 15 -11 -18 -2 -18 -3
-4 -14 9 -7 16 -16 17 -20 0 -5 3 -11 6 -14 3 -4 6 12 6 34 0 44 -17 57 -55
43z"/>
<path d="M496 6951 c-14 -5 -16 -10 -8 -15 7 -4 19 0 28 8 17 17 11 19 -20 7z"/>
<path d="M249 6942 c11 -8 11 -10 0 -15 -10 -4 -8 -6 4 -6 21 -1 18 21 -4 27
-12 3 -12 2 0 -6z"/>
<path d="M720 6940 c0 -5 5 -10 10 -10 6 0 10 5 10 10 0 6 -4 10 -10 10 -5 0
-10 -4 -10 -10z"/>
<path d="M538 6933 c7 -3 16 -2 19 1 4 3 -2 6 -13 5 -11 0 -14 -3 -6 -6z"/>
<path d="M160 6890 c0 -5 18 -10 40 -10 22 0 40 -4 40 -8 0 -5 7 -9 15 -9 8 0
15 7 15 15 0 8 -6 12 -15 8 -8 -3 -15 -1 -15 4 0 6 -18 10 -40 10 -22 0 -40
-4 -40 -10z"/>
<path d="M153 6851 c0 -11 5 -17 9 -15 5 3 6 9 3 14 -3 5 7 11 22 13 27 4 27
4 -4 6 -26 1 -31 -3 -30 -18z"/>
<path d="M23 6843 c15 -2 37 -2 50 0 12 2 0 4 -28 4 -27 0 -38 -2 -22 -4z"/>
<path d="M398 525 c-2 -3 -32 -7 -67 -10 -34 -2 -66 -7 -71 -10 -4 -3 -27 -6
-50 -7 -22 -1 -43 -4 -45 -8 -4 -6 -90 -13 -147 -12 -17 1 -18 -17 -18 -239
l0 -239 332 2 333 3 2 52 c2 37 -1 53 -10 53 -8 0 -7 4 3 10 8 5 10 10 5 10
-6 0 -16 9 -23 21 -8 12 -9 18 -4 15 5 -3 12 4 15 16 7 24 -3 41 -10 21 -3 -7
-11 -13 -19 -13 -8 0 -14 -7 -14 -15 0 -18 -16 -20 -24 -2 -3 8 -9 7 -20 -7
-17 -21 -36 -13 -36 15 0 11 -4 17 -10 14 -6 -4 -10 6 -11 22 -1 26 -2 26 -10
-7 -4 -19 -6 -43 -3 -52 7 -23 -19 -24 -37 -1 -13 15 -12 15 11 3 22 -12 24
-12 12 2 -7 9 -10 22 -6 31 3 8 1 18 -5 22 -6 3 -11 -2 -12 -12 -1 -13 -3 -11
-9 7 -7 23 -8 23 -10 -10 -2 -33 -3 -33 -10 -10 -6 18 -8 20 -9 7 -1 -10 -6
-15 -11 -12 -6 4 -8 15 -5 26 9 27 -4 24 -15 -4 -9 -19 -10 -18 -7 10 2 18 0
30 -5 27 -4 -3 -8 -15 -9 -27 0 -21 -1 -21 -9 -2 -8 19 -9 19 -9 1 -1 -18 -2
-18 -18 1 -10 11 -25 22 -33 26 -10 4 -8 6 7 6 12 1 24 -5 26 -11 3 -8 6 -6 6
5 1 11 -6 17 -21 17 -13 0 -18 3 -12 8 6 4 14 14 17 22 4 12 6 11 6 -3 1 -10
5 -16 10 -12 5 3 12 -3 14 -12 2 -10 3 -6 1 9 -2 15 1 30 6 33 6 3 10 -1 10
-9 0 -10 6 -13 15 -10 8 4 15 12 15 20 0 14 12 16 103 18 20 0 37 4 37 7 0 4
7 10 16 13 11 4 15 2 11 -7 -4 -11 2 -13 26 -8 17 4 32 12 33 19 1 7 0 8 -3 2
-2 -5 -14 -10 -26 -9 -21 0 -21 1 -2 9 11 5 16 9 12 9 -5 1 -1 8 7 17 21 21
20 35 -4 41 -11 3 -20 10 -20 17 -1 15 -88 78 -100 71 -5 -3 -11 -1 -15 5 -4
6 -10 8 -15 5 -5 -3 -19 -1 -33 4 -14 5 -27 8 -29 6z m142 -389 c0 -2 -7 -7
-16 -10 -8 -3 -12 -2 -9 4 6 10 25 14 25 6z"/>
<path d="M637 291 c-2 -10 -1 -25 4 -32 6 -10 9 -4 9 19 0 36 -5 42 -13 13z"/>
<path d="M546 206 c-4 -21 -5 -40 -2 -43 7 -8 18 42 14 64 -3 11 -7 3 -12 -21z"/>
<path d="M570 200 c0 -5 5 -10 10 -10 6 0 10 5 10 10 0 6 -4 10 -10 10 -5 0
-10 -4 -10 -10z"/>
</g>
</svg>
