<?xml version="1.0" encoding="UTF-8"?>
<!DOCTYPE svg PUBLIC "-//W3C//DTD SVG 1.1//EN" "http://www.w3.org/Graphics/SVG/1.1/DTD/svg11.dtd">
<svg xmlns="http://www.w3.org/2000/svg" version="1.1" width="318px" height="159px" style="shape-rendering:geometricPrecision; text-rendering:geometricPrecision; image-rendering:optimizeQuality; fill-rule:evenodd; clip-rule:evenodd" xmlns:xlink="http://www.w3.org/1999/xlink">
<g><path style="opacity:1" fill="#fde000" d="M -0.5,-0.5 C 76.5,-0.5 153.5,-0.5 230.5,-0.5C 229.134,2.42098 228.301,5.42098 228,8.5C 232.687,10.3397 237.52,11.673 242.5,12.5C 247.547,14.7673 252.88,16.434 258.5,17.5C 259.227,20.2227 258.727,22.8894 257,25.5C 254.689,33.4836 255.189,41.1502 258.5,48.5C 256.219,36.9746 257.553,25.9746 262.5,15.5C 264.192,13.7952 265.525,11.7952 266.5,9.5C 267.167,9.5 267.5,9.16667 267.5,8.5C 268.833,7.83333 269.833,6.83333 270.5,5.5C 273.841,3.49674 277.175,1.49674 280.5,-0.5C 291.5,-0.5 302.5,-0.5 313.5,-0.5C 314.436,0.974395 315.77,1.97439 317.5,2.5C 317.5,11.8333 317.5,21.1667 317.5,30.5C 314.833,32.5 312.5,34.8333 310.5,37.5C 306.833,40.5 303.5,43.8333 300.5,47.5C 299.5,47.8333 298.833,48.5 298.5,49.5C 297.167,50.1667 296.167,51.1667 295.5,52.5C 294.167,53.1667 293.167,54.1667 292.5,55.5C 289.492,58.8132 290.158,61.1466 294.5,62.5C 296.807,64.0468 299.473,64.7135 302.5,64.5C 305.527,64.7135 308.193,64.0468 310.5,62.5C 312.153,62.3404 313.486,61.6737 314.5,60.5C 315.609,60.4431 316.609,60.1098 317.5,59.5C 317.5,62.8333 317.5,66.1667 317.5,69.5C 312.786,72.0167 307.786,73.8501 302.5,75C 307.73,74.9823 312.73,73.8156 317.5,71.5C 317.5,100.5 317.5,129.5 317.5,158.5C 211.5,158.5 105.5,158.5 -0.5,158.5C -0.5,105.5 -0.5,52.5 -0.5,-0.5 Z"/></g>
<g><path style="opacity:1" fill="#f1d800" d="M 231.5,-0.5 C 232.833,-0.5 234.167,-0.5 235.5,-0.5C 236.607,1.96892 238.607,2.96892 241.5,2.5C 248.615,5.20354 255.948,7.53688 263.5,9.5C 264.494,11.8543 263.494,12.8543 260.5,12.5C 253.846,10.1706 247.179,7.83728 240.5,5.5C 239.081,6.00475 238.415,7.00475 238.5,8.5C 229.844,10.5066 227.51,7.50658 231.5,-0.5 Z"/></g>
<g><path style="opacity:1" fill="#d0cfcd" d="M 236.5,-0.5 C 239.833,-0.5 243.167,-0.5 246.5,-0.5C 252.473,2.26687 258.806,4.26687 265.5,5.5C 266.551,6.22235 267.218,7.22235 267.5,8.5C 267.5,9.16667 267.167,9.5 266.5,9.5C 265.5,9.5 264.5,9.5 263.5,9.5C 255.948,7.53688 248.615,5.20354 241.5,2.5C 239.739,1.68729 238.072,0.687286 236.5,-0.5 Z"/></g>
<g><path style="opacity:1" fill="#aaa399" d="M 269.5,-0.5 C 273.167,-0.5 276.833,-0.5 280.5,-0.5C 277.175,1.49674 273.841,3.49674 270.5,5.5C 269.833,5.5 269.5,5.16667 269.5,4.5C 269.5,2.83333 269.5,1.16667 269.5,-0.5 Z"/></g>
<g><path style="opacity:1" fill="#564e36" d="M 235.5,-0.5 C 235.833,-0.5 236.167,-0.5 236.5,-0.5C 238.072,0.687286 239.739,1.68729 241.5,2.5C 238.607,2.96892 236.607,1.96892 235.5,-0.5 Z"/></g>
<g><path style="opacity:1" fill="#86780c" d="M 313.5,-0.5 C 314.833,-0.5 316.167,-0.5 317.5,-0.5C 317.5,0.5 317.5,1.5 317.5,2.5C 315.77,1.97439 314.436,0.974395 313.5,-0.5 Z"/></g>
<g><path style="opacity:1" fill="#a84d84" d="M 246.5,-0.5 C 251.833,-0.5 257.167,-0.5 262.5,-0.5C 262.5,0.5 262.5,1.5 262.5,2.5C 263.5,2.5 264.5,2.5 265.5,2.5C 265.5,1.5 265.5,0.5 265.5,-0.5C 266.833,-0.5 268.167,-0.5 269.5,-0.5C 269.5,1.16667 269.5,2.83333 269.5,4.5C 268.292,5.23411 266.959,5.56745 265.5,5.5C 258.806,4.26687 252.473,2.26687 246.5,-0.5 Z"/></g>
<g><path style="opacity:1" fill="#dedfdf" d="M 262.5,-0.5 C 263.5,-0.5 264.5,-0.5 265.5,-0.5C 265.5,0.5 265.5,1.5 265.5,2.5C 264.5,2.5 263.5,2.5 262.5,2.5C 262.5,1.5 262.5,0.5 262.5,-0.5 Z"/></g>
<g><path style="opacity:1" fill="#3c2e37" d="M 269.5,4.5 C 269.5,5.16667 269.833,5.5 270.5,5.5C 269.833,6.83333 268.833,7.83333 267.5,8.5C 267.218,7.22235 266.551,6.22235 265.5,5.5C 266.959,5.56745 268.292,5.23411 269.5,4.5 Z"/></g>
<g><path style="opacity:1" fill="#65591c" d="M 230.5,-0.5 C 230.833,-0.5 231.167,-0.5 231.5,-0.5C 227.51,7.50658 229.844,10.5066 238.5,8.5C 238.369,9.23891 238.536,9.90558 239,10.5C 240.302,11.0848 241.469,11.7515 242.5,12.5C 237.52,11.673 232.687,10.3397 228,8.5C 228.301,5.42098 229.134,2.42098 230.5,-0.5 Z"/></g>
<g><path style="opacity:1" fill="#c5c4c2" d="M 260.5,12.5 C 261.551,13.2223 262.218,14.2223 262.5,15.5C 261.395,16.6005 260.062,17.2671 258.5,17.5C 252.88,16.434 247.547,14.7673 242.5,12.5C 241.469,11.7515 240.302,11.0848 239,10.5C 238.536,9.90558 238.369,9.23891 238.5,8.5C 238.415,7.00475 239.081,6.00475 240.5,5.5C 247.179,7.83728 253.846,10.1706 260.5,12.5 Z"/></g>
<g><path style="opacity:1" fill="#524f4a" d="M 299.5,8.5 C 296.659,8.55975 293.993,9.22642 291.5,10.5C 292.641,8.9124 294.141,7.57907 296,6.5C 297.302,7.0848 298.469,7.75147 299.5,8.5 Z"/></g>
<g><path style="opacity:1" fill="#d9d8d6" d="M 299.5,8.5 C 301.553,8.40206 303.22,9.06873 304.5,10.5C 305.833,12.5 307.5,14.1667 309.5,15.5C 313.087,18.6952 314.254,22.6952 313,27.5C 311.961,28.7101 310.794,29.7101 309.5,30.5C 308.829,27.2423 307.996,23.9089 307,20.5C 305.89,18.9632 304.39,18.2965 302.5,18.5C 302.703,16.6096 302.037,15.1096 300.5,14C 297.031,13.4646 294.031,12.2979 291.5,10.5C 293.993,9.22642 296.659,8.55975 299.5,8.5 Z"/></g>
<g><path style="opacity:1" fill="#5f532d" d="M 304.5,10.5 C 307.167,11.1667 308.833,12.8333 309.5,15.5C 307.5,14.1667 305.833,12.5 304.5,10.5 Z"/></g>
<g><path style="opacity:1" fill="#423b1c" d="M 263.5,9.5 C 264.5,9.5 265.5,9.5 266.5,9.5C 265.525,11.7952 264.192,13.7952 262.5,15.5C 262.218,14.2223 261.551,13.2223 260.5,12.5C 263.494,12.8543 264.494,11.8543 263.5,9.5 Z"/></g>
<g><path style="opacity:1" fill="#0c0805" d="M 291.5,10.5 C 294.031,12.2979 297.031,13.4646 300.5,14C 302.037,15.1096 302.703,16.6096 302.5,18.5C 304.39,18.2965 305.89,18.9632 307,20.5C 307.996,23.9089 308.829,27.2423 309.5,30.5C 298.666,31.0513 291.999,25.718 289.5,14.5C 289.668,12.8295 290.335,11.4961 291.5,10.5 Z"/></g>
<g><path style="opacity:1" fill="#3a3832" d="M 93.5,27.5 C 93.7022,25.0108 93.2022,22.6775 92,20.5C 91.2303,19.4019 90.397,19.4019 89.5,20.5C 89.6043,18.0272 90.6043,17.3606 92.5,18.5C 93.6368,20.6068 94.6368,22.7735 95.5,25C 95.3613,26.301 94.6946,27.1344 93.5,27.5 Z"/></g>
<g><path style="opacity:1" fill="#e5e5e6" d="M 93.5,27.5 C 89.218,27.8929 87.5513,26.2262 88.5,22.5C 88.3284,21.5084 88.6618,20.8417 89.5,20.5C 90.397,19.4019 91.2303,19.4019 92,20.5C 93.2022,22.6775 93.7022,25.0108 93.5,27.5 Z"/></g>
<g><path style="opacity:1" fill="#312b18" d="M 88.5,22.5 C 87.5513,26.2262 89.218,27.8929 93.5,27.5C 90.351,29.2285 88.0176,28.3952 86.5,25C 86.6387,23.699 87.3054,22.8656 88.5,22.5 Z"/></g>
<g><path style="opacity:1" fill="#170000" d="M 47.5,26.5 C 47.5,27.1667 47.1667,27.5 46.5,27.5C 45.1667,27.5 43.8333,27.5 42.5,27.5C 42.5,29.1667 42.5,30.8333 42.5,32.5C 43.8333,32.5 45.1667,32.5 46.5,32.5C 47.1667,32.5 47.5,32.8333 47.5,33.5C 45.5,33.5 43.5,33.5 41.5,33.5C 41.5,31.1667 41.5,28.8333 41.5,26.5C 43.5,26.5 45.5,26.5 47.5,26.5 Z"/></g>
<g><path style="opacity:1" fill="#fe5f00" d="M 46.5,27.5 C 46.5,29.1667 46.5,30.8333 46.5,32.5C 45.1667,32.5 43.8333,32.5 42.5,32.5C 42.5,30.8333 42.5,29.1667 42.5,27.5C 43.8333,27.5 45.1667,27.5 46.5,27.5 Z"/></g>
<g><path style="opacity:1" fill="#864301" d="M 47.5,26.5 C 48.8333,28.8333 48.8333,31.1667 47.5,33.5C 47.5,32.8333 47.1667,32.5 46.5,32.5C 46.5,30.8333 46.5,29.1667 46.5,27.5C 47.1667,27.5 47.5,27.1667 47.5,26.5 Z"/></g>
<g><path style="opacity:1" fill="#5d5433" d="M 279.5,30.5 C 275.838,30.0339 272.505,30.7006 269.5,32.5C 269.67,31.1779 269.337,30.0113 268.5,29C 270.107,29.0187 271.774,29.1854 273.5,29.5C 273.833,25.5 274.167,25.5 274.5,29.5C 276.415,29.2155 278.081,29.5489 279.5,30.5 Z"/></g>
<g><path style="opacity:1" fill="#ececec" d="M 279.5,30.5 C 279.833,30.5 280.167,30.5 280.5,30.5C 280.973,31.9063 281.973,32.573 283.5,32.5C 284.833,34.5 286.5,36.1667 288.5,37.5C 290.143,41.3005 290.81,45.3005 290.5,49.5C 290.167,50.5 289.5,51.1667 288.5,51.5C 287.859,48.1095 286.692,44.7761 285,41.5C 281.833,41 280,39.1667 279.5,36C 276.15,34.5137 272.816,33.347 269.5,32.5C 272.505,30.7006 275.838,30.0339 279.5,30.5 Z"/></g>
<g><path style="opacity:1" fill="#4f472a" d="M 280.5,30.5 C 282.027,30.427 283.027,31.0937 283.5,32.5C 281.973,32.573 280.973,31.9063 280.5,30.5 Z"/></g>
<g><path style="opacity:1" fill="#5f5434" d="M 283.5,32.5 C 286.167,33.1667 287.833,34.8333 288.5,37.5C 286.5,36.1667 284.833,34.5 283.5,32.5 Z"/></g>
<g><path style="opacity:1" fill="#0b0806" d="M 269.5,32.5 C 272.816,33.347 276.15,34.5137 279.5,36C 280,39.1667 281.833,41 285,41.5C 286.692,44.7761 287.859,48.1095 288.5,51.5C 281.281,53.2499 275.448,50.9166 271,44.5C 269.557,40.8765 268.057,37.3765 266.5,34C 267.527,33.4867 268.527,32.9867 269.5,32.5 Z"/></g>
<g><path style="opacity:1" fill="#808081" d="M 317.5,30.5 C 317.5,32.5 317.5,34.5 317.5,36.5C 316.417,36.4606 315.417,36.1272 314.5,35.5C 313.378,36.6302 312.044,37.2969 310.5,37.5C 312.5,34.8333 314.833,32.5 317.5,30.5 Z"/></g>
<g><path style="opacity:1" fill="#5c584f" d="M 288.5,37.5 C 289.79,38.0577 290.623,39.0577 291,40.5C 291.805,43.6965 291.638,46.6965 290.5,49.5C 290.81,45.3005 290.143,41.3005 288.5,37.5 Z"/></g>
<g><path style="opacity:1" fill="#685c09" d="M 294.5,34.5 C 295.434,35.5676 295.768,36.901 295.5,38.5C 296.873,38.3433 298.207,38.51 299.5,39C 295.024,40.0997 293.358,38.5997 294.5,34.5 Z"/></g>
<g><path style="opacity:1" fill="#241e18" d="M 39.5,43.5 C 38.8333,43.5 38.1667,43.5 37.5,43.5C 38.1667,39.5 38.8333,39.5 39.5,43.5 Z"/></g>
<g><path style="opacity:1" fill="#8440d8" d="M 37.5,43.5 C 38.1667,43.5 38.8333,43.5 39.5,43.5C 40.3382,43.8417 40.6716,44.5084 40.5,45.5C 40.9731,46.9063 41.9731,47.573 43.5,47.5C 42.5,48.8333 41.5,50.1667 40.5,51.5C 39.6618,51.8417 39.3284,52.5084 39.5,53.5C 38.8333,53.5 38.1667,53.5 37.5,53.5C 37.573,51.9731 36.9063,50.9731 35.5,50.5C 34.8333,49.5 34.1667,48.5 33.5,47.5C 35.8333,47.1667 37.1667,45.8333 37.5,43.5 Z"/></g>
<g><path style="opacity:1" fill="#746709" d="M 262.5,15.5 C 257.553,25.9746 256.219,36.9746 258.5,48.5C 255.189,41.1502 254.689,33.4836 257,25.5C 258.727,22.8894 259.227,20.2227 258.5,17.5C 260.062,17.2671 261.395,16.6005 262.5,15.5 Z"/></g>
<g><path style="opacity:1" fill="#2b1b27" d="M 37.5,43.5 C 37.1667,45.8333 35.8333,47.1667 33.5,47.5C 34.5,45.8333 35.8333,44.5 37.5,43.5 Z"/></g>
<g><path style="opacity:1" fill="#f1f1f1" d="M 317.5,36.5 C 317.5,42.8333 317.5,49.1667 317.5,55.5C 313.536,52.0371 309.702,48.3705 306,44.5C 305.333,45.1667 305.333,45.8333 306,46.5C 309.333,49.8333 312.667,53.1667 316,56.5C 316.3,58.0657 315.8,59.399 314.5,60.5C 313.448,60.6495 312.448,60.4828 311.5,60C 307.23,56.2385 303.563,52.0719 300.5,47.5C 303.5,43.8333 306.833,40.5 310.5,37.5C 312.044,37.2969 313.378,36.6302 314.5,35.5C 315.417,36.1272 316.417,36.4606 317.5,36.5 Z"/></g>
<g><path style="opacity:1" fill="#5a595a" d="M 310.5,39.5 C 312.296,40.7927 313.963,42.2927 315.5,44C 312.814,43.8228 311.148,42.3228 310.5,39.5 Z"/></g>
<g><path style="opacity:1" fill="#54524e" d="M 317.5,55.5 C 317.5,56.8333 317.5,58.1667 317.5,59.5C 316.609,60.1098 315.609,60.4431 314.5,60.5C 315.8,59.399 316.3,58.0657 316,56.5C 312.667,53.1667 309.333,49.8333 306,46.5C 305.333,45.8333 305.333,45.1667 306,44.5C 309.702,48.3705 313.536,52.0371 317.5,55.5 Z"/></g>
<g><path style="opacity:1" fill="#2a2119" d="M 40.5,45.5 C 42.0269,45.427 43.0269,46.0937 43.5,47.5C 41.9731,47.573 40.9731,46.9063 40.5,45.5 Z"/></g>
<g><path style="opacity:1" fill="#23191d" d="M 33.5,47.5 C 34.1667,48.5 34.8333,49.5 35.5,50.5C 33.6883,50.2287 32.0217,49.562 30.5,48.5C 31.325,47.6143 32.325,47.281 33.5,47.5 Z"/></g>
<g><path style="opacity:1" fill="#ae9b02" d="M 104.5,49.5 C 101.167,49.5 97.8333,49.5 94.5,49.5C 94.5,50.5 94.5,51.5 94.5,52.5C 93.5655,51.4324 93.2322,50.099 93.5,48.5C 97.3714,48.185 101.038,48.5184 104.5,49.5 Z"/></g>
<g><path style="opacity:1" fill="#a79403" d="M 111.5,49.5 C 115.97,48.5139 120.637,48.1805 125.5,48.5C 125.906,51.7188 125.906,54.7188 125.5,57.5C 120.944,55.5583 115.944,54.8917 110.5,55.5C 113.962,54.5184 117.629,54.185 121.5,54.5C 122.5,54.5 123.5,54.5 124.5,54.5C 124.5,52.8333 124.5,51.1667 124.5,49.5C 120.167,49.5 115.833,49.5 111.5,49.5 Z"/></g>
<g><path style="opacity:1" fill="#040306" d="M 210.5,48.5 C 213.059,48.3896 215.392,49.0562 217.5,50.5C 214.167,51.8333 210.833,51.8333 207.5,50.5C 208.602,49.8243 209.602,49.1577 210.5,48.5 Z"/></g>
<g><path style="opacity:1" fill="#0a0806" d="M 104.5,49.5 C 104.5,50.5 104.5,51.5 104.5,52.5C 103.167,52.5 101.833,52.5 100.5,52.5C 100.338,54.5273 100.505,56.5273 101,58.5C 104.292,59.3899 104.959,61.0566 103,63.5C 100.553,60.9557 98.0532,60.9557 95.5,63.5C 94.914,63.2907 94.414,62.9574 94,62.5C 94.1927,60.8126 95.1927,59.4792 97,58.5C 97.4955,56.5273 97.6621,54.5273 97.5,52.5C 96.5,52.5 95.5,52.5 94.5,52.5C 94.5,51.5 94.5,50.5 94.5,49.5C 97.8333,49.5 101.167,49.5 104.5,49.5 Z"/></g>
<g><path style="opacity:1" fill="#000004" d="M 105.5,49.5 C 106.5,49.5 107.5,49.5 108.5,49.5C 108.5,54.1667 108.5,58.8333 108.5,63.5C 107.5,63.5 106.5,63.5 105.5,63.5C 105.5,58.8333 105.5,54.1667 105.5,49.5 Z"/></g>
<g><path style="opacity:1" fill="#1b170b" d="M 111.5,49.5 C 115.833,49.5 120.167,49.5 124.5,49.5C 124.5,51.1667 124.5,52.8333 124.5,54.5C 123.5,54.5 122.5,54.5 121.5,54.5C 118.663,52.5977 115.329,51.931 111.5,52.5C 111.5,51.5 111.5,50.5 111.5,49.5 Z"/></g>
<g><path style="opacity:1" fill="#0b0805" d="M 139.5,49.5 C 141.833,49.5 144.167,49.5 146.5,49.5C 146.5,51.1667 146.5,52.8333 146.5,54.5C 145.5,54.5 144.5,54.5 143.5,54.5C 143.5,53.5 143.5,52.5 143.5,51.5C 142.167,51.5 140.833,51.5 139.5,51.5C 139.5,50.8333 139.5,50.1667 139.5,49.5 Z"/></g>
<g><path style="opacity:1" fill="#110d06" d="M 153.5,49.5 C 156.5,49.5 159.5,49.5 162.5,49.5C 162.5,54.1667 162.5,58.8333 162.5,63.5C 161.167,63.5 159.833,63.5 158.5,63.5C 158.5,59.8333 158.5,56.1667 158.5,52.5C 156.833,52.5 155.167,52.5 153.5,52.5C 153.5,51.5 153.5,50.5 153.5,49.5 Z"/></g>
<g><path style="opacity:1" fill="#0e0b06" d="M 167.5,49.5 C 168.167,56.1667 168.833,56.1667 169.5,49.5C 171.492,49.3285 173.158,49.9951 174.5,51.5C 175.524,50.1468 176.857,49.4802 178.5,49.5C 179.029,53.3506 178.362,56.8506 176.5,60C 177.448,60.4828 178.448,60.6495 179.5,60.5C 179.5,61.5 179.5,62.5 179.5,63.5C 176.167,63.5 172.833,63.5 169.5,63.5C 169.5,62.5 169.5,61.5 169.5,60.5C 170.552,60.6495 171.552,60.4828 172.5,60C 170.924,59.5604 169.59,58.727 168.5,57.5C 167.534,59.396 167.201,61.396 167.5,63.5C 166.5,63.5 165.5,63.5 164.5,63.5C 164.5,58.8333 164.5,54.1667 164.5,49.5C 165.5,49.5 166.5,49.5 167.5,49.5 Z"/></g>
<g><path style="opacity:1" fill="#131008" d="M 195.5,52.5 C 196.749,55.9434 196.416,59.2768 194.5,62.5C 189.516,64.8013 186.516,63.1346 185.5,57.5C 184.534,59.396 184.201,61.396 184.5,63.5C 183.167,63.5 181.833,63.5 180.5,63.5C 180.5,62.5 180.5,61.5 180.5,60.5C 180.5,56.5 180.5,52.5 180.5,48.5C 181.833,48.5 183.167,48.5 184.5,48.5C 184.201,50.604 184.534,52.604 185.5,54.5C 186.625,50.2007 189.292,48.7007 193.5,50C 194.381,50.7083 195.047,51.5416 195.5,52.5 Z"/></g>
<g><path style="opacity:1" fill="#010106" d="M 202.5,52.5 C 201.892,53.7997 201.225,55.1331 200.5,56.5C 201.225,57.8669 201.892,59.2003 202.5,60.5C 200.952,60.8212 200.285,61.8212 200.5,63.5C 199.5,63.5 198.5,63.5 197.5,63.5C 197.5,58.8333 197.5,54.1667 197.5,49.5C 198.5,49.5 199.5,49.5 200.5,49.5C 200.285,51.1788 200.952,52.1788 202.5,52.5 Z"/></g>
<g><path style="opacity:1" fill="#020206" d="M 222.5,54.5 C 221.533,55.8062 220.199,56.4729 218.5,56.5C 218.5,54.1667 218.5,51.8333 218.5,49.5C 220.143,49.4802 221.476,50.1468 222.5,51.5C 223.776,52.6136 223.776,53.6136 222.5,54.5 Z"/></g>
<g><path style="opacity:1" fill="#48494a" d="M 300.5,47.5 C 303.563,52.0719 307.23,56.2385 311.5,60C 312.448,60.4828 313.448,60.6495 314.5,60.5C 313.486,61.6737 312.153,62.3404 310.5,62.5C 307.23,57.5603 303.23,53.2269 298.5,49.5C 298.833,48.5 299.5,47.8333 300.5,47.5 Z"/></g>
<g><path style="opacity:1" fill="#4f4416" d="M 43.5,47.5 C 44.552,47.3505 45.552,47.5172 46.5,48C 44.6089,49.4424 42.6089,50.6091 40.5,51.5C 41.5,50.1667 42.5,48.8333 43.5,47.5 Z"/></g>
<g><path style="opacity:1" fill="#514805" d="M 105.5,49.5 C 106.568,48.5655 107.901,48.2322 109.5,48.5C 109.5,53.8333 109.5,59.1667 109.5,64.5C 107.901,64.7678 106.568,64.4345 105.5,63.5C 106.5,63.5 107.5,63.5 108.5,63.5C 108.5,58.8333 108.5,54.1667 108.5,49.5C 107.5,49.5 106.5,49.5 105.5,49.5 Z"/></g>
<g><path style="opacity:1" fill="#0b0806" d="M 132.5,50.5 C 134.167,50.5 135.833,50.5 137.5,50.5C 137.5,51.8333 137.5,53.1667 137.5,54.5C 136.5,54.5 135.5,54.5 134.5,54.5C 133.833,53.1667 133.167,51.8333 132.5,50.5 Z"/></g>
<g><path style="opacity:1" fill="#7b6d04" d="M 167.5,49.5 C 166.5,49.5 165.5,49.5 164.5,49.5C 164.5,54.1667 164.5,58.8333 164.5,63.5C 165.5,63.5 166.5,63.5 167.5,63.5C 166.432,64.4345 165.099,64.7678 163.5,64.5C 163.5,59.1667 163.5,53.8333 163.5,48.5C 165.099,48.2322 166.432,48.5655 167.5,49.5 Z"/></g>
<g><path style="opacity:1" fill="#635807" d="M 258.5,48.5 C 259.931,49.7804 260.598,51.4471 260.5,53.5C 259.069,52.2196 258.402,50.5529 258.5,48.5 Z"/></g>
<g><path style="opacity:1" fill="#f6f6f7" d="M 298.5,49.5 C 303.23,53.2269 307.23,57.5603 310.5,62.5C 303.423,62.4438 298.423,59.1104 295.5,52.5C 296.167,51.1667 297.167,50.1667 298.5,49.5 Z"/></g>
<g><path style="opacity:1" fill="#4a4206" d="M 132.5,50.5 C 134.607,49.5318 136.941,49.1984 139.5,49.5C 139.5,50.1667 139.5,50.8333 139.5,51.5C 138.167,52.1667 138.167,52.8333 139.5,53.5C 138.448,55.256 136.781,55.9227 134.5,55.5C 134.5,55.1667 134.5,54.8333 134.5,54.5C 135.5,54.5 136.5,54.5 137.5,54.5C 137.5,53.1667 137.5,51.8333 137.5,50.5C 135.833,50.5 134.167,50.5 132.5,50.5 Z"/></g>
<g><path style="opacity:1" fill="#38320b" d="M 35.5,50.5 C 36.9063,50.9731 37.573,51.9731 37.5,53.5C 36.0937,53.0269 35.427,52.0269 35.5,50.5 Z"/></g>
<g><path style="opacity:1" fill="#b19d02" d="M 202.5,52.5 C 200.952,52.1788 200.285,51.1788 200.5,49.5C 199.5,49.5 198.5,49.5 197.5,49.5C 197.5,54.1667 197.5,58.8333 197.5,63.5C 198.5,63.5 199.5,63.5 200.5,63.5C 200.285,61.8212 200.952,60.8212 202.5,60.5C 201.766,61.7079 201.433,63.0413 201.5,64.5C 198.924,64.5321 196.591,63.8654 194.5,62.5C 196.416,59.2768 196.749,55.9434 195.5,52.5C 196.434,51.4324 196.768,50.099 196.5,48.5C 198.167,48.5 199.833,48.5 201.5,48.5C 201.433,49.9587 201.766,51.2921 202.5,52.5 Z"/></g>
<g><path style="opacity:1" fill="#1e1a0b" d="M 215.5,56.5 C 213.5,56.5 211.5,56.5 209.5,56.5C 208.522,56.189 207.855,55.5223 207.5,54.5C 210.128,52.3673 212.961,52.034 216,53.5C 216.74,54.7494 216.573,55.7494 215.5,56.5 Z"/></g>
<g><path style="opacity:1" fill="#000006" d="M 139.5,53.5 C 141.591,54.8654 143.924,55.5321 146.5,55.5C 144.603,56.8048 142.269,57.4714 139.5,57.5C 136.731,57.4714 134.397,56.8048 132.5,55.5C 133.167,55.5 133.833,55.5 134.5,55.5C 136.781,55.9227 138.448,55.256 139.5,53.5 Z"/></g>
<g><path style="opacity:1" fill="#9a8903" d="M 139.5,51.5 C 140.833,51.5 142.167,51.5 143.5,51.5C 143.5,52.5 143.5,53.5 143.5,54.5C 144.5,54.5 145.5,54.5 146.5,54.5C 146.5,54.8333 146.5,55.1667 146.5,55.5C 143.924,55.5321 141.591,54.8654 139.5,53.5C 138.167,52.8333 138.167,52.1667 139.5,51.5 Z"/></g>
<g><path style="opacity:1" fill="#e3cb01" d="M 189.5,52.5 C 190.5,52.5 191.5,52.5 192.5,52.5C 192.5,55.1667 192.5,57.8333 192.5,60.5C 191.5,60.5 190.5,60.5 189.5,60.5C 189.5,57.8333 189.5,55.1667 189.5,52.5 Z"/></g>
<g><path style="opacity:1" fill="#52490c" d="M 260.5,53.5 C 262.25,54.6594 263.25,56.326 263.5,58.5C 261.75,57.3406 260.75,55.674 260.5,53.5 Z"/></g>
<g><path style="opacity:1" fill="#5e530f" d="M 37.5,53.5 C 38.1667,53.5 38.8333,53.5 39.5,53.5C 38.8333,57.5 38.1667,57.5 37.5,53.5 Z"/></g>
<g><path style="opacity:1" fill="#000005" d="M 110.5,55.5 C 115.944,54.8917 120.944,55.5583 125.5,57.5C 120.056,58.1083 115.056,57.4417 110.5,55.5 Z"/></g>
<g><path style="opacity:1" fill="#e6cd00" d="M 173.5,54.5 C 175.337,54.6395 175.67,55.3061 174.5,56.5C 173.702,56.0431 173.369,55.3764 173.5,54.5 Z"/></g>
<g><path style="opacity:1" fill="#ff8f45" d="M 277.5,55.5 C 282.894,54.398 285.894,56.5647 286.5,62C 285.089,67.1409 281.755,68.8075 276.5,67C 272.376,62.6949 272.709,58.8615 277.5,55.5 Z"/></g>
<g><path style="opacity:1" fill="#d9d9d9" d="M 292.5,55.5 C 296.472,56.9492 299.806,59.4492 302.5,63C 299.843,63.1747 297.176,63.0081 294.5,62.5C 290.158,61.1466 289.492,58.8132 292.5,55.5 Z"/></g>
<g><path style="opacity:1" fill="#65635f" d="M 295.5,52.5 C 298.423,59.1104 303.423,62.4438 310.5,62.5C 308.193,64.0468 305.527,64.7135 302.5,64.5C 299.473,64.7135 296.807,64.0468 294.5,62.5C 297.176,63.0081 299.843,63.1747 302.5,63C 299.806,59.4492 296.472,56.9492 292.5,55.5C 293.167,54.1667 294.167,53.1667 295.5,52.5 Z"/></g>
<g><path style="opacity:1" fill="#5e5304" d="M 222.5,54.5 C 222.802,57.0593 222.468,59.3926 221.5,61.5C 221.5,60.5 221.5,59.5 221.5,58.5C 217.486,58.3345 213.486,58.5012 209.5,59C 212.5,59.3333 215.5,59.6667 218.5,60C 215.183,60.4983 211.85,60.665 208.5,60.5C 208.433,59.0413 208.766,57.7079 209.5,56.5C 211.5,56.5 213.5,56.5 215.5,56.5C 216.5,57.8333 217.5,57.8333 218.5,56.5C 220.199,56.4729 221.533,55.8062 222.5,54.5 Z"/></g>
<g><path style="opacity:1" fill="#4f4608" d="M 132.5,55.5 C 134.397,56.8048 136.731,57.4714 139.5,57.5C 142.269,57.4714 144.603,56.8048 146.5,55.5C 147.686,56.7054 147.686,58.0387 146.5,59.5C 141.833,59.5 137.167,59.5 132.5,59.5C 131.314,58.0387 131.314,56.7054 132.5,55.5 Z"/></g>
<g><path style="opacity:1" fill="#130f06" d="M 111.5,58.5 C 116.167,58.5 120.833,58.5 125.5,58.5C 125.5,60.5 125.5,62.5 125.5,64.5C 120.833,64.5 116.167,64.5 111.5,64.5C 111.5,62.5 111.5,60.5 111.5,58.5 Z"/></g>
<g><path style="opacity:1" fill="#171306" d="M 132.5,59.5 C 137.167,59.5 141.833,59.5 146.5,59.5C 146.5,61.1667 146.5,62.8333 146.5,64.5C 141.972,63.0628 137.306,62.3961 132.5,62.5C 132.5,61.5 132.5,60.5 132.5,59.5 Z"/></g>
<g><path style="opacity:1" fill="#796c04" d="M 115.5,60.5 C 117.604,60.2011 119.604,60.5344 121.5,61.5C 120.5,61.8333 119.5,62.1667 118.5,62.5C 116.97,62.3601 115.97,61.6935 115.5,60.5 Z"/></g>
<g><path style="opacity:1" fill="#4e4508" d="M 263.5,58.5 C 265.446,59.2544 266.279,60.5878 266,62.5C 264.519,61.5291 263.685,60.1958 263.5,58.5 Z"/></g>
<g><path style="opacity:1" fill="#ac9803" d="M 179.5,60.5 C 179.833,60.5 180.167,60.5 180.5,60.5C 180.5,61.5 180.5,62.5 180.5,63.5C 181.833,63.5 183.167,63.5 184.5,63.5C 179.5,64.8333 174.5,64.8333 169.5,63.5C 172.833,63.5 176.167,63.5 179.5,63.5C 179.5,62.5 179.5,61.5 179.5,60.5 Z"/></g>
<g><path style="opacity:1" fill="#1e1a06" d="M 221.5,61.5 C 218.482,61.3354 215.482,61.502 212.5,62C 215.882,62.1764 219.215,62.6764 222.5,63.5C 217.88,64.4933 213.214,64.8266 208.5,64.5C 208.5,63.1667 208.5,61.8333 208.5,60.5C 211.85,60.665 215.183,60.4983 218.5,60C 215.5,59.6667 212.5,59.3333 209.5,59C 213.486,58.5012 217.486,58.3345 221.5,58.5C 221.5,59.5 221.5,60.5 221.5,61.5 Z"/></g>
<g><path style="opacity:1" fill="#5b5107" d="M 273.5,68.5 C 271.456,67.9688 269.789,66.8022 268.5,65C 270.772,65.0768 272.438,66.2435 273.5,68.5 Z"/></g>
<g><path style="opacity:1" fill="#16110a" d="M 220.5,112.5 C 210.993,114.887 202.993,112.22 196.5,104.5C 183.816,116.442 171.15,116.442 158.5,104.5C 150.751,112.804 141.418,115.304 130.5,112C 126.591,110.218 123.258,107.718 120.5,104.5C 109.715,114.982 98.0479,116.148 85.5,108C 78.0222,99.5353 76.5222,90.0353 81,79.5C 89.1719,68.56 99.6719,65.7267 112.5,71C 115.312,72.9773 117.978,75.144 120.5,77.5C 128.011,68.5818 137.344,66.0818 148.5,70C 152.258,71.9229 155.591,74.4229 158.5,77.5C 166.054,68.5842 175.388,66.0842 186.5,70C 190.258,71.9229 193.591,74.4229 196.5,77.5C 208.681,65.8995 221.181,65.5662 234,76.5C 241.42,89.2435 239.587,100.41 228.5,110C 226.091,111.707 223.425,112.54 220.5,112.5 Z"/></g>
<g><path style="opacity:1" fill="#4c430e" d="M 273.5,68.5 C 274.756,68.4614 275.756,68.9614 276.5,70C 275.002,70.5847 274.002,70.0847 273.5,68.5 Z"/></g>
<g><path style="opacity:1" fill="#f0d600" d="M 117.5,96.5 C 116.972,78.529 125.638,69.6956 143.5,70C 149.348,71.424 154.014,74.5907 157.5,79.5C 153.551,87.1394 153.551,94.8061 157.5,102.5C 145.361,115.797 133.195,115.797 121,102.5C 120.284,100.121 119.117,98.1209 117.5,96.5 Z"/></g>
<g><path style="opacity:1" fill="#3b70f6" d="M 220.5,112.5 C 199.847,112.015 191.68,101.682 196,81.5C 204.009,69.5391 214.509,66.7058 227.5,73C 240.395,84.362 240.728,96.0287 228.5,108C 225.809,109.605 223.142,111.105 220.5,112.5 Z"/></g>
<g><path style="opacity:1" fill="#f468bd" d="M 117.5,96.5 C 117.586,98.677 118.253,100.677 119.5,102.5C 109.088,114.51 97.7544,115.51 85.5,105.5C 77.2831,95.0526 77.6164,84.8859 86.5,75C 98.892,66.6168 109.892,68.1168 119.5,79.5C 116.463,84.9723 115.796,90.6389 117.5,96.5 Z"/></g>
<g><path style="opacity:1" fill="#f168bb" d="M 172.5,69.5 C 182.247,68.2099 189.913,71.5432 195.5,79.5C 191.505,87.1492 191.505,94.8159 195.5,102.5C 186.693,113.049 176.36,114.882 164.5,108C 150.629,91.7716 153.296,78.9382 172.5,69.5 Z"/></g>
<g><path style="opacity:1" fill="#6e6108" d="M 278.5,72.5 C 278.917,71.8761 279.584,71.5427 280.5,71.5C 283.617,73.1509 286.951,74.3175 290.5,75C 286.283,75.3193 282.283,74.4859 278.5,72.5 Z"/></g>
<g><path style="opacity:1" fill="#665a06" d="M 317.5,69.5 C 317.5,70.1667 317.5,70.8333 317.5,71.5C 312.73,73.8156 307.73,74.9823 302.5,75C 307.786,73.8501 312.786,72.0167 317.5,69.5 Z"/></g>
<g><path style="opacity:1" fill="#0d0b06" d="M 133.5,79.5 C 134.919,80.4511 136.585,80.7845 138.5,80.5C 138.5,81.8333 138.5,83.1667 138.5,84.5C 133.5,84.5 128.5,84.5 123.5,84.5C 123.5,83.1667 123.5,81.8333 123.5,80.5C 126.14,80.4467 128.64,79.78 131,78.5C 132.07,78.528 132.903,78.8614 133.5,79.5 Z"/></g>
<g><path style="opacity:1" fill="#120a0f" d="M 172.5,78.5 C 177.111,79.4851 181.778,80.1518 186.5,80.5C 186.5,82.1667 186.5,83.8333 186.5,85.5C 183.428,85.1826 180.428,85.5159 177.5,86.5C 180.572,88.2724 183.905,89.439 187.5,90C 186.881,91.7571 185.714,92.9238 184,93.5C 181.373,92.6766 178.706,92.0099 176,91.5C 172.23,93.216 168.396,93.5493 164.5,92.5C 164.167,91.8333 163.833,91.1667 163.5,90.5C 166.843,89.9013 169.843,88.568 172.5,86.5C 169.914,85.52 167.247,85.1866 164.5,85.5C 164.5,83.8333 164.5,82.1667 164.5,80.5C 167.698,81.0356 170.365,80.369 172.5,78.5 Z"/></g>
<g><path style="opacity:1" fill="#080911" d="M 207.5,78.5 C 210.932,78.7573 214.266,79.424 217.5,80.5C 217.5,82.1667 217.5,83.8333 217.5,85.5C 216.022,85.238 214.689,85.5713 213.5,86.5C 214.945,88.0627 216.611,89.396 218.5,90.5C 216.616,94.0172 214.283,94.3506 211.5,91.5C 209.119,93.3959 206.619,93.7292 204,92.5C 205.403,90.4503 206.57,88.1169 207.5,85.5C 206.167,85.5 204.833,85.5 203.5,85.5C 203.5,83.8333 203.5,82.1667 203.5,80.5C 205.483,80.8432 206.817,80.1765 207.5,78.5 Z"/></g>
<g><path style="opacity:1" fill="#120a0e" d="M 104.5,79.5 C 106.5,79.5 108.5,79.5 110.5,79.5C 110.5,87.1667 110.5,94.8333 110.5,102.5C 108.5,102.5 106.5,102.5 104.5,102.5C 104.5,101.167 104.5,99.8333 104.5,98.5C 91.2406,106.116 85.4072,102.116 87,86.5C 88.875,80.8446 92.7084,79.0113 98.5,81C 101.97,85.8972 103.97,85.3972 104.5,79.5 Z"/></g>
<g><path style="opacity:1" fill="#100d06" d="M 139.5,79.5 C 141.167,79.5 142.833,79.5 144.5,79.5C 145.167,84.8333 145.833,84.8333 146.5,79.5C 148.167,79.5 149.833,79.5 151.5,79.5C 151.5,84.1667 151.5,88.8333 151.5,93.5C 149.833,93.5 148.167,93.5 146.5,93.5C 145.833,86.8333 145.167,86.8333 144.5,93.5C 142.833,93.5 141.167,93.5 139.5,93.5C 139.5,88.8333 139.5,84.1667 139.5,79.5 Z"/></g>
<g><path style="opacity:1" fill="#050509" d="M 226.5,79.5 C 226.5,84.8333 226.5,90.1667 226.5,95.5C 224.833,95.5 223.167,95.5 221.5,95.5C 221.5,93.1667 221.5,90.8333 221.5,88.5C 220.5,88.5 219.5,88.5 218.5,88.5C 218.5,86.8333 218.5,85.1667 218.5,83.5C 219.5,83.5 220.5,83.5 221.5,83.5C 221.5,82.1667 221.5,80.8333 221.5,79.5C 223.167,79.5 224.833,79.5 226.5,79.5 Z"/></g>
<g><path style="opacity:1" fill="#1b316a" d="M 226.5,79.5 C 227.489,84.9753 227.822,90.642 227.5,96.5C 225.265,96.7947 223.265,96.4614 221.5,95.5C 223.167,95.5 224.833,95.5 226.5,95.5C 226.5,90.1667 226.5,84.8333 226.5,79.5 Z"/></g>
<g><path style="opacity:1" fill="#120f07" d="M 137.5,91.5 C 134.495,93.2994 131.162,93.9661 127.5,93.5C 125.278,93.4413 124.278,92.2747 124.5,90C 124.439,88.2894 125.106,86.956 126.5,86C 129.928,85.2989 133.262,85.6323 136.5,87C 137.38,88.3561 137.714,89.8561 137.5,91.5 Z"/></g>
<g><path style="opacity:1" fill="#f268bd" d="M 93.5,84.5 C 94.4959,84.4142 95.3292,84.7476 96,85.5C 96.6667,89.5 96.6667,93.5 96,97.5C 95.586,97.9574 95.086,98.2907 94.5,98.5C 92.244,94.0102 91.9107,89.3435 93.5,84.5 Z"/></g>
<g><path style="opacity:1" fill="#ead501" d="M 129.5,88.5 C 130.675,88.281 131.675,88.6143 132.5,89.5C 130.948,90.7979 129.948,90.4646 129.5,88.5 Z"/></g>
<g><path style="opacity:1" fill="#dc5fab" d="M 102.5,88.5 C 103.649,88.7911 104.316,89.6244 104.5,91C 104.167,91.8333 103.833,92.6667 103.5,93.5C 102.548,91.9547 102.215,90.288 102.5,88.5 Z"/></g>
<g><path style="opacity:1" fill="#c1ac02" d="M 133.5,79.5 C 135.5,79.5 137.5,79.5 139.5,79.5C 139.5,84.1667 139.5,88.8333 139.5,93.5C 141.167,93.5 142.833,93.5 144.5,93.5C 145.167,86.8333 145.833,86.8333 146.5,93.5C 148.167,93.5 149.833,93.5 151.5,93.5C 150.167,94.1667 148.833,94.8333 147.5,95.5C 141.5,94.1667 135.5,94.1667 129.5,95.5C 128.833,94.8333 128.167,94.1667 127.5,93.5C 131.162,93.9661 134.495,93.2994 137.5,91.5C 138.6,90.6951 138.934,88.3618 138.5,84.5C 138.5,83.1667 138.5,81.8333 138.5,80.5C 136.585,80.7845 134.919,80.4511 133.5,79.5 Z"/></g>
<g><path style="opacity:1" fill="#0e0b06" d="M 147.5,95.5 C 152.733,97.9477 152.733,100.448 147.5,103C 140.392,103.924 133.392,103.591 126.5,102C 124.816,98.5386 125.816,96.372 129.5,95.5C 135.5,94.1667 141.5,94.1667 147.5,95.5 Z"/></g>
<g><path style="opacity:1" fill="#070406" d="M 163.5,95.5 C 171.167,95.5 178.833,95.5 186.5,95.5C 186.5,96.8333 186.5,98.1667 186.5,99.5C 183.813,99.3359 181.146,99.5026 178.5,100C 177.663,101.011 177.33,102.178 177.5,103.5C 175.833,103.5 174.167,103.5 172.5,103.5C 172.5,102.167 172.5,100.833 172.5,99.5C 169.5,99.5 166.5,99.5 163.5,99.5C 163.5,98.1667 163.5,96.8333 163.5,95.5 Z"/></g>
<g><path style="opacity:1" fill="#0b0b16" d="M 205.5,95.5 C 207.167,95.5 208.833,95.5 210.5,95.5C 210.5,96.5 210.5,97.5 210.5,98.5C 216.167,98.5 221.833,98.5 227.5,98.5C 227.5,100.167 227.5,101.833 227.5,103.5C 220.167,103.5 212.833,103.5 205.5,103.5C 205.5,100.833 205.5,98.1667 205.5,95.5 Z"/></g>
<g><path style="opacity:1" fill="#b39f01" d="M 130.5,98.5 C 135.544,98.1725 140.544,98.5059 145.5,99.5C 143,99.8333 140.5,100.167 138,100.5C 135.071,100.475 132.571,99.8086 130.5,98.5 Z"/></g>
<g><path style="opacity:1" fill="#5a5009" d="M 40.5,111.5 C 34.6437,109.242 28.6437,108.908 22.5,110.5C 27.0618,107.067 32.0618,106.567 37.5,109C 38.9423,109.377 39.9423,110.21 40.5,111.5 Z"/></g>
<g><path style="opacity:1" fill="#2b2506" d="M 40.5,111.5 C 42.8333,111.833 44.1667,113.167 44.5,115.5C 42.8333,114.5 41.5,113.167 40.5,111.5 Z"/></g>
<g><path style="opacity:1" fill="#1b1706" d="M 279.5,113.5 C 278.833,113.5 278.167,113.5 277.5,113.5C 278.167,110.833 278.833,110.833 279.5,113.5 Z"/></g>
<g><path style="opacity:1" fill="#e1e1e1" d="M 277.5,113.5 C 278.167,113.5 278.833,113.5 279.5,113.5C 279.75,115.674 280.75,117.341 282.5,118.5C 282.122,120.921 281.455,123.254 280.5,125.5C 279.167,126.833 277.833,126.833 276.5,125.5C 275.662,125.158 275.328,124.492 275.5,123.5C 274.509,120.756 274.843,118.089 276.5,115.5C 276.328,114.508 276.662,113.842 277.5,113.5 Z"/></g>
<g><path style="opacity:1" fill="#322e26" d="M 279.5,113.5 C 281.25,114.659 282.25,116.326 282.5,118.5C 280.75,117.341 279.75,115.674 279.5,113.5 Z"/></g>
<g><path style="opacity:1" fill="#3c350b" d="M 22.5,110.5 C 19.4474,113.39 16.9474,116.724 15,120.5C 14.3933,124.537 14.56,128.537 15.5,132.5C 11.1191,123.042 13.4524,115.709 22.5,110.5 Z"/></g>
<g><path style="opacity:1" fill="#1d1906" d="M 24.5,116.5 C 25.8333,116.5 27.1667,116.5 28.5,116.5C 28.5,117.5 28.5,118.5 28.5,119.5C 26.0274,119.912 24.6941,118.912 24.5,116.5 Z"/></g>
<g><path style="opacity:1" fill="#343128" d="M 276.5,115.5 C 274.843,118.089 274.509,120.756 275.5,123.5C 272.873,120.623 273.206,117.956 276.5,115.5 Z"/></g>
<g><path style="opacity:1" fill="#33312e" d="M 259.5,120.5 C 260.833,120.5 262.167,120.5 263.5,120.5C 263.5,121.833 263.5,123.167 263.5,124.5C 259.56,125.234 258.227,123.901 259.5,120.5 Z"/></g>
<g><path style="opacity:1" fill="#f6f6f6" d="M 260.5,121.5 C 262.337,121.639 262.67,122.306 261.5,123.5C 260.702,123.043 260.369,122.376 260.5,121.5 Z"/></g>
<g><path style="opacity:1" fill="#2d2815" d="M 282.5,118.5 C 283.885,121.285 283.218,123.618 280.5,125.5C 281.455,123.254 282.122,120.921 282.5,118.5 Z"/></g>
<g><path style="opacity:1" fill="#574d09" d="M 44.5,115.5 C 49.367,121.24 49.7004,127.24 45.5,133.5C 47.0918,127.356 46.7585,121.356 44.5,115.5 Z"/></g>
<g><path style="opacity:1" fill="#1f1a06" d="M 37.5,124.5 C 38.5,124.5 39.5,124.5 40.5,124.5C 40.762,125.978 40.4287,127.311 39.5,128.5C 37.8888,127.68 37.2222,126.346 37.5,124.5 Z"/></g>
<g><path style="opacity:1" fill="#4e450b" d="M 22.5,130.5 C 20.0756,128.08 19.9089,125.413 22,122.5C 22.4974,125.146 22.6641,127.813 22.5,130.5 Z"/></g>
<g><path style="opacity:1" fill="#494330" d="M 276.5,125.5 C 277.833,126.833 279.167,126.833 280.5,125.5C 279.167,130.833 277.833,130.833 276.5,125.5 Z"/></g>
<g><path style="opacity:1" fill="#2b2606" d="M 22.5,130.5 C 23.8333,131.167 24.8333,132.167 25.5,133.5C 23.5,133.5 22.5,132.5 22.5,130.5 Z"/></g>
<g><path style="opacity:1" fill="#181403" d="M 180.5,132.5 C 179.833,132.5 179.167,132.5 178.5,132.5C 179.167,129.833 179.833,129.833 180.5,132.5 Z"/></g>
<g><path style="opacity:1" fill="#2f2908" d="M 15.5,132.5 C 16.9063,132.973 17.573,133.973 17.5,135.5C 16.0937,135.027 15.427,134.027 15.5,132.5 Z"/></g>
<g><path style="opacity:1" fill="#4b420a" d="M 25.5,133.5 C 29.3575,134.997 32.8575,134.33 36,131.5C 36.1667,131.833 36.3333,132.167 36.5,132.5C 32.8794,135.84 29.2128,136.173 25.5,133.5 Z"/></g>
<g><path style="opacity:1" fill="#2f2909" d="M 45.5,133.5 C 44.5265,136.648 42.5265,138.481 39.5,139C 41.3702,136.96 43.3702,135.127 45.5,133.5 Z"/></g>
<g><path style="opacity:1" fill="#341c46" d="M 178.5,132.5 C 178.912,134.973 177.912,136.306 175.5,136.5C 176.512,135.128 177.512,133.795 178.5,132.5 Z"/></g>
<g><path style="opacity:1" fill="#8942e3" d="M 178.5,132.5 C 179.167,132.5 179.833,132.5 180.5,132.5C 180.5,132.833 180.5,133.167 180.5,133.5C 180.5,135.5 181.5,136.5 183.5,136.5C 184.833,137.5 184.833,138.5 183.5,139.5C 181.5,139.5 180.5,140.5 180.5,142.5C 179.833,142.5 179.167,142.5 178.5,142.5C 178.5,140.5 177.5,139.5 175.5,139.5C 174.89,138.609 174.557,137.609 174.5,136.5C 174.833,136.5 175.167,136.5 175.5,136.5C 177.912,136.306 178.912,134.973 178.5,132.5 Z"/></g>
<g><path style="opacity:1" fill="#321b42" d="M 180.5,133.5 C 181.833,134.167 182.833,135.167 183.5,136.5C 181.5,136.5 180.5,135.5 180.5,133.5 Z"/></g>
<g><path style="opacity:1" fill="#453d0f" d="M 17.5,135.5 C 18.8333,136.167 19.8333,137.167 20.5,138.5C 18.5,138.5 17.5,137.5 17.5,135.5 Z"/></g>
<g><path style="opacity:1" fill="#1d170e" d="M 174.5,136.5 C 174.557,137.609 174.89,138.609 175.5,139.5C 171.014,138.852 170.68,137.852 174.5,136.5 Z"/></g>
<g><path style="opacity:1" fill="#17120c" d="M 183.5,136.5 C 188.833,137.5 188.833,138.5 183.5,139.5C 184.833,138.5 184.833,137.5 183.5,136.5 Z"/></g>
<g><path style="opacity:1" fill="#342d0a" d="M 20.5,138.5 C 22.5932,139.045 24.5932,139.878 26.5,141C 23.9175,141.542 21.9175,140.708 20.5,138.5 Z"/></g>
<g><path style="opacity:1" fill="#1e1020" d="M 175.5,139.5 C 177.5,139.5 178.5,140.5 178.5,142.5C 177.167,141.833 176.167,140.833 175.5,139.5 Z"/></g>
<g><path style="opacity:1" fill="#4c440b" d="M 33.5,140.5 C 34.8734,140.343 36.2068,140.51 37.5,141C 34.634,142.457 31.634,142.79 28.5,142C 30.3817,141.802 32.0484,141.302 33.5,140.5 Z"/></g>
<g><path style="opacity:1" fill="#2b2018" d="M 183.5,139.5 C 182.833,140.833 181.833,141.833 180.5,142.5C 180.5,140.5 181.5,139.5 183.5,139.5 Z"/></g>
<g><path style="opacity:1" fill="#251b17" d="M 178.5,142.5 C 179.167,142.5 179.833,142.5 180.5,142.5C 179.833,146.5 179.167,146.5 178.5,142.5 Z"/></g>
</svg>
